{
.appVersion = "3151";
.formatVersion = 3;
DisplayStrings = (
"᷊̈̇̀̄̀/gravecomb_macroncomb ́/acutecomb_macroncomb ̋/caroncomb.alt ̂̌̆̊̃̄/macroncomb_gravecomb/macroncomb_acutecomb ̴̵̧̨̛̣̤̥̦̩̭̯̰̱̲̉̍̏̐̑̒̓᷇̕͘/brevecomb_acutecomb ̀́/brevecomb_gravecomb ̉̆/brevecomb_hookabovecomb/brevecomb_tildecomb/circumflexcomb_acutecomb/circumflexcomb_gravecomb/circumflexcomb_hookabovecomb/circumflexcomb_tildecomb ᷅᷄᷆¨˙`´˝ˆˊˇˋ˘˚˜¯¸˛hʼhʻˀʹʿʾˈ",
"ṀṂ",
"̋Ő",
"Ộ",
"Ɵ",
J,
"Ɲ",

glyphs = (
{
color = 4;
glyphname = A;
kernLeft = KO_A;
kernRight = KO_A;
lastChange = "2024-01-23 08:30:16 +0000";
layers = (
{
anchors = (
{
name = bottom;
pos = (329,0);
},
{
name = ogonek;
pos = (628,0);
},
{
name = top;
pos = (329,700);
}
);
layerId = m01;
shapes = (
{
closed = 1;
nodes = (
(111,0,l),
(111,13,o),
(111,26,o),
(111,39,cs),
(111,72,o),
(114,102,o),
(133,115,cs),
(143,122,o),
(161,131,o),
(329,131,cs),
(497,131,o),
(515,122,o),
(525,115,cs),
(545,101,o),
(547,72,o),
(547,39,cs),
(547,26,o),
(547,13,o),
(547,0,c),
(628,0,l),
(599,216,o),
(582,419,o),
(570,700,c),
(88,700,l),
(76,419,o),
(59,216,o),
(30,0,c)
);
},
{
closed = 1;
nodes = (
(233,351,o),
(168,354,o),
(145,377,cs),
(139,383,o),
(136,390,o),
(136,403,cs),
(136,416,o),
(139,423,o),
(145,429,cs),
(168,452,o),
(235,455,o),
(329,455,cs),
(423,455,o),
(490,452,o),
(513,429,cs),
(519,423,o),
(522,416,o),
(522,403,cs),
(522,390,o),
(519,383,o),
(513,377,cs),
(490,354,o),
(425,351,o),
(329,351,cs)
);
}
);
width = 658;
},
{
anchors = (
{
name = bottom;
pos = (295,0);
},
{
name = ogonek;
pos = (522,0);
},
{
name = top;
pos = (288,700);
}
);
layerId = "60D037D9-62E9-4843-B070-F1594CB0B0D1";
shapes = (
{
closed = 1;
nodes = (
(85,0,l),
(85,10,o),
(89,61,o),
(94,109,cs),
(99,153,o),
(106,195,o),
(113,202,cs),
(122,211,o),
(127,214,o),
(288,214,cs),
(449,214,o),
(454,211,o),
(463,202,cs),
(470,195,o),
(477,153,o),
(482,109,cs),
(487,61,o),
(491,10,o),
(491,0,c),
(522,0,l),
(486,232,o),
(468,468,o),
(453,700,c),
(123,700,l),
(108,468,o),
(90,232,o),
(54,0,c)
);
},
{
closed = 1;
nodes = (
(123,243,o),
(115,243,o),
(115,272,cs),
(115,300,o),
(119,363,o),
(128,463,cs),
(144,645,o),
(145,650,o),
(152,655,cs),
(159,660,o),
(166,661,o),
(288,661,cs),
(410,661,o),
(417,660,o),
(424,655,cs),
(431,650,o),
(432,645,o),
(448,463,cs),
(457,363,o),
(461,300,o),
(461,272,cs),
(461,243,o),
(453,243,o),
(288,243,cs)
);
}
);
width = 576;
}
);
unicode = 65;
userData = {
KernOnName = A;
};
},
{
color = 5;
glyphname = "Alpha-latin";
lastChange = "2024-01-23 15:54:55 +0000";
layers = (
{
background = {
shapes = (
{
pos = (-30,0);
ref = O;
}
);
};
layerId = "60D037D9-62E9-4843-B070-F1594CB0B0D1";
shapes = (
{
closed = 1;
nodes = (
(413,-16,o),
(467,35,o),
(503,92,cs),
(527,130,o),
(533,138,o),
(542,138,cs),
(552,138,o),
(553,130,o),
(553,50,cs),
(553,-16,o),
(584,-16,o),
(610,-16,c),
(610,22,l),
(606,21,o),
(601,20,o),
(597,20,cs),
(588,20,o),
(581,25,o),
(579,36,cs),
(572,74,o),
(572,246,o),
(572,350,cs),
(572,454,o),
(572,626,o),
(579,664,cs),
(581,675,o),
(588,680,o),
(597,680,cs),
(601,680,o),
(606,679,o),
(610,678,c),
(610,716,l),
(584,716,o),
(553,716,o),
(553,650,cs),
(553,570,o),
(552,562,o),
(542,562,cs),
(533,562,o),
(527,570,o),
(503,608,cs),
(467,665,o),
(413,716,o),
(318,716,cs),
(172,716,o),
(54,637,o),
(54,350,cs),
(54,63,o),
(172,-16,o),
(318,-16,cs)
);
},
{
closed = 1;
nodes = (
(252,23,o),
(187,37,o),
(142,98,cs),
(104,149,o),
(77,237,o),
(77,350,cs),
(77,463,o),
(104,551,o),
(142,602,cs),
(187,663,o),
(252,677,o),
(318,677,cs),
(398,677,o),
(443,644,o),
(492,581,cs),
(529,533,o),
(548,463,o),
(548,350,cs),
(548,237,o),
(529,167,o),
(492,119,cs),
(443,56,o),
(398,23,o),
(318,23,cs)
);
}
);
width = 662;
},
{
background = {
shapes = (
{
pos = (-10,0);
ref = O;
}
);
};
layerId = m01;
shapes = (
{
closed = 1;
nodes = (
(439,-10,o),
(492,45,o),
(516,81,cs),
(536,111,o),
(548,127,o),
(557,127,cs),
(567,127,o),
(569,120,o),
(569,85,cs),
(569,-8,o),
(644,-8,o),
(693,-8,c),
(693,76,l),
(678,74,o),
(678,74,o),
(667,74,cs),
(657,74,o),
(648,80,o),
(645,92,cs),
(642,102,o),
(639,123,o),
(639,350,cs),
(639,577,o),
(642,598,o),
(645,608,cs),
(648,620,o),
(657,626,o),
(667,626,cs),
(678,626,o),
(678,626,o),
(693,624,c),
(693,708,l),
(644,708,o),
(569,708,o),
(569,615,cs),
(569,580,o),
(567,573,o),
(557,573,cs),
(548,573,o),
(536,589,o),
(516,619,cs),
(492,655,o),
(439,710,o),
(320,710,cs),
(124,710,o),
(42,594,o),
(42,350,cs),
(42,106,o),
(124,-10,o),
(320,-10,cs)
);
},
{
closed = 1;
nodes = (
(264,245,o),
(212,250,o),
(176,262,cs),
(129,278,o),
(109,305,o),
(109,350,cs),
(109,395,o),
(129,422,o),
(176,438,cs),
(212,450,o),
(264,455,o),
(342,455,cs),
(414,455,o),
(472,450,o),
(507,438,cs),
(555,422,o),
(575,395,o),
(575,350,cs),
(575,305,o),
(555,278,o),
(507,262,cs),
(472,250,o),
(414,245,o),
(342,245,cs)
);
}
);
width = 701;
}
);
metricLeft = O;
metricRight = S;
unicode = 11373;
},
{
color = 2;
glyphname = AE;
kernLeft = KO_AE;
kernRight = KO_AE;
lastChange = "2024-01-23 15:55:02 +0000";
layers = (
{
anchors = (
{
name = bottom;
pos = (484,0);
},
{
name = top;
pos = (484,700);
}
);
background = {
shapes = (
{
closed = 1;
nodes = (
(86,0,l),
(90,21,o),
(124,187,o),
(141,202,cs),
(153,212,o),
(164,214,o),
(275,214,cs),
(399,214,o),
(416,213,o),
(423,208,cs),
(433,201,o),
(436,179,o),
(436,0,c),
(782,0,l),
(782,36,l),
(720,36,o),
(658,36,o),
(596,36,cs),
(489,36,o),
(477,37,o),
(470,42,cs),
(462,48,o),
(459,62,o),
(459,195,cs),
(459,301,o),
(460,341,o),
(470,348,cs),
(477,353,o),
(495,354,o),
(549,354,cs),
(635,354,o),
(635,354,o),
(764,351,c),
(764,387,l),
(635,384,o),
(635,384,o),
(550,384,cs),
(495,384,o),
(477,385,o),
(470,390,cs),
(462,396,o),
(459,411,o),
(459,524,cs),
(459,637,o),
(462,652,o),
(470,658,cs),
(477,663,o),
(489,664,o),
(596,664,cs),
(658,664,o),
(720,664,o),
(782,664,c),
(782,700,l),
(219,700,l),
(170,468,o),
(120,232,o),
(54,0,c)
);
},
{
closed = 1;
nodes = (
(188,243,o),
(176,244,o),
(164,249,cs),
(146,256,o),
(147,264,o),
(193,464,cs),
(233,639,o),
(236,651,o),
(243,656,cs),
(250,661,o),
(275,661,o),
(334,661,cs),
(419,661,o),
(426,659,o),
(431,655,cs),
(437,650,o),
(437,649,o),
(437,463,cs),
(437,271,o),
(434,256,o),
(424,249,cs),
(417,244,o),
(399,243,o),
(291,243,cs)
);
}
);
};
layerId = "60D037D9-62E9-4843-B070-F1594CB0B0D1";
shapes = (
{
closed = 1;
nodes = (
(86,0,l),
(90,21,o),
(124,187,o),
(141,202,cs),
(153,212,o),
(164,214,o),
(275,214,cs),
(399,214,o),
(416,213,o),
(423,208,cs),
(433,201,o),
(436,179,o),
(436,0,c),
(782,0,l),
(782,36,l),
(720,36,o),
(658,36,o),
(596,36,cs),
(489,36,o),
(477,37,o),
(470,42,cs),
(462,48,o),
(459,62,o),
(459,195,cs),
(459,301,o),
(460,341,o),
(470,348,cs),
(477,353,o),
(495,354,o),
(549,354,cs),
(635,354,o),
(635,354,o),
(764,351,c),
(764,387,l),
(635,384,o),
(635,384,o),
(550,384,cs),
(495,384,o),
(478,385,o),
(471,390,cs),
(463,396,o),
(460,411,o),
(460,524,cs),
(460,637,o),
(463,652,o),
(471,658,cs),
(478,663,o),
(489,664,o),
(596,664,cs),
(658,664,o),
(720,664,o),
(782,664,c),
(782,700,l),
(219,700,l),
(170,468,o),
(120,232,o),
(54,0,c)
);
},
{
closed = 1;
nodes = (
(156,243,o),
(153,246,o),
(153,266,cs),
(153,288,o),
(164,337,o),
(193,464,cs),
(233,639,o),
(236,651,o),
(243,656,cs),
(250,661,o),
(275,661,o),
(334,661,cs),
(419,661,o),
(426,659,o),
(431,655,cs),
(437,650,o),
(437,649,o),
(437,463,cs),
(437,271,o),
(434,256,o),
(424,249,cs),
(417,244,o),
(399,243,o),
(291,243,cs)
);
}
);
width = 812;
},
{
anchors = (
{
name = bottom;
pos = (560,0);
},
{
name = top;
pos = (560,700);
}
);
background = {
shapes = (
{
closed = 1;
nodes = (
(135,0,l),
(132,43,o),
(129,97,o),
(159,115,cs),
(171,122,o),
(191,131,o),
(321,131,cs),
(452,131,o),
(472,122,o),
(484,115,cs),
(514,97,o),
(511,43,o),
(508,0,c),
(920,0,l),
(920,249,l),
(910,248,o),
(815,246,o),
(770,246,cs),
(628,246,o),
(605,248,o),
(586,262,cs),
(579,269,o),
(574,273,o),
(574,287,cs),
(574,301,o),
(579,307,o),
(586,313,cs),
(605,327,o),
(669,325,o),
(770,325,cs),
(823,325,o),
(868,324,o),
(890,323,c),
(890,395,l),
(868,394,o),
(823,393,o),
(770,393,cs),
(669,393,o),
(596,392,o),
(582,404,cs),
(576,409,o),
(574,415,o),
(574,423,cs),
(574,431,o),
(576,437,o),
(582,442,cs),
(596,454,o),
(628,455,o),
(770,455,cs),
(815,455,o),
(907,453,o),
(917,452,c),
(920,700,l),
(199,700,l),
(145,427,o),
(88,208,o),
(30,0,c)
);
},
{
closed = 1;
nodes = (
(304,350,o),
(239,353,o),
(216,376,cs),
(210,382,o),
(207,390,o),
(207,403,cs),
(207,416,o),
(210,424,o),
(216,430,cs),
(239,453,o),
(306,456,o),
(348,456,cs),
(390,456,o),
(457,453,o),
(480,430,cs),
(486,424,o),
(489,416,o),
(489,403,cs),
(489,390,o),
(486,382,o),
(480,376,cs),
(457,353,o),
(392,350,o),
(348,350,cs)
);
}
);
};
layerId = m01;
shapes = (
{
closed = 1;
nodes = (
(133,0,l),
(133,48,o),
(133,92,o),
(152,110,cs),
(173,129,o),
(189,131,o),
(321,131,cs),
(453,131,o),
(467,129,o),
(488,110,cs),
(507,92,o),
(509,43,o),
(509,0,c),
(920,0,l),
(920,249,l),
(910,248,o),
(815,246,o),
(770,246,cs),
(628,246,o),
(604,249,o),
(586,262,cs),
(578,268,o),
(574,276,o),
(574,287,cs),
(574,299,o),
(578,307,o),
(586,313,cs),
(602,325,o),
(669,325,o),
(712,325,cs),
(751,325,o),
(751,325,o),
(890,322,c),
(890,396,l),
(751,393,o),
(751,393,o),
(712,393,cs),
(669,393,o),
(596,395,o),
(582,405,cs),
(574,411,o),
(574,419,o),
(574,424,cs),
(574,429,o),
(576,437,o),
(582,442,cs),
(596,454,o),
(628,455,o),
(770,455,cs),
(815,455,o),
(907,453,o),
(917,452,c),
(920,700,l),
(199,700,l),
(145,427,o),
(88,208,o),
(30,0,c)
);
},
{
closed = 1;
nodes = (
(304,350,o),
(239,353,o),
(216,376,cs),
(210,382,o),
(207,390,o),
(207,403,cs),
(207,416,o),
(210,424,o),
(216,430,cs),
(239,453,o),
(306,456,o),
(348,456,cs),
(390,456,o),
(457,453,o),
(480,430,cs),
(486,424,o),
(489,416,o),
(489,403,cs),
(489,390,o),
(486,382,o),
(480,376,cs),
(457,353,o),
(392,350,o),
(348,350,cs)
);
}
);
width = 956;
}
);
metricLeft = A;
metricRight = E;
unicode = 198;
},
{
color = 4;
glyphname = B;
kernLeft = KO_H;
kernRight = KO_B;
lastChange = "2024-01-23 08:31:00 +0000";
layers = (
{
anchors = (
{
name = bottom;
pos = (293,0);
},
{
name = center;
pos = (305,350);
},
{
name = hook;
pos = (60,700);
},
{
name = top;
pos = (286,700);
}
);
layerId = m01;
shapes = (
{
closed = 1;
nodes = (
(406,0,ls),
(553,0,o),
(620,61,o),
(620,193,cs),
(620,282,o),
(578,346,o),
(489,369,c),
(551,402,o),
(576,448,o),
(576,515,cs),
(576,642,o),
(509,700,o),
(362,700,cs),
(58,700,l),
(61,463,o),
(61,463,o),
(61,350,cs),
(61,239,o),
(61,239,o),
(58,0,c)
);
},
{
closed = 1;
nodes = (
(167,235,o),
(152,242,o),
(135,252,cs),
(129,256,o),
(121,265,o),
(121,283,cs),
(121,302,o),
(129,311,o),
(135,314,cs),
(152,325,o),
(167,331,o),
(312,331,cs),
(457,331,o),
(471,325,o),
(488,314,cs),
(494,311,o),
(502,302,o),
(502,283,cs),
(502,265,o),
(494,256,o),
(488,252,cs),
(471,242,o),
(457,235,o),
(312,235,cs)
);
},
{
closed = 1;
nodes = (
(183,392,o),
(152,394,o),
(137,409,cs),
(133,413,o),
(130,418,o),
(130,428,cs),
(130,437,o),
(133,443,o),
(137,447,cs),
(152,461,o),
(183,463,o),
(301,463,cs),
(419,463,o),
(450,461,o),
(465,447,cs),
(469,443,o),
(472,437,o),
(472,428,cs),
(472,418,o),
(469,413,o),
(465,409,cs),
(450,394,o),
(419,392,o),
(301,392,cs)
);
}
);
width = 660;
},
{
anchors = (
{
name = bottom;
pos = (275,0);
},
{
name = center;
pos = (299,350);
},
{
name = hook;
pos = (96,700);
},
{
name = top;
pos = (275,700);
}
);
background = {
shapes = (
{
closed = 1;
nodes = (
(356,0,ls),
(477,0,o),
(559,78,o),
(559,188,cs),
(559,266,o),
(525,339,o),
(418,367,c),
(513,407,o),
(518,489,o),
(518,526,cs),
(518,629,o),
(455,700,o),
(343,700,cs),
(96,700,l),
(97,671,o),
(99,461,o),
(99,350,cs),
(99,239,o),
(97,29,o),
(96,0,c)
);
},
{
closed = 1;
nodes = (
(153,39,o),
(141,42,o),
(132,49,cs),
(123,56,o),
(120,63,o),
(120,193,cs),
(120,323,o),
(123,335,o),
(132,342,cs),
(141,349,o),
(153,350,o),
(249,350,cs),
(351,350,o),
(389,350,o),
(427,338,cs),
(473,323,o),
(537,278,o),
(537,193,cs),
(537,127,o),
(504,77,o),
(448,54,cs),
(418,42,o),
(377,39,o),
(249,39,cs)
);
},
{
closed = 1;
nodes = (
(153,381,o),
(141,382,o),
(132,389,cs),
(123,396,o),
(120,408,o),
(120,521,cs),
(120,634,o),
(123,646,o),
(132,653,cs),
(141,660,o),
(153,661,o),
(249,661,cs),
(351,661,o),
(377,660,o),
(405,653,cs),
(451,641,o),
(496,598,o),
(496,521,cs),
(496,444,o),
(451,401,o),
(405,389,cs),
(377,382,o),
(351,381,o),
(249,381,cs)
);
}
);
};
layerId = "60D037D9-62E9-4843-B070-F1594CB0B0D1";
shapes = (
{
closed = 1;
nodes = (
(356,0,ls),
(477,0,o),
(559,78,o),
(559,188,cs),
(559,266,o),
(525,339,o),
(418,367,c),
(513,407,o),
(518,489,o),
(518,526,cs),
(518,629,o),
(455,700,o),
(343,700,cs),
(96,700,l),
(99,461,o),
(99,461,o),
(99,350,cs),
(99,239,o),
(99,239,o),
(96,0,c)
);
},
{
closed = 1;
nodes = (
(153,39,o),
(141,42,o),
(132,49,cs),
(123,56,o),
(120,63,o),
(120,193,cs),
(120,323,o),
(123,335,o),
(132,342,cs),
(141,349,o),
(153,350,o),
(249,350,cs),
(351,350,o),
(389,350,o),
(427,338,cs),
(473,323,o),
(537,278,o),
(537,193,cs),
(537,127,o),
(504,77,o),
(448,54,cs),
(418,42,o),
(377,39,o),
(249,39,cs)
);
},
{
closed = 1;
nodes = (
(153,381,o),
(141,382,o),
(132,389,cs),
(123,396,o),
(120,408,o),
(120,521,cs),
(120,634,o),
(123,646,o),
(132,653,cs),
(141,660,o),
(153,661,o),
(249,661,cs),
(351,661,o),
(377,660,o),
(405,653,cs),
(451,641,o),
(496,598,o),
(496,521,cs),
(496,444,o),
(451,401,o),
(405,389,cs),
(377,382,o),
(351,381,o),
(249,381,cs)
);
}
);
width = 604;
}
);
metricLeft = H;
unicode = 66;
},
{
color = 2;
glyphname = "Beta-latin";
lastChange = "2024-01-05 09:59:10 +0000";
layers = (
{
layerId = "60D037D9-62E9-4843-B070-F1594CB0B0D1";
shapes = (
{
closed = 1;
nodes = (
(109,-118,l),
(107,-22,o),
(105,56,o),
(106,152,c),
(87,152,l),
(86,56,o),
(83,-22,o),
(80,-118,c)
);
},
{
ref = B;
}
);
width = 591;
},
{
layerId = m01;
shapes = (
{
closed = 1;
nodes = (
(131,-137,l),
(128,-41,o),
(127,56,o),
(127,152,c),
(60,152,l),
(59,56,o),
(58,-41,o),
(55,-137,c)
);
},
{
ref = B;
}
);
width = 671;
}
);
unicode = 42932;
},
{
color = 3;
glyphname = Bstroke;
kernRight = KO_B;
lastChange = "2024-01-09 18:38:00 +0000";
layers = (
{
anchors = (
{
name = bottom;
pos = (260,0);
},
{
name = center;
pos = (320,350);
},
{
name = hook;
pos = (82,700);
},
{
name = top;
pos = (260,700);
}
);
layerId = "60D037D9-62E9-4843-B070-F1594CB0B0D1";
shapes = (
{
closed = 1;
nodes = (
(341,0,ls),
(462,0,o),
(544,78,o),
(544,188,cs),
(544,266,o),
(510,339,o),
(403,367,c),
(498,407,o),
(503,489,o),
(503,526,cs),
(503,629,o),
(440,700,o),
(328,700,cs),
(82,700,l),
(84,482,o),
(84,218,o),
(82,0,c)
);
},
{
closed = 1;
nodes = (
(138,39,o),
(126,42,o),
(117,49,cs),
(108,56,o),
(105,63,o),
(105,193,cs),
(105,323,o),
(108,335,o),
(117,342,cs),
(126,349,o),
(138,350,o),
(234,350,cs),
(336,350,o),
(374,350,o),
(412,338,cs),
(458,323,o),
(522,278,o),
(522,193,cs),
(522,127,o),
(489,77,o),
(433,54,cs),
(403,42,o),
(362,39,o),
(234,39,cs)
);
},
{
closed = 1;
nodes = (
(138,381,o),
(126,382,o),
(117,389,cs),
(108,396,o),
(105,408,o),
(105,521,cs),
(105,634,o),
(108,646,o),
(117,653,cs),
(126,660,o),
(138,661,o),
(234,661,cs),
(336,661,o),
(362,660,o),
(390,653,cs),
(436,641,o),
(481,598,o),
(481,521,cs),
(481,444,o),
(436,401,o),
(390,389,cs),
(362,382,o),
(336,381,o),
(234,381,cs)
);
},
{
closed = 1;
nodes = (
(92,185,o),
(188,185,o),
(281,182,c),
(281,212,l),
(188,209,o),
(92,209,o),
(-1,212,c),
(-1,182,l)
);
}
);
width = 591;
},
{
anchors = (
{
name = bottom;
pos = (293,0);
},
{
name = center;
pos = (328,350);
},
{
name = hook;
pos = (58,700);
},
{
name = top;
pos = (286,700);
}
);
layerId = m01;
shapes = (
{
closed = 1;
nodes = (
(406,0,ls),
(553,0,o),
(620,61,o),
(620,193,cs),
(620,282,o),
(578,346,o),
(489,369,c),
(551,402,o),
(576,448,o),
(576,515,cs),
(576,642,o),
(509,700,o),
(362,700,cs),
(58,700,l),
(62,451,o),
(62,249,o),
(58,0,c)
);
},
{
closed = 1;
nodes = (
(167,215,o),
(152,221,o),
(135,230,cs),
(128,234,o),
(121,246,o),
(121,268,cs),
(121,291,o),
(129,303,o),
(135,306,cs),
(152,316,o),
(167,321,o),
(312,321,cs),
(457,321,o),
(471,316,o),
(485,308,cs),
(497,301,o),
(502,286,o),
(502,268,cs),
(502,246,o),
(495,234,o),
(484,228,cs),
(471,221,o),
(457,215,o),
(312,215,cs)
);
},
{
closed = 1;
nodes = (
(183,392,o),
(152,394,o),
(137,407,cs),
(133,411,o),
(130,415,o),
(130,424,cs),
(130,432,o),
(133,437,o),
(137,441,cs),
(152,453,o),
(183,455,o),
(301,455,cs),
(419,455,o),
(450,453,o),
(465,441,cs),
(469,437,o),
(472,432,o),
(472,424,cs),
(472,415,o),
(469,411,o),
(465,407,cs),
(450,394,o),
(419,392,o),
(301,392,cs)
);
},
{
closed = 1;
nodes = (
(68,249,o),
(154,249,o),
(238,247,c),
(238,287,l),
(154,285,o),
(68,285,o),
(-16,287,c),
(-16,247,l)
);
}
);
width = 660;
}
);
unicode = 579;
},
{
color = 4;
glyphname = C;
kernLeft = KO_C;
kernRight = KO_C;
lastChange = "2024-01-23 08:31:38 +0000";
layers = (
{
anchors = (
{
name = bottom;
pos = (311,0);
},
{
name = center;
pos = (336,350);
},
{
name = hook;
pos = (578,686);
},
{
name = top;
pos = (342,700);
}
);
layerId = m01;
shapes = (
{
closed = 1;
nodes = (
(578,270,l),
(532,260,o),
(438,245,o),
(321,245,cs),
(234,245,o),
(176,256,o),
(143,281,cs),
(122,297,o),
(112,320,o),
(112,350,cs),
(112,380,o),
(122,403,o),
(143,419,cs),
(176,444,o),
(234,455,o),
(321,455,cs),
(438,455,o),
(532,440,o),
(578,430,c),
(578,677,l),
(542,689,o),
(456,710,o),
(381,710,cs),
(152,710,o),
(42,597,o),
(42,350,cs),
(42,101,o),
(147,-10,o),
(367,-10,cs),
(431,-10,o),
(521,3,o),
(578,28,c)
);
}
);
width = 614;
},
{
anchors = (
{
name = bottom;
pos = (333,0);
},
{
name = center;
pos = (343,350);
},
{
name = hook;
pos = (508,679);
},
{
name = top;
pos = (329,700);
}
);
background = {
shapes = (
{
pos = (-17,0);
ref = O;
}
);
};
layerId = "60D037D9-62E9-4843-B070-F1594CB0B0D1";
shapes = (
{
closed = 1;
nodes = (
(508,59,l),
(467,37,o),
(402,21,o),
(344,21,cs),
(277,21,o),
(223,41,o),
(182,75,cs),
(111,134,o),
(77,235,o),
(77,350,cs),
(77,448,o),
(102,536,o),
(153,596,cs),
(197,648,o),
(260,679,o),
(344,679,cs),
(402,679,o),
(467,665,o),
(508,643,c),
(508,690,l),
(476,704,o),
(416,716,o),
(355,716,cs),
(162,716,o),
(54,578,o),
(54,350,cs),
(54,122,o),
(162,-16,o),
(355,-16,cs),
(416,-16,o),
(476,-1,o),
(508,13,c)
);
}
);
width = 538;
}
);
metricLeft = O;
unicode = 67;
userData = {
KernOnName = C;
};
},
{
color = 4;
glyphname = "Chi-latin";
lastChange = "2024-01-23 15:53:48 +0000";
layers = (
{
layerId = "60D037D9-62E9-4843-B070-F1594CB0B0D1";
shapes = (
{
closed = 1;
nodes = (
(550,46,l),
(443,46,o),
(442,46,o),
(423,70,cs),
(411,86,o),
(391,135,o),
(367,199,cs),
(329,303,o),
(281,447,o),
(243,549,cs),
(224,599,o),
(207,638,o),
(194,658,cs),
(171,694,o),
(149,700,o),
(54,700,c),
(54,654,l),
(160,654,o),
(161,654,o),
(180,630,cs),
(190,618,o),
(204,585,o),
(221,541,cs),
(257,448,o),
(305,302,o),
(346,189,cs),
(371,122,o),
(393,67,o),
(409,42,cs),
(432,6,o),
(454,0,o),
(550,0,c)
);
},
{
closed = 1;
nodes = (
(133,0,l),
(508,700,l),
(471,700,l),
(97,0,l)
);
}
);
width = 604;
},
{
layerId = m01;
shapes = (
{
closed = 1;
nodes = (
(616,245,l),
(464,245,o),
(417,251,o),
(394,273,cs),
(383,284,o),
(373,301,o),
(362,329,cs),
(354,350,o),
(351,358,o),
(325,439,cs),
(284,565,o),
(258,622,o),
(226,654,cs),
(193,688,o),
(142,700,o),
(30,700,c),
(30,456,l),
(181,456,o),
(227,450,o),
(251,429,cs),
(263,419,o),
(273,401,o),
(286,366,cs),
(293,348,o),
(290,356,o),
(317,272,cs),
(359,141,o),
(387,79,o),
(420,46,cs),
(454,12,o),
(504,0,o),
(616,0,c)
);
},
{
closed = 1;
nodes = (
(246,0,l),
(584,700,l),
(376,700,l),
(38,0,l)
);
}
);
width = 646;
}
);
metricLeft = A;
metricRight = A;
unicode = 42931;
},
{
color = 4;
glyphname = D;
kernLeft = KO_H;
kernRight = KO_D;
lastChange = "2024-01-23 08:29:55 +0000";
layers = (
{
anchors = (
{
name = bottom;
pos = (295,0);
},
{
name = center;
pos = (96,350);
},
{
name = hook;
pos = (58,700);
},
{
name = top;
pos = (295,700);
}
);
layerId = m01;
shapes = (
{
closed = 1;
nodes = (
(345,0,ls),
(444,0,o),
(493,7,o),
(542,48,cs),
(601,98,o),
(626,157,o),
(626,350,cs),
(626,543,o),
(601,602,o),
(542,652,cs),
(493,693,o),
(444,700,o),
(345,700,cs),
(58,700,l),
(61,461,o),
(61,461,o),
(61,350,cs),
(61,237,o),
(61,237,o),
(58,0,c)
);
},
{
closed = 1;
nodes = (
(209,250,o),
(178,250,o),
(149,269,cs),
(128,283,o),
(124,299,o),
(124,350,cs),
(124,401,o),
(128,417,o),
(149,431,cs),
(178,450,o),
(209,450,o),
(339,450,cs),
(474,450,o),
(495,440,o),
(524,421,cs),
(545,407,o),
(559,383,o),
(559,350,cs),
(559,319,o),
(545,295,o),
(524,279,cs),
(497,258,o),
(474,250,o),
(339,250,cs)
);
}
);
width = 668;
},
{
anchors = (
{
name = bottom;
pos = (294,0);
},
{
name = center;
pos = (110,350);
},
{
name = hook;
pos = (96,700);
},
{
name = top;
pos = (290,700);
}
);
background = {
shapes = (
{
pos = (14,0);
ref = B;
}
);
};
layerId = "60D037D9-62E9-4843-B070-F1594CB0B0D1";
shapes = (
{
closed = 1;
nodes = (
(322,0,ls),
(427,0,o),
(495,32,o),
(537,115,cs),
(570,180,o),
(570,264,o),
(570,350,cs),
(570,436,o),
(570,520,o),
(537,585,cs),
(495,668,o),
(427,700,o),
(322,700,cs),
(96,700,l),
(99,461,o),
(99,461,o),
(99,350,cs),
(99,239,o),
(99,239,o),
(96,0,c)
);
},
{
closed = 1;
nodes = (
(188,40,o),
(143,43,o),
(132,53,cs),
(122,62,o),
(121,75,o),
(121,350,cs),
(121,634,o),
(124,646,o),
(133,653,cs),
(142,660,o),
(183,661,o),
(312,661,cs),
(435,661,o),
(492,622,o),
(519,566,cs),
(548,506,o),
(548,425,o),
(548,350,cs),
(548,275,o),
(548,198,o),
(519,138,cs),
(492,82,o),
(435,40,o),
(312,40,cs)
);
}
);
width = 624;
}
);
metricLeft = H;
metricRight = O;
unicode = 68;
},
{
color = 2;
glyphname = Eth;
kernRight = KO_Dcroat;
lastChange = "2024-01-23 15:53:48 +0000";
layers = (
{
layerId = "60D037D9-62E9-4843-B070-F1594CB0B0D1";
shapes = (
{
pos = (13,0);
ref = D;
},
{
closed = 1;
nodes = (
(63,335,o),
(155,335,o),
(206,333,c),
(206,364,l),
(155,362,o),
(63,362,o),
(12,364,c),
(12,333,l)
);
}
);
width = 637;
},
{
layerId = m01;
shapes = (
{
pos = (38,0);
ref = D;
},
{
closed = 1;
nodes = (
(73,319,o),
(195,319,o),
(255,315,c),
(255,389,l),
(195,385,o),
(73,385,o),
(12,389,c),
(12,315,l)
);
}
);
width = 701;
}
);
metricLeft = T;
metricRight = D;
unicode = 208;
},
{
color = 5;
glyphname = E;
kernLeft = KO_H;
kernRight = KO_E;
lastChange = "2024-01-23 08:40:09 +0000";
layers = (
{
anchors = (
{
name = bottom;
pos = (288,0);
},
{
name = ogonek;
pos = (494,0);
},
{
name = top;
pos = (295,700);
},
{
name = topleft;
pos = (96,700);
}
);
background = {
shapes = (
{
pos = (-83,0);
ref = I;
}
);
};
layerId = "60D037D9-62E9-4843-B070-F1594CB0B0D1";
shapes = (
{
closed = 1;
nodes = (
(494,0,l),
(494,36,l),
(440,36,o),
(366,36,o),
(288,36,cs),
(150,36,o),
(141,36,o),
(133,42,cs),
(123,50,o),
(121,65,o),
(121,195,cs),
(121,325,o),
(123,340,o),
(133,348,cs),
(141,354,o),
(150,354,o),
(241,354,cs),
(312,354,o),
(312,354,o),
(466,351,c),
(466,387,l),
(312,384,o),
(312,384,o),
(241,384,cs),
(150,384,o),
(141,384,o),
(133,390,cs),
(123,398,o),
(121,413,o),
(121,524,cs),
(121,635,o),
(123,650,o),
(133,658,cs),
(141,664,o),
(150,664,o),
(288,664,cs),
(363,664,o),
(438,664,o),
(486,664,c),
(486,700,l),
(96,700,l),
(99,461,o),
(99,461,o),
(99,350,cs),
(99,239,o),
(99,239,o),
(96,0,c)
);
}
);
width = 524;
},
{
anchors = (
{
name = bottom;
pos = (310,0);
},
{
name = ogonek;
pos = (574,0);
},
{
name = top;
pos = (320,700);
},
{
name = topleft;
pos = (58,700);
}
);
layerId = m01;
shapes = (
{
closed = 1;
nodes = (
(574,0,l),
(574,249,l),
(431,245,o),
(431,245,o),
(330,245,cs),
(194,245,o),
(159,248,o),
(139,262,cs),
(129,269,o),
(127,279,o),
(127,287,cs),
(127,293,o),
(127,305,o),
(139,313,cs),
(156,325,o),
(194,325,o),
(330,325,cs),
(381,325,o),
(381,325,o),
(534,322,c),
(534,395,l),
(381,392,o),
(381,392,o),
(330,392,cs),
(194,392,o),
(149,393,o),
(135,405,cs),
(129,410,o),
(127,415,o),
(127,423,cs),
(127,431,o),
(129,437,o),
(135,442,cs),
(149,454,o),
(194,455,o),
(330,455,cs),
(426,455,o),
(426,455,o),
(569,452,c),
(572,700,l),
(58,700,l),
(61,461,o),
(61,461,o),
(61,350,cs),
(61,239,o),
(61,239,o),
(58,0,c)
);
}
);
width = 610;
}
);
metricLeft = H;
metricRight = C;
unicode = 69;
userData = {
KernOnName = E;
};
},
{
color = 4;
glyphname = Eopen;
lastChange = "2024-01-05 18:30:33 +0000";
layers = (
{
layerId = "60D037D9-62E9-4843-B070-F1594CB0B0D1";
shapes = (
{
closed = 1;
nodes = (
(349,-6,o),
(406,0,o),
(469,19,c),
(469,64,l),
(397,41,o),
(340,33,o),
(291,33,cs),
(204,33,o),
(110,79,o),
(110,185,cs),
(110,280,o),
(185,353,o),
(283,353,cs),
(331,353,o),
(339,352,o),
(415,351,c),
(415,383,l),
(339,382,o),
(331,381,o),
(283,381,cs),
(188,381,o),
(116,447,o),
(116,536,cs),
(116,635,o),
(207,675,o),
(291,675,cs),
(339,675,o),
(396,667,o),
(467,644,c),
(467,689,l),
(405,708,o),
(348,714,o),
(304,714,cs),
(128,714,o),
(92,610,o),
(92,542,cs),
(92,469,o),
(125,429,o),
(141,413,cs),
(167,387,o),
(200,375,o),
(200,367,cs),
(200,359,o),
(166,349,o),
(140,323,cs),
(122,305,o),
(86,262,o),
(86,179,cs),
(86,107,o),
(123,-6,o),
(304,-6,cs)
);
}
);
width = 514;
},
{
layerId = m01;
shapes = (
{
closed = 1;
nodes = (
(334,-7,o),
(407,-4,o),
(500,13,c),
(500,273,l),
(402,247,o),
(321,242,o),
(266,243,cs),
(194,244,o),
(179,270,o),
(179,285,cs),
(179,301,o),
(183,324,o),
(266,324,cs),
(313,324,o),
(369,323,o),
(443,322,c),
(443,389,l),
(369,388,o),
(313,387,o),
(266,387,cs),
(190,387,o),
(179,406,o),
(179,424,cs),
(179,445,o),
(196,457,o),
(266,457,cs),
(321,457,o),
(398,453,o),
(496,427,c),
(496,687,l),
(403,704,o),
(334,707,o),
(294,707,cs),
(141,707,o),
(38,669,o),
(38,532,cs),
(38,475,o),
(61,441,o),
(86,418,cs),
(117,388,o),
(152,375,o),
(152,355,cs),
(152,337,o),
(122,321,o),
(93,293,cs),
(65,267,o),
(38,229,o),
(38,168,cs),
(38,31,o),
(141,-7,o),
(294,-7,cs)
);
}
);
width = 580;
}
);
unicode = 400;
},
{
color = 3;
glyphname = Esh;
lastChange = "2024-01-23 15:55:04 +0000";
layers = (
{
background = {
shapes = (
{
pos = (12,0);
ref = E;
}
);
};
layerId = "60D037D9-62E9-4843-B070-F1594CB0B0D1";
shapes = (
{
closed = 1;
nodes = (
(462,0,l),
(462,36,l),
(331,36,o),
(249,35,o),
(206,35,cs),
(144,35,o),
(133,37,o),
(127,47,cs),
(123,54,o),
(120,68,o),
(120,81,cs),
(120,91,o),
(122,106,o),
(126,113,cs),
(144,146,o),
(343,285,o),
(394,327,c),
(394,373,l),
(343,416,o),
(144,554,o),
(126,587,cs),
(122,594,o),
(120,608,o),
(120,621,cs),
(120,634,o),
(122,645,o),
(127,653,cs),
(133,663,o),
(145,665,o),
(206,665,cs),
(249,665,o),
(330,664,o),
(462,664,c),
(462,700,l),
(96,700,l),
(96,567,l),
(363,370,o),
(363,374,o),
(363,350,cs),
(363,326,o),
(363,330,o),
(96,133,c),
(96,0,l)
);
}
);
width = 492;
},
{
background = {
shapes = (
{
closed = 1;
nodes = (
(318,368,l),
(272,411,o),
(260,423,o),
(260,438,cs),
(260,448,o),
(267,451,o),
(275,453,cs),
(279,454,o),
(305,455,o),
(333,455,cs),
(398,455,o),
(409,455,o),
(559,451,c),
(559,700,l),
(55,700,l),
(55,525,l),
(247,377,o),
(247,369,o),
(247,350,cs),
(247,331,o),
(247,323,o),
(55,175,c),
(55,0,l),
(559,0,l),
(559,249,l),
(409,245,o),
(398,245,o),
(333,245,cs),
(298,245,o),
(272,246,o),
(268,247,cs),
(260,249,o),
(253,252,o),
(253,262,cs),
(253,277,o),
(272,289,o),
(318,332,c)
);
}
);
};
layerId = m01;
shapes = (
{
closed = 1;
nodes = (
(561,0,l),
(561,247,l),
(499,245,o),
(423,245,o),
(341,245,cs),
(292,245,o),
(273,246,o),
(259,252,cs),
(246,257,o),
(242,264,o),
(242,276,cs),
(242,288,o),
(244,295,o),
(264,302,cs),
(295,312,o),
(326,317,o),
(401,328,c),
(401,381,l),
(326,392,o),
(295,397,o),
(264,408,cs),
(244,415,o),
(242,420,o),
(242,430,cs),
(242,443,o),
(246,446,o),
(259,450,cs),
(274,454,o),
(292,455,o),
(341,455,cs),
(423,455,o),
(499,455,o),
(561,453,c),
(561,700,l),
(58,700,l),
(58,424,l),
(191,391,o),
(225,382,o),
(225,355,cs),
(225,328,o),
(191,319,o),
(58,286,c),
(58,0,l)
);
}
);
width = 597;
}
);
metricLeft = E;
metricRight = E;
unicode = 425;
},
{
color = 2;
glyphname = Schwa;
kernRight = KO_Schwa;
lastChange = "2024-01-05 00:47:46 +0000";
layers = (
{
layerId = "60D037D9-62E9-4843-B070-F1594CB0B0D1";
shapes = (
{
closed = 1;
nodes = (
(472,-16,o),
(570,115,o),
(570,360,cs),
(570,568,o),
(476,708,o),
(249,708,cs),
(190,708,o),
(124,697,o),
(53,673,c),
(53,629,l),
(107,652,o),
(192,673,o),
(243,673,cs),
(432,673,o),
(522,573,o),
(547,394,c),
(22,394,l),
(22,137,o),
(88,-16,o),
(296,-16,cs)
);
},
{
closed = 1;
nodes = (
(144,24,o),
(47,141,o),
(47,364,c),
(547,364,l),
(547,141,o),
(459,24,o),
(296,24,cs)
);
}
);
width = 600;
},
{
layerId = m01;
shapes = (
{
closed = 1;
nodes = (
(492,-10,o),
(599,124,o),
(599,346,cs),
(599,592,o),
(496,705,o),
(233,705,cs),
(144,705,o),
(99,695,o),
(48,679,c),
(48,411,l),
(148,446,o),
(214,456,o),
(292,456,cs),
(420,456,o),
(493,428,o),
(515,374,c),
(32,374,l),
(32,87,o),
(108,-10,o),
(315,-10,cs)
);
},
{
closed = 1;
nodes = (
(198,218,o),
(119,266,o),
(116,304,c),
(510,304,l),
(506,266,o),
(426,218,o),
(315,218,cs)
);
}
);
width = 630;
}
);
unicode = 399;
},
{
color = 4;
glyphname = Ezh;
lastChange = "2024-01-05 18:32:56 +0000";
layers = (
{
anchors = (
{
name = top;
pos = (260,700);
}
);
background = {
shapes = (
{
pos = (-13,708);
ref = two;
scale = (1,-1);
}
);
};
layerId = "60D037D9-62E9-4843-B070-F1594CB0B0D1";
shapes = (
{
closed = 1;
nodes = (
(339,-7,o),
(460,56,o),
(460,201,cs),
(460,317,o),
(399,371,o),
(326,395,cs),
(292,406,o),
(246,414,o),
(215,413,c),
(293,476,o),
(344,510,o),
(426,571,c),
(426,700,l),
(60,700,l),
(60,667,l),
(387,667,o),
(393,668,o),
(400,656,cs),
(404,650,o),
(403,634,o),
(403,622,cs),
(403,595,o),
(403,590,o),
(395,584,cs),
(337,536,o),
(243,469,o),
(184,427,c),
(184,389,l),
(208,389,o),
(218,389,o),
(249,385,cs),
(327,375,o),
(432,339,o),
(432,210,cs),
(432,73,o),
(309,32,o),
(231,32,cs),
(166,32,o),
(100,57,o),
(63,75,c),
(63,30,l),
(156,-6,o),
(194,-7,o),
(234,-7,cs)
);
}
);
width = 509;
},
{
anchors = (
{
name = top;
pos = (302,700);
}
);
layerId = m01;
shapes = (
{
closed = 1;
nodes = (
(439,-7,o),
(542,31,o),
(542,168,cs),
(542,266,o),
(507,327,o),
(433,359,cs),
(397,375,o),
(343,381,o),
(312,380,c),
(386,405,o),
(421,420,o),
(515,443,c),
(515,700,l),
(73,700,l),
(73,450,l),
(188,453,o),
(312,457,o),
(321,453,cs),
(324,452,o),
(325,450,o),
(325,445,cs),
(325,440,o),
(324,437,o),
(320,435,cs),
(306,426,o),
(214,396,o),
(187,392,c),
(187,341,l),
(254,340,o),
(287,340,o),
(318,336,cs),
(396,326,o),
(401,301,o),
(401,285,cs),
(401,270,o),
(387,246,o),
(314,243,cs),
(259,241,o),
(160,244,o),
(62,273,c),
(62,13,l),
(155,-4,o),
(246,-7,o),
(286,-7,cs)
);
}
);
width = 600;
}
);
unicode = 439;
},
{
color = 4;
glyphname = F;
kernLeft = KO_H;
kernRight = KO_F;
lastChange = "2024-01-23 08:40:23 +0000";
layers = (
{
anchors = (
{
name = bottom;
pos = (315,0);
},
{
name = top;
pos = (315,700);
}
);
background = {
shapes = (
{
pos = (1,0);
ref = E;
}
);
};
layerId = m01;
shapes = (
{
closed = 1;
nodes = (
(144,0,l),
(138,80,o),
(134,152,o),
(134,205,cs),
(134,240,o),
(137,256,o),
(146,267,cs),
(165,289,o),
(199,294,o),
(335,294,cs),
(386,294,o),
(386,294,o),
(539,291,c),
(539,364,l),
(386,361,o),
(386,361,o),
(335,361,cs),
(199,361,o),
(157,367,o),
(140,381,cs),
(133,387,o),
(129,397,o),
(129,408,cs),
(129,419,o),
(133,429,o),
(140,435,cs),
(157,449,o),
(199,455,o),
(335,455,cs),
(420,455,o),
(420,455,o),
(563,452,c),
(566,701,l),
(58,701,l),
(62,462,o),
(62,462,o),
(62,351,cs),
(62,240,o),
(62,240,o),
(58,0,c)
);
}
);
width = 602;
},
{
anchors = (
{
name = bottom;
pos = (323,0);
},
{
name = top;
pos = (323,700);
}
);
background = {
shapes = (
{
pos = (13,0);
ref = E;
}
);
};
layerId = "60D037D9-62E9-4843-B070-F1594CB0B0D1";
shapes = (
{
closed = 1;
nodes = (
(128,0,l),
(124,121,o),
(122,198,o),
(122,246,cs),
(122,312,o),
(122,328,o),
(132,336,cs),
(140,342,o),
(149,343,o),
(236,343,cs),
(307,343,o),
(307,343,o),
(461,340,c),
(461,376,l),
(307,373,o),
(307,373,o),
(235,373,cs),
(149,373,o),
(140,373,o),
(132,379,cs),
(122,387,o),
(120,403,o),
(120,519,cs),
(120,635,o),
(122,650,o),
(132,658,cs),
(140,664,o),
(149,664,o),
(288,664,cs),
(366,664,o),
(425,664,o),
(476,664,c),
(476,700,l),
(96,700,l),
(99,461,o),
(99,461,o),
(99,350,cs),
(99,239,o),
(99,239,o),
(96,0,c)
);
}
);
width = 506;
}
);
metricLeft = H;
metricRight = C;
unicode = 70;
userData = {
KernOnName = F;
};
},
{
color = 4;
glyphname = Fhook;
kernRight = KO_F;
lastChange = "2024-01-23 15:55:06 +0000";
layers = (
{
anchors = (
{
name = bottom;
pos = (351,0);
},
{
name = top;
pos = (351,700);
}
);
layerId = "60D037D9-62E9-4843-B070-F1594CB0B0D1";
shapes = (
{
closed = 1;
nodes = (
(-32,-195,o),
(-2,-200,o),
(24,-200,cs),
(103,-200,o),
(152,-151,o),
(152,-66,cs),
(152,321,o),
(151,326,o),
(160,333,cs),
(170,340,o),
(199,342,o),
(316,342,cs),
(433,342,o),
(447,342,o),
(489,340,c),
(489,376,l),
(447,374,o),
(433,374,o),
(316,374,cs),
(173,374,o),
(168,374,o),
(160,380,cs),
(150,388,o),
(148,407,o),
(148,519,cs),
(148,631,o),
(150,650,o),
(160,658,cs),
(168,664,o),
(173,664,o),
(316,664,cs),
(504,664,l),
(504,700,l),
(125,700,l),
(129,284,o),
(128,208,o),
(128,57,cs),
(128,-119,o),
(119,-142,o),
(60,-160,cs),
(49,-163,o),
(37,-165,o),
(24,-165,cs),
(-6,-165,o),
(-38,-157,o),
(-64,-142,c),
(-64,-184,l)
);
}
);
width = 534;
},
{
anchors = (
{
name = bottom;
pos = (370,0);
},
{
name = top;
pos = (370,700);
}
);
layerId = m01;
shapes = (
{
closed = 1;
nodes = (
(-14,-210,o),
(14,-212,o),
(38,-212,cs),
(167,-212,o),
(197,-152,o),
(192,31,cs),
(186,238,o),
(187,250,o),
(202,268,cs),
(220,290,o),
(248,295,o),
(355,295,cs),
(402,295,o),
(576,293,o),
(594,292,c),
(594,363,l),
(576,362,o),
(402,360,o),
(355,360,cs),
(256,360,o),
(212,366,o),
(195,380,cs),
(188,386,o),
(184,397,o),
(184,408,cs),
(184,419,o),
(188,429,o),
(195,435,cs),
(213,450,o),
(259,456,o),
(355,455,cs),
(618,452,l),
(621,701,l),
(114,701,l),
(118,481,o),
(118,293,o),
(115,60,cs),
(113,13,o),
(105,-13,o),
(90,-24,cs),
(75,-35,o),
(57,-41,o),
(30,-41,cs),
(10,-41,o),
(-15,-38,o),
(-46,-31,c),
(-46,-206,l)
);
}
);
width = 657;
}
);
metricLeft = j;
metricRight = F;
unicode = 401;
},
{
color = 4;
glyphname = G;
kernLeft = KO_C;
kernRight = KO_G;
lastChange = "2024-01-22 17:56:19 +0000";
layers = (
{
anchors = (
{
name = bottom;
pos = (354,0);
},
{
name = center;
pos = (344,350);
},
{
name = hook;
pos = (592,677);
},
{
name = top;
pos = (357,700);
}
);
background = {
shapes = (
{
ref = C;
}
);
};
layerId = m01;
shapes = (
{
closed = 1;
nodes = (
(461,-10,o),
(550,1,o),
(591,30,c),
(591,143,o),
(595,254,o),
(602,364,c),
(519,364,l),
(522,341,o),
(526,286,o),
(526,260,c),
(483,253,o),
(420,245,o),
(335,245,cs),
(248,245,o),
(176,256,o),
(143,281,cs),
(122,297,o),
(112,320,o),
(112,350,cs),
(112,380,o),
(122,403,o),
(143,419,cs),
(176,444,o),
(248,455,o),
(335,455,cs),
(452,455,o),
(546,440,o),
(592,430,c),
(592,680,l),
(556,692,o),
(470,710,o),
(397,710,cs),
(154,710,o),
(42,597,o),
(42,350,cs),
(42,103,o),
(138,-10,o),
(394,-10,cs)
);
}
);
width = 644;
},
{
anchors = (
{
name = bottom;
pos = (322,0);
},
{
name = center;
pos = (319,350);
},
{
name = hook;
pos = (519,680);
},
{
name = top;
pos = (331,700);
}
);
background = {
shapes = (
{
ref = C;
}
);
};
layerId = "60D037D9-62E9-4843-B070-F1594CB0B0D1";
shapes = (
{
closed = 1;
nodes = (
(412,-16,o),
(493,0,o),
(527,18,c),
(527,150,o),
(527,150,o),
(531,287,c),
(496,287,l),
(500,150,o),
(500,150,o),
(500,48,c),
(475,33,o),
(404,21,o),
(351,21,cs),
(278,21,o),
(219,44,o),
(175,84,cs),
(110,142,o),
(77,235,o),
(77,350,cs),
(77,463,o),
(109,549,o),
(163,605,cs),
(209,652,o),
(274,679,o),
(349,679,cs),
(403,679,o),
(459,665,o),
(519,638,c),
(519,688,l),
(470,706,o),
(411,716,o),
(361,716,cs),
(174,716,o),
(54,575,o),
(54,350,cs),
(54,130,o),
(168,-16,o),
(352,-16,cs)
);
}
);
width = 585;
}
);
metricLeft = C;
metricRight = O;
unicode = 71;
userData = {
KernOnName = G;
};
},
{
color = 2;
glyphname = Glottalstop;
lastChange = "2024-01-23 08:10:49 +0000";
layers = (
{
background = {
shapes = (
{
pos = (614,0);
ref = G;
scale = (-1,1);
}
);
};
layerId = "60D037D9-62E9-4843-B070-F1594CB0B0D1";
shapes = (
{
closed = 1;
nodes = (
(209,210,o),
(190,217,o),
(153,227,c),
(153,78,o),
(152,40,o),
(150,0,c),
(189,0,l),
(185,36,o),
(181,111,o),
(182,177,c),
(204,174,o),
(235,171,o),
(282,171,cs),
(471,172,o),
(536,314,o),
(535,447,cs),
(534,606,o),
(445,716,o),
(238,716,cs),
(188,716,o),
(129,703,o),
(80,691,c),
(80,638,l),
(140,663,o),
(209,679,o),
(263,679,cs),
(327,679,o),
(386,665,o),
(432,631,cs),
(485,591,o),
(515,525,o),
(515,443,cs),
(515,361,o),
(485,295,o),
(432,255,cs),
(386,221,o),
(320,210,o),
(263,210,cs)
);
}
);
width = 589;
},
{
layerId = m01;
shapes = (
{
closed = 1;
nodes = (
(298,245,o),
(199,252,o),
(153,262,c),
(156,186,o),
(155,33,o),
(153,0,c),
(237,0,l),
(234,20,o),
(234,62,o),
(233,89,c),
(273,86,o),
(318,83,o),
(357,83,cs),
(510,83,o),
(603,205,o),
(603,406,cs),
(603,597,o),
(491,710,o),
(248,710,cs),
(175,710,o),
(89,692,o),
(53,680,c),
(53,430,l),
(99,440,o),
(211,455,o),
(339,455,cs),
(411,455,o),
(469,444,o),
(502,419,cs),
(523,403,o),
(533,380,o),
(533,350,cs),
(533,320,o),
(523,297,o),
(502,281,cs),
(469,256,o),
(425,245,o),
(365,245,cs)
);
}
);
width = 645;
}
);
metricRight = G;
unicode = 577;
},
{
color = 3;
glyphname = Gstroke;
kernLeft = KO_C;
lastChange = "2024-01-23 15:53:48 +0000";
layers = (
{
anchors = (
{
name = bottom;
pos = (322,0);
},
{
name = hook;
pos = (519,680);
},
{
name = top;
pos = (331,700);
}
);
layerId = "60D037D9-62E9-4843-B070-F1594CB0B0D1";
shapes = (
{
closed = 1;
nodes = (
(412,-16,o),
(493,0,o),
(527,18,c),
(527,188,o),
(528,245,o),
(530,287,c),
(491,287,l),
(496,246,o),
(500,106,o),
(498,48,c),
(473,33,o),
(404,21,o),
(351,21,cs),
(278,21,o),
(219,44,o),
(175,84,cs),
(110,142,o),
(77,235,o),
(77,350,cs),
(77,463,o),
(109,549,o),
(163,605,cs),
(210,652,o),
(274,679,o),
(349,679,cs),
(403,679,o),
(459,665,o),
(519,638,c),
(519,688,l),
(470,706,o),
(411,716,o),
(361,716,cs),
(174,716,o),
(54,575,o),
(54,350,cs),
(54,130,o),
(168,-16,o),
(352,-16,cs)
);
},
{
closed = 1;
nodes = (
(466,165,o),
(558,165,o),
(609,163,c),
(609,194,l),
(558,192,o),
(466,192,o),
(415,194,c),
(415,163,l)
);
}
);
width = 621;
},
{
anchors = (
{
name = bottom;
pos = (354,0);
},
{
name = hook;
pos = (592,677);
},
{
name = top;
pos = (357,700);
}
);
layerId = m01;
shapes = (
{
closed = 1;
nodes = (
(461,-10,o),
(550,1,o),
(591,30,c),
(593,143,o),
(597,254,o),
(603,364,c),
(519,364,l),
(522,333,o),
(526,259,o),
(526,221,c),
(483,219,o),
(391,215,o),
(306,215,cs),
(234,215,o),
(176,226,o),
(143,251,cs),
(120,268,o),
(112,298,o),
(112,335,cs),
(112,372,o),
(120,402,o),
(143,419,cs),
(176,444,o),
(234,455,o),
(306,455,cs),
(434,455,o),
(546,440,o),
(592,430,c),
(592,680,l),
(556,692,o),
(470,710,o),
(397,710,cs),
(154,710,o),
(42,597,o),
(42,350,cs),
(42,103,o),
(138,-10,o),
(394,-10,cs)
);
},
{
closed = 1;
nodes = (
(499,276,o),
(621,276,o),
(681,273,c),
(681,325,l),
(621,322,o),
(499,322,o),
(438,325,c),
(438,273,l)
);
}
);
width = 693;
}
);
metricLeft = G;
metricRight = T;
unicode = 484;
},
{
color = 2;
glyphname = H;
kernLeft = KO_H;
kernRight = KO_H;
lastChange = "2024-01-23 08:28:24 +0000";
layers = (
{
anchors = (
{
name = bottom;
pos = (347,0);
},
{
name = center;
pos = (347,588);
},
{
name = hook;
pos = (58,700);
},
{
name = top;
pos = (347,700);
},
{
name = topleft;
pos = (58,700);
}
);
background = {
shapes = (
{
ref = O;
}
);
};
layerId = m01;
shapes = (
{
closed = 1;
nodes = (
(142,0,l),
(139,69,o),
(139,83,o),
(139,121,cs),
(139,214,o),
(152,222,o),
(347,222,cs),
(542,222,o),
(555,214,o),
(555,121,cs),
(555,83,o),
(555,69,o),
(552,0,c),
(636,0,l),
(629,239,o),
(629,239,o),
(629,350,cs),
(629,461,o),
(629,461,o),
(636,700,c),
(554,700,l),
(557,621,o),
(557,593,o),
(557,563,cs),
(557,514,o),
(544,510,o),
(347,510,cs),
(150,510,o),
(137,514,o),
(137,563,cs),
(137,593,o),
(137,621,o),
(140,700,c),
(58,700,l),
(65,461,o),
(65,461,o),
(65,350,cs),
(65,239,o),
(65,239,o),
(58,0,c)
);
}
);
width = 694;
},
{
anchors = (
{
name = bottom;
pos = (334,0);
},
{
name = center;
pos = (334,519);
},
{
name = hook;
pos = (95,700);
},
{
name = top;
pos = (334,700);
},
{
name = topleft;
pos = (95,700);
}
);
background = {
shapes = (
{
pos = (16,0);
ref = O;
},
{
pos = (18,0);
ref = E;
}
);
};
layerId = "60D037D9-62E9-4843-B070-F1594CB0B0D1";
shapes = (
{
closed = 1;
nodes = (
(126,0,l),
(123,219,o),
(123,219,o),
(123,319,cs),
(123,350,o),
(135,350,o),
(334,350,cs),
(533,350,o),
(545,350,o),
(545,319,cs),
(545,219,o),
(545,219,o),
(542,0,c),
(572,0,l),
(569,239,o),
(569,239,o),
(569,350,cs),
(569,461,o),
(569,461,o),
(572,700,c),
(542,700,l),
(545,519,o),
(545,519,o),
(545,419,cs),
(545,388,o),
(533,388,o),
(334,388,cs),
(135,388,o),
(123,388,o),
(123,419,cs),
(123,519,o),
(123,519,o),
(126,700,c),
(96,700,l),
(99,461,o),
(99,461,o),
(99,350,cs),
(99,239,o),
(99,239,o),
(96,0,c)
);
}
);
width = 668;
}
);
unicode = 72;
userData = {
KernOnName = H;
};
},
{
color = 4;
glyphname = Hbar;
lastChange = "2024-01-09 17:09:58 +0000";
layers = (
{
anchors = (
{
name = bottom;
pos = (321,0);
},
{
name = center;
pos = (321,519);
},
{
name = hook;
pos = (82,700);
},
{
name = top;
pos = (321,700);
},
{
name = topleft;
pos = (82,700);
}
);
layerId = "60D037D9-62E9-4843-B070-F1594CB0B0D1";
shapes = (
{
closed = 1;
nodes = (
(114,0,l),
(109,81,o),
(110,133,o),
(110,319,cs),
(110,350,o),
(122,350,o),
(321,350,cs),
(520,350,o),
(532,350,o),
(532,319,cs),
(532,133,o),
(533,81,o),
(528,0,c),
(560,0,l),
(552,233,o),
(552,467,o),
(560,700,c),
(528,700,l),
(532,600,o),
(531,519,o),
(532,419,cs),
(532,388,o),
(520,388,o),
(321,388,cs),
(122,388,o),
(110,388,o),
(110,419,cs),
(111,519,o),
(110,600,o),
(114,700,c),
(82,700,l),
(90,467,o),
(90,233,o),
(82,0,c)
);
},
{
closed = 1;
nodes = (
(192,552,o),
(454,552,o),
(599,550,c),
(599,581,l),
(454,579,o),
(192,579,o),
(47,581,c),
(47,550,l)
);
}
);
width = 646;
},
{
anchors = (
{
name = bottom;
pos = (347,0);
},
{
name = center;
pos = (347,588);
},
{
name = hook;
pos = (58,700);
},
{
name = top;
pos = (347,700);
},
{
name = topleft;
pos = (58,700);
}
);
layerId = m01;
shapes = (
{
closed = 1;
nodes = (
(142,0,l),
(139,69,o),
(139,83,o),
(139,121,cs),
(139,214,o),
(152,222,o),
(347,222,cs),
(542,222,o),
(555,214,o),
(555,121,cs),
(555,83,o),
(555,69,o),
(552,0,c),
(636,0,l),
(627,249,o),
(627,451,o),
(636,700,c),
(554,700,l),
(555,581,o),
(557,553,o),
(557,523,cs),
(557,474,o),
(544,470,o),
(347,470,cs),
(150,470,o),
(137,474,o),
(137,523,cs),
(137,553,o),
(139,581,o),
(140,700,c),
(58,700,l),
(67,451,o),
(67,249,o),
(58,0,c)
);
},
{
closed = 1;
nodes = (
(236,554,o),
(461,554,o),
(680,551,c),
(680,603,l),
(461,600,o),
(236,600,o),
(14,603,c),
(14,551,l)
);
}
);
width = 694;
}
);
unicode = 294;
},
{
color = 2;
glyphname = Heng;
lastChange = "2024-01-05 18:29:35 +0000";
layers = (
{
layerId = "60D037D9-62E9-4843-B070-F1594CB0B0D1";
shapes = (
{
ref = H;
},
{
closed = 1;
nodes = (
(-76,-124,o),
(-55,-131,o),
(-35,-134,cs),
(47,-149,o),
(107,-117,o),
(115,-22,cs),
(117,-3,o),
(115,21,o),
(113,50,c),
(86,49,l),
(84,-13,o),
(83,-33,o),
(77,-48,cs),
(68,-72,o),
(56,-85,o),
(39,-93,cs),
(-4,-114,o),
(-65,-91,o),
(-93,-75,c),
(-93,-117,l)
);
}
);
width = 646;
},
{
layerId = m01;
shapes = (
{
ref = H;
},
{
closed = 1;
nodes = (
(-88,-240,o),
(-56,-242,o),
(-34,-242,cs),
(109,-242,o),
(148,-200,o),
(143,-22,cs),
(141,50,o),
(136,66,o),
(134,155,c),
(63,155,l),
(62,137,o),
(63,96,o),
(58,3,cs),
(56,-36,o),
(50,-60,o),
(-18,-60,cs),
(-73,-60,o),
(-105,-49,o),
(-126,-43,c),
(-126,-230,l)
);
}
);
width = 694;
}
);
unicode = 42790;
},
{
color = 4;
glyphname = Hturned;
lastChange = "2024-01-23 15:53:48 +0000";
layers = (
{
anchors = (
{
name = bottom;
pos = (329,0);
},
{
name = center;
pos = (329,519);
},
{
name = top;
pos = (329,700);
},
{
name = topleft;
pos = (48,700);
}
);
background = {
shapes = (
{
pos = (6,0);
ref = H;
}
);
};
layerId = "60D037D9-62E9-4843-B070-F1594CB0B0D1";
shapes = (
{
closed = 1;
nodes = (
(493,350,o),
(509,349,o),
(527,342,cs),
(539,337,o),
(540,330,o),
(540,319,cs),
(540,133,o),
(541,81,o),
(536,0,c),
(568,0,l),
(560,233,o),
(560,467,o),
(568,700,c),
(536,700,l),
(540,600,o),
(539,519,o),
(540,419,cs),
(540,388,o),
(528,388,o),
(329,388,cs),
(130,388,o),
(118,388,o),
(118,419,cs),
(119,519,o),
(118,600,o),
(122,700,c),
(90,700,l),
(94,582,o),
(96,469,o),
(96,350,c)
);
}
);
width = 656;
},
{
anchors = (
{
name = bottom;
pos = (325,0);
},
{
name = center;
pos = (325,588);
},
{
name = top;
pos = (325,700);
},
{
name = topleft;
pos = (-11,700);
}
);
background = {
shapes = (
{
pos = (-22,0);
ref = H;
}
);
};
layerId = m01;
shapes = (
{
closed = 1;
nodes = (
(348,221,o),
(463,229,o),
(507,204,cs),
(531,191,o),
(533,153,o),
(533,135,cs),
(533,97,o),
(533,69,o),
(530,0,c),
(614,0,l),
(605,249,o),
(605,451,o),
(614,700,c),
(532,700,l),
(533,621,o),
(535,593,o),
(535,563,cs),
(535,514,o),
(522,510,o),
(325,510,cs),
(128,510,o),
(115,514,o),
(115,563,cs),
(115,593,o),
(117,621,o),
(118,700,c),
(36,700,l),
(42,527,o),
(44,377,o),
(42,218,c)
);
}
);
width = 664;
}
);
metricLeft = "=|h";
metricRight = "=|h";
unicode = 42893;
},
{
color = 4;
glyphname = I;
kernLeft = KO_I;
kernRight = KO_I;
lastChange = "2024-01-23 08:56:09 +0000";
layers = (
{
anchors = (
{
name = bottom;
pos = (253,0);
},
{
name = center;
pos = (252,350);
},
{
name = ogonek;
pos = (329,0);
},
{
name = top;
pos = (253,700);
},
{
name = topleft;
pos = (58,700);
}
);
background = {
shapes = (
{
pos = (-94,0);
ref = O;
}
);
};
layerId = m01;
shapes = (
{
closed = 1;
nodes = (
(445,0,l),
(445,248,l),
(415,246,o),
(392,245,o),
(374,245,cs),
(337,245,o),
(320,249,o),
(309,256,cs),
(289,269,o),
(285,284,o),
(285,350,cs),
(285,416,o),
(289,431,o),
(309,444,cs),
(320,451,o),
(337,455,o),
(374,455,cs),
(392,455,o),
(415,454,o),
(445,452,c),
(445,700,l),
(58,700,l),
(58,452,l),
(88,454,o),
(111,455,o),
(129,455,cs),
(166,455,o),
(183,451,o),
(194,444,cs),
(214,431,o),
(218,416,o),
(218,350,cs),
(218,284,o),
(214,269,o),
(194,256,cs),
(183,249,o),
(166,245,o),
(129,245,cs),
(111,245,o),
(88,246,o),
(58,248,c),
(58,0,l)
);
}
);
width = 503;
},
{
anchors = (
{
name = bottom;
pos = (133,0);
},
{
name = center;
pos = (133,350);
},
{
name = ogonek;
pos = (181,0);
},
{
name = top;
pos = (133,700);
},
{
name = topleft;
pos = (12,700);
}
);
background = {
shapes = (
{
pos = (-102,0);
ref = one;
}
);
};
layerId = "60D037D9-62E9-4843-B070-F1594CB0B0D1";
shapes = (
{
closed = 1;
nodes = (
(253,0,l),
(253,36,l),
(235,36,o),
(220,36,o),
(208,36,cs),
(169,36,o),
(161,37,o),
(155,42,cs),
(145,50,o),
(144,65,o),
(144,350,cs),
(144,635,o),
(146,650,o),
(156,658,cs),
(162,663,o),
(170,664,o),
(209,664,cs),
(221,664,o),
(236,664,o),
(254,664,c),
(254,700,l),
(12,700,l),
(12,664,l),
(30,664,o),
(45,664,o),
(57,664,cs),
(96,664,o),
(104,663,o),
(110,658,cs),
(120,650,o),
(122,635,o),
(122,350,cs),
(122,65,o),
(120,50,o),
(110,42,cs),
(104,37,o),
(96,36,o),
(57,36,cs),
(45,36,o),
(30,36,o),
(12,36,c),
(12,0,l)
);
}
);
width = 266;
}
);
unicode = 73;
userData = {
KernOnName = I;
};
},
{
color = 4;
glyphname = IJ;
kernLeft = KO_I;
kernRight = KO_J;
lastChange = "2024-01-23 15:55:09 +0000";
layers = (
{
anchors = (
{
name = top;
pos = (298,700);
}
);
layerId = "60D037D9-62E9-4843-B070-F1594CB0B0D1";
shapes = (
{
closed = 1;
nodes = (
(253,0,l),
(253,36,l),
(172,36,o),
(163,36,o),
(155,42,cs),
(145,50,o),
(144,65,o),
(144,350,cs),
(144,635,o),
(146,650,o),
(156,658,cs),
(164,664,o),
(173,664,o),
(254,664,c),
(254,700,l),
(12,700,l),
(12,664,l),
(93,664,o),
(102,664,o),
(110,658,cs),
(120,650,o),
(122,635,o),
(122,350,cs),
(122,65,o),
(120,50,o),
(110,42,cs),
(102,36,o),
(93,36,o),
(12,36,c),
(12,0,l)
);
},
{
closed = 1;
nodes = (
(471,-16,o),
(490,43,o),
(490,148,cs),
(490,259,ls),
(490,635,o),
(492,650,o),
(502,658,cs),
(510,664,o),
(519,664,o),
(600,664,c),
(600,700,l),
(353,700,l),
(353,664,l),
(434,664,o),
(443,664,o),
(451,658,cs),
(461,650,o),
(468,635,o),
(468,259,cs),
(468,69,o),
(467,21,o),
(390,21,cs),
(356,21,o),
(323,29,o),
(283,51,c),
(283,8,l),
(308,-5,o),
(355,-16,o),
(381,-16,cs)
);
}
);
width = 612;
},
{
anchors = (
{
name = top;
pos = (478,700);
}
);
layerId = m01;
shapes = (
{
closed = 1;
nodes = (
(445,0,l),
(445,245,l),
(356,243,o),
(325,245,o),
(309,256,cs),
(289,269,o),
(285,284,o),
(285,350,cs),
(285,416,o),
(289,431,o),
(309,444,cs),
(325,455,o),
(356,457,o),
(445,455,c),
(445,700,l),
(58,700,l),
(58,455,l),
(147,457,o),
(178,455,o),
(194,444,cs),
(214,431,o),
(218,416,o),
(218,350,cs),
(218,284,o),
(214,269,o),
(194,256,cs),
(178,245,o),
(147,243,o),
(58,245,c),
(58,0,l)
);
},
{
closed = 1;
nodes = (
(705,-9,o),
(747,42,o),
(747,189,cs),
(747,349,ls),
(747,418,o),
(751,431,o),
(771,444,cs),
(787,455,o),
(818,457,o),
(907,455,c),
(907,699,l),
(518,699,l),
(518,455,l),
(607,457,o),
(638,455,o),
(654,444,cs),
(674,431,o),
(678,418,o),
(678,349,cs),
(678,270,o),
(681,222,o),
(622,222,cs),
(574,222,o),
(515,235,o),
(466,251,c),
(466,4,l),
(493,-2,o),
(561,-9,o),
(623,-9,cs)
);
}
);
width = 965;
}
);
metricLeft = I;
metricRight = J;
unicode = 306;
},
{
color = 2;
glyphname = "Iota-latin";
lastChange = "2024-01-23 08:10:49 +0000";
layers = (
{
anchors = (
{
name = bottom;
pos = (164,0);
},
{
name = center;
pos = (171,368);
},
{
name = top;
pos = (164,739);
},
{
name = topright;
pos = (353,739);
}
);
layerId = "60D037D9-62E9-4843-B070-F1594CB0B0D1";
shapes = (
{
closed = 1;
nodes = (
(127,700,l),
(12,700,l),
(12,667,l),
(77,667,o),
(85,667,o),
(93,661,cs),
(103,653,o),
(105,646,o),
(105,126,cs),
(105,61,o),
(128,26,o),
(157,9,cs),
(202,-18,o),
(261,-6,o),
(281,-2,c),
(281,39,l),
(257,32,o),
(216,25,o),
(181,36,cs),
(147,47,o),
(135,78,o),
(132,94,cs),
(126,121,o),
(126,254,o),
(127,366,c)
);
}
);
width = 293;
},
{
anchors = (
{
name = bottom;
pos = (199,0);
},
{
name = center;
pos = (219,324);
},
{
name = top;
pos = (199,741);
},
{
name = topright;
pos = (361,738);
}
);
layerId = m01;
shapes = (
{
closed = 1;
nodes = (
(258,700,l),
(58,700,l),
(58,455,l),
(149,455,o),
(166,455,o),
(176,448,cs),
(190,438,o),
(190,409,o),
(190,350,cs),
(190,197,o),
(187,117,o),
(214,67,cs),
(251,-1,o),
(316,-15,o),
(428,-5,c),
(428,253,l),
(390,237,o),
(352,230,o),
(321,233,cs),
(295,236,o),
(277,247,o),
(269,263,cs),
(257,286,o),
(256,279,o),
(256,491,c)
);
}
);
width = 486;
}
);
metricLeft = I;
metricRight = I;
unicode = 406;
},
{
color = 4;
glyphname = J;
kernLeft = KO_J;
kernRight = KO_J;
lastChange = "2024-01-23 08:10:02 +0000";
layers = (
{
anchors = (
{
name = bottom;
pos = (243,0);
},
{
name = center;
pos = (312,350);
},
{
name = top;
pos = (306,700);
}
);
background = {
shapes = (
{
pos = (76,0);
ref = I;
}
);
};
layerId = m01;
shapes = (
{
closed = 1;
nodes = (
(63,-1,o),
(131,-8,o),
(193,-8,cs),
(295,-8,o),
(347,43,o),
(347,190,cs),
(347,350,ls),
(347,419,o),
(351,431,o),
(371,444,cs),
(381,451,o),
(398,455,o),
(435,455,cs),
(453,455,o),
(476,454,o),
(506,452,c),
(506,700,l),
(119,700,l),
(119,452,l),
(149,454,o),
(172,455,o),
(190,455,cs),
(227,455,o),
(244,451,o),
(254,444,cs),
(274,431,o),
(278,419,o),
(278,350,cs),
(278,271,o),
(278,223,o),
(197,223,cs),
(142,223,o),
(85,236,o),
(36,252,c),
(36,5,l)
);
}
);
width = 564;
},
{
anchors = (
{
name = bottom;
pos = (200,0);
},
{
name = center;
pos = (228,350);
},
{
name = top;
pos = (223,700);
}
);
background = {
shapes = (
{
pos = (30,0);
ref = I;
}
);
};
layerId = "60D037D9-62E9-4843-B070-F1594CB0B0D1";
shapes = (
{
closed = 1;
nodes = (
(37,-5,o),
(84,-16,o),
(110,-16,cs),
(216,-16,o),
(239,43,o),
(239,148,cs),
(239,259,ls),
(239,635,o),
(241,650,o),
(251,658,cs),
(257,663,o),
(265,664,o),
(304,664,cs),
(316,664,o),
(331,664,o),
(349,664,c),
(349,700,l),
(107,700,l),
(107,664,l),
(125,664,o),
(140,664,o),
(152,664,cs),
(191,664,o),
(199,663,o),
(205,658,cs),
(215,650,o),
(217,635,o),
(217,259,cs),
(217,69,o),
(216,21,o),
(119,21,cs),
(85,21,o),
(52,29,o),
(12,51,c),
(12,8,l)
);
}
);
width = 361;
}
);
metricRight = I;
unicode = 74;
userData = {
KernOnName = J;
};
},
{
color = 2;
glyphname = Jcrossedtail;
lastChange = "2024-01-11 18:16:38 +0000";
layers = (
{
layerId = "60D037D9-62E9-4843-B070-F1594CB0B0D1";
shapes = (
{
closed = 1;
nodes = (
(273,-16,o),
(296,43,o),
(296,148,cs),
(296,259,ls),
(296,635,o),
(298,650,o),
(308,658,cs),
(316,664,o),
(325,664,o),
(406,664,c),
(406,700,l),
(159,700,l),
(159,664,l),
(240,664,o),
(249,664,o),
(257,658,cs),
(267,650,o),
(274,635,o),
(274,259,cs),
(274,69,o),
(265,21,o),
(185,21,cs),
(146,21,o),
(111,32,o),
(101,69,cs),
(90,109,o),
(111,141,o),
(141,154,cs),
(201,179,o),
(281,169,o),
(338,169,c),
(338,195,l),
(281,197,o),
(179,201,o),
(136,182,cs),
(77,156,o),
(65,109,o),
(74,60,cs),
(87,-9,o),
(157,-16,o),
(167,-16,cs)
);
}
);
width = 418;
},
{
layerId = m01;
shapes = (
{
closed = 1;
nodes = (
(301,-10,o),
(353,43,o),
(353,190,cs),
(353,350,ls),
(353,419,o),
(357,432,o),
(377,445,cs),
(393,456,o),
(424,458,o),
(513,456,c),
(513,700,l),
(124,700,l),
(124,456,l),
(213,458,o),
(244,456,o),
(260,445,cs),
(280,432,o),
(284,419,o),
(284,350,cs),
(284,271,o),
(289,223,o),
(198,223,cs),
(182,223,o),
(144,224,o),
(131,244,cs),
(116,267,o),
(128,280,o),
(140,290,cs),
(191,334,o),
(377,326,o),
(432,327,c),
(432,379,l),
(365,383,o),
(256,385,o),
(202,379,cs),
(75,365,o),
(-45,284,o),
(4,107,cs),
(27,24,o),
(114,-6,o),
(199,-8,cs)
);
}
);
width = 549;
}
);
metricRight = "=|J";
unicode = 42930;
},
{
color = 5;
glyphname = K;
kernLeft = KO_H;
kernRight = KO_K;
lastChange = "2024-01-23 08:33:03 +0000";
layers = (
{
anchors = (
{
name = bottom;
pos = (314,0);
},
{
name = hook;
pos = (550,700);
},
{
name = stroke;
pos = (114,551);
},
{
name = top;
pos = (314,700);
}
);
background = {
shapes = (
{
closed = 1;
nodes = (
(128,0,l),
(126,82,o),
(123,258,o),
(123,274,cs),
(123,314,o),
(123,326,o),
(131,331,cs),
(141,336,o),
(157,340,o),
(384,342,c),
(463,53,o),
(490,30,o),
(514,13,cs),
(525,5,o),
(539,-1,o),
(549,-3,cs),
(564,-6,o),
(570,-6,o),
(581,-5,c),
(581,42,l),
(566,38,o),
(546,37,o),
(527,51,cs),
(496,73,o),
(460,148,o),
(408,346,c),
(428,354,o),
(446,340,o),
(568,700,c),
(533,700,l),
(494,571,o),
(475,511,o),
(459,470,cs),
(433,405,o),
(425,387,o),
(389,383,cs),
(367,378,o),
(273,378,o),
(243,378,cs),
(150,378,o),
(141,378,o),
(131,386,cs),
(126,392,o),
(126,401,o),
(126,437,cs),
(126,493,o),
(126,647,o),
(128,700,c),
(96,700,l),
(100,592,o),
(101,482,o),
(101,361,cs),
(101,250,o),
(99,132,o),
(96,0,c)
);
},
{
pos = (14,0);
ref = B;
}
);
};
layerId = "60D037D9-62E9-4843-B070-F1594CB0B0D1";
shapes = (
{
closed = 1;
nodes = (
(126,0,l),
(123,82,o),
(121,258,o),
(121,274,cs),
(121,319,o),
(121,330,o),
(129,336,cs),
(138,343,o),
(155,343,o),
(382,343,c),
(461,54,o),
(488,31,o),
(512,13,cs),
(528,1,o),
(551,-6,o),
(568,-6,cs),
(571,-6,o),
(575,-6,o),
(579,-5,c),
(579,42,l),
(573,40,o),
(567,39,o),
(560,39,cs),
(549,39,o),
(537,42,o),
(525,51,cs),
(494,73,o),
(459,147,o),
(407,345,c),
(409,345,o),
(415,346,o),
(417,347,cs),
(434,354,o),
(459,375,o),
(566,700,c),
(532,700,l),
(512,631,o),
(499,587,o),
(461,480,cs),
(429,390,o),
(421,378,o),
(378,378,cs),
(307,378,o),
(271,378,o),
(241,378,cs),
(148,378,o),
(139,378,o),
(129,386,cs),
(124,392,o),
(123,401,o),
(123,437,cs),
(123,493,o),
(123,493,o),
(126,700,c),
(96,700,l),
(99,461,o),
(99,461,o),
(99,350,cs),
(99,239,o),
(99,239,o),
(96,0,c)
);
}
);
width = 597;
},
{
anchors = (
{
name = bottom;
pos = (305,0);
},
{
name = hook;
pos = (588,700);
},
{
name = stroke;
pos = (98,583);
},
{
name = top;
pos = (305,700);
}
);
background = {
shapes = (
{
closed = 1;
nodes = (
(138,0,l),
(136,36,o),
(134,118,o),
(134,152,cs),
(134,170,o),
(132,208,o),
(140,228,cs),
(156,265,o),
(195,269,o),
(225,268,c),
(226,185,o),
(263,105,o),
(311,52,cs),
(352,15,o),
(409,-8,o),
(483,-8,cs),
(516,-8,o),
(599,1,o),
(624,13,c),
(624,275,l),
(597,250,o),
(508,215,o),
(427,215,cs),
(351,215,o),
(309,242,o),
(294,270,c),
(533,274,o),
(576,298,o),
(611,700,c),
(522,700,l),
(522,626,o),
(523,617,o),
(519,560,cs),
(517,536,o),
(515,519,o),
(501,508,cs),
(480,492,o),
(433,488,o),
(321,488,cs),
(212,488,o),
(168,492,o),
(149,507,cs),
(136,518,o),
(135,535,o),
(136,560,cs),
(137,602,o),
(139,645,o),
(140,700,c),
(58,701,l),
(62,233,o),
(59,117,o),
(55,0,c)
);
}
);
};
layerId = m01;
shapes = (
{
closed = 1;
nodes = (
(141,0,l),
(138,36,o),
(134,118,o),
(134,152,cs),
(134,196,o),
(136,226,o),
(149,244,cs),
(162,261,o),
(184,268,o),
(225,268,c),
(225,185,o),
(261,102,o),
(311,52,cs),
(350,13,o),
(409,-8,o),
(483,-8,cs),
(516,-8,o),
(599,1,o),
(624,13,c),
(624,275,l),
(607,260,o),
(567,241,o),
(520,228,cs),
(491,220,o),
(458,215,o),
(427,215,cs),
(351,215,o),
(309,242,o),
(294,270,c),
(301,270,o),
(307,270,o),
(314,270,cs),
(535,276,o),
(573,309,o),
(607,700,c),
(514,700,l),
(514,669,o),
(514,602,o),
(514,560,cs),
(514,535,o),
(514,518,o),
(501,507,cs),
(483,491,o),
(442,488,o),
(325,488,cs),
(208,488,o),
(167,491,o),
(149,507,cs),
(136,518,o),
(136,535,o),
(136,560,cs),
(136,602,o),
(137,645,o),
(140,700,c),
(58,700,l),
(61,461,o),
(61,461,o),
(61,350,cs),
(61,239,o),
(61,239,o),
(58,0,c)
);
}
);
width = 648;
}
);
metricLeft = H;
unicode = 75;
userData = {
KernOnName = K;
};
},
{
color = 4;
glyphname = L;
kernLeft = KO_H;
kernRight = KO_L;
lastChange = "2024-01-23 08:33:16 +0000";
layers = (
{
anchors = (
{
name = bottom;
pos = (261,0);
},
{
name = center;
pos = (115,443);
},
{
name = top;
pos = (261,700);
},
{
name = topright;
pos = (391,700);
}
);
background = {
shapes = (
{
pos = (-4,0);
ref = E;
}
);
};
layerId = m01;
shapes = (
{
closed = 1;
nodes = (
(494,248,l),
(465,247,o),
(307,245,o),
(277,245,cs),
(184,245,o),
(163,248,o),
(150,258,cs),
(139,266,o),
(137,278,o),
(137,296,cs),
(137,327,o),
(140,481,o),
(145,700,c),
(58,700,l),
(61,461,o),
(61,461,o),
(61,350,cs),
(61,239,o),
(61,239,o),
(58,0,c),
(494,0,l)
);
}
);
width = 522;
},
{
anchors = (
{
name = bottom;
pos = (250,0);
},
{
name = center;
pos = (113,397);
},
{
name = top;
pos = (272,700);
},
{
name = topright;
pos = (373,700);
}
);
background = {
shapes = (
{
pos = (14,0);
ref = E;
}
);
};
layerId = "60D037D9-62E9-4843-B070-F1594CB0B0D1";
shapes = (
{
closed = 1;
nodes = (
(421,37,l),
(304,37,o),
(254,37,o),
(179,37,cs),
(152,37,o),
(143,37,o),
(135,43,cs),
(125,51,o),
(123,66,o),
(123,107,cs),
(123,307,o),
(123,477,o),
(127,701,c),
(96,701,l),
(99,462,o),
(99,461,o),
(99,350,cs),
(99,239,o),
(99,239,o),
(96,0,c),
(421,0,l)
);
}
);
width = 433;
}
);
metricLeft = H;
unicode = 76;
userData = {
KernOnName = L;
};
},
{
color = 2;
glyphname = Lbar;
lastChange = "2024-01-19 18:21:56 +0000";
layers = (
{
layerId = "60D037D9-62E9-4843-B070-F1594CB0B0D1";
shapes = (
{
ref = L;
},
{
closed = 1;
nodes = (
(65,362,o),
(157,362,o),
(208,360,c),
(208,391,l),
(157,389,o),
(65,389,o),
(14,391,c),
(14,360,l)
);
}
);
width = 462;
},
{
layerId = m01;
shapes = (
{
ref = L;
},
{
closed = 1;
nodes = (
(31,402,o),
(173,402,o),
(233,399,c),
(233,451,l),
(173,448,o),
(31,448,o),
(-30,451,c),
(-30,399,l)
);
}
);
width = 530;
}
);
unicode = 573;
},
{
color = 2;
glyphname = Lbelt;
lastChange = "2024-01-19 18:54:52 +0000";
layers = (
{
layerId = "60D037D9-62E9-4843-B070-F1594CB0B0D1";
shapes = (
{
closed = 1;
nodes = (
(152,356,o),
(188,358,o),
(242,359,c),
(242,394,l),
(188,388,o),
(165,387,o),
(117,387,cs),
(51,387,o),
(14,397,o),
(14,407,cs),
(14,422,o),
(48,431,o),
(107,431,c),
(107,467,l),
(34,467,o),
(0,448,o),
(0,407,cs),
(0,373,o),
(36,356,o),
(117,356,cs)
);
},
{
ref = L;
}
);
width = 462;
},
{
layerId = m01;
shapes = (
{
closed = 1;
nodes = (
(115,362,o),
(170,366,o),
(252,363,c),
(252,415,l),
(170,412,o),
(134,413,o),
(61,413,cs),
(25,413,o),
(8,423,o),
(8,446,cs),
(8,469,o),
(25,479,o),
(61,479,c),
(61,529,l),
(-37,529,o),
(-76,503,o),
(-76,446,cs),
(-76,391,o),
(-37,365,o),
(61,363,cs)
);
},
{
ref = L;
}
);
width = 530;
}
);
unicode = 42925;
},
{
color = 2;
glyphname = Ldoublebar;
lastChange = "2024-01-23 15:53:48 +0000";
layers = (
{
layerId = "60D037D9-62E9-4843-B070-F1594CB0B0D1";
shapes = (
{
pos = (-7,0);
ref = L;
},
{
closed = 1;
nodes = (
(63,307,o),
(155,307,o),
(206,305,c),
(206,336,l),
(155,334,o),
(63,334,o),
(12,336,c),
(12,305,l)
);
},
{
closed = 1;
nodes = (
(63,391,o),
(155,391,o),
(206,389,c),
(206,420,l),
(155,418,o),
(63,418,o),
(12,420,c),
(12,389,l)
);
}
);
width = 455;
},
{
layerId = m01;
shapes = (
{
pos = (32,0);
ref = L;
},
{
closed = 1;
nodes = (
(73,381,o),
(205,381,o),
(265,378,c),
(265,430,l),
(205,427,o),
(73,427,o),
(12,430,c),
(12,378,l)
);
},
{
closed = 1;
nodes = (
(73,480,o),
(205,480,o),
(265,477,c),
(265,529,l),
(205,526,o),
(73,526,o),
(12,529,c),
(12,477,l)
);
}
);
width = 562;
}
);
metricLeft = T;
unicode = 11360;
},
{
color = 2;
glyphname = Lmiddletilde;
lastChange = "2024-01-05 18:29:38 +0000";
layers = (
{
layerId = "60D037D9-62E9-4843-B070-F1594CB0B0D1";
shapes = (
{
ref = L;
},
{
closed = 1;
nodes = (
(208,347,o),
(228,371,o),
(228,417,c),
(184,417,l),
(184,374,o),
(164,372,o),
(146,372,cs),
(114,372,o),
(93,418,o),
(39,418,cs),
(-6,418,o),
(-27,394,o),
(-27,348,c),
(17,348,l),
(17,391,o),
(37,394,o),
(55,394,cs),
(88,394,o),
(108,347,o),
(162,347,cs)
);
}
);
width = 462;
},
{
layerId = m01;
shapes = (
{
ref = L;
},
{
closed = 1;
nodes = (
(247,371,o),
(296,400,o),
(306,498,c),
(184,498,l),
(184,466,o),
(182,443,o),
(141,443,cs),
(91,443,o),
(90,499,o),
(5,499,cs),
(-48,499,o),
(-96,471,o),
(-106,373,c),
(16,373,l),
(16,405,o),
(18,428,o),
(58,428,cs),
(109,428,o),
(108,371,o),
(192,371,cs)
);
}
);
width = 530;
}
);
unicode = 11362;
},
{
color = 4;
glyphname = M;
kernLeft = KO_H;
kernRight = KO_N;
lastChange = "2024-01-23 08:29:55 +0000";
layers = (
{
anchors = (
{
name = bottom;
pos = (414,0);
},
{
name = top;
pos = (414,700);
}
);
background = {
shapes = (
{
pos = (67,0);
ref = O;
}
);
};
layerId = m01;
shapes = (
{
closed = 1;
nodes = (
(141,0,l),
(137,97,o),
(135,192,o),
(135,259,cs),
(135,298,o),
(139,313,o),
(154,326,cs),
(164,335,o),
(187,339,o),
(220,339,cs),
(254,339,o),
(276,338,o),
(294,322,cs),
(322,297,o),
(331,271,o),
(367,0,c),
(461,0,l),
(497,271,o),
(506,297,o),
(534,322,cs),
(552,338,o),
(574,339,o),
(608,339,cs),
(641,339,o),
(664,335,o),
(674,326,cs),
(689,313,o),
(693,298,o),
(693,259,cs),
(693,192,o),
(691,97,o),
(687,0,c),
(770,0,l),
(767,239,o),
(767,239,o),
(767,350,cs),
(767,461,o),
(767,461,o),
(770,700,c),
(475,700,l),
(458,381,o),
(453,353,o),
(414,353,cs),
(375,353,o),
(370,381,o),
(353,700,c),
(58,700,l),
(61,461,o),
(61,461,o),
(61,350,cs),
(61,239,o),
(61,239,o),
(58,0,c)
);
}
);
width = 828;
},
{
anchors = (
{
name = bottom;
pos = (394,0);
},
{
name = top;
pos = (394,700);
}
);
background = {
shapes = (
{
closed = 1;
nodes = (
(166,0,l),
(162,207,o),
(161,349,o),
(161,446,cs),
(161,633,o),
(163,644,o),
(176,655,cs),
(182,660,o),
(191,661,o),
(224,661,cs),
(261,661,o),
(274,660,o),
(280,654,cs),
(291,643,o),
(294,632,o),
(390,134,c),
(478,134,l),
(574,632,o),
(577,643,o),
(588,654,cs),
(594,660,o),
(607,661,o),
(644,661,cs),
(677,661,o),
(686,660,o),
(692,655,cs),
(705,644,o),
(707,633,o),
(707,447,cs),
(707,350,o),
(705,207,o),
(702,0,c),
(732,0,l),
(729,239,o),
(729,239,o),
(729,350,cs),
(729,461,o),
(729,461,o),
(732,700,c),
(564,700,l),
(464,170,o),
(464,170,o),
(434,170,cs),
(404,170,o),
(404,170,o),
(304,700,c),
(136,700,l),
(139,461,o),
(139,461,o),
(139,350,cs),
(139,239,o),
(139,239,o),
(136,0,c)
);
},
{
pos = (94,0);
ref = O;
}
);
};
layerId = "60D037D9-62E9-4843-B070-F1594CB0B0D1";
shapes = (
{
closed = 1;
nodes = (
(127,0,l),
(123,207,o),
(122,349,o),
(122,446,cs),
(122,633,o),
(124,644,o),
(137,655,cs),
(143,660,o),
(152,661,o),
(186,661,cs),
(224,661,o),
(237,660,o),
(244,654,cs),
(255,644,o),
(278,498,o),
(356,0,c),
(447,0,l),
(525,498,o),
(548,644,o),
(559,654,cs),
(566,660,o),
(579,661,o),
(617,661,cs),
(651,661,o),
(660,660,o),
(666,655,cs),
(679,644,o),
(681,633,o),
(681,447,cs),
(681,350,o),
(679,207,o),
(676,0,c),
(707,0,l),
(704,239,o),
(704,239,o),
(704,350,cs),
(704,461,o),
(704,461,o),
(707,700,c),
(535,700,l),
(432,36,o),
(432,36,o),
(402,36,cs),
(371,36,o),
(371,36,o),
(268,700,c),
(96,700,l),
(99,461,o),
(99,461,o),
(99,350,cs),
(99,239,o),
(99,239,o),
(96,0,c)
);
}
);
width = 803;
}
);
metricLeft = H;
metricRight = H;
unicode = 77;
userData = {
KernOnName = M;
};
},
{
color = 4;
glyphname = Mturned;
lastChange = "2024-01-23 15:53:48 +0000";
layers = (
{
anchors = (
{
name = bottom;
pos = (411,0);
},
{
name = top;
pos = (411,480);
}
);
layerId = "60D037D9-62E9-4843-B070-F1594CB0B0D1";
shapes = (
{
closed = 1;
nodes = (
(744,700,l),
(746,403,o),
(746,314,o),
(746,250,cs),
(746,114,o),
(689,31,o),
(573,31,cs),
(507,31,o),
(427,61,o),
(428,185,cs),
(429,314,o),
(429,403,o),
(431,700,c),
(399,700,l),
(401,403,o),
(401,314,o),
(401,250,cs),
(401,122,o),
(347,31,o),
(227,31,cs),
(161,31,o),
(82,61,o),
(83,185,cs),
(84,308,o),
(83,403,o),
(86,700,c),
(54,700,l),
(55,403,o),
(56,252,o),
(57,150,cs),
(58,55,o),
(117,-16,o),
(213,-16,cs),
(300,-16,o),
(348,36,o),
(378,82,cs),
(393,105,o),
(398,109,o),
(404,109,cs),
(412,109,o),
(411,107,o),
(421,78,cs),
(435,38,o),
(469,-16,o),
(565,-16,cs),
(650,-16,o),
(701,39,o),
(718,72,cs),
(729,93,o),
(731,97,o),
(738,97,cs),
(745,97,o),
(745,90,o),
(745,50,cs),
(745,38,o),
(745,22,o),
(744,0,c),
(776,0,l),
(772,113,o),
(772,133,o),
(776,700,c)
);
}
);
width = 830;
},
{
anchors = (
{
name = bottom;
pos = (410,200);
},
{
name = top;
pos = (410,700);
}
);
layerId = m01;
shapes = (
{
closed = 1;
nodes = (
(725,700,l),
(727,638,o),
(729,461,o),
(729,421,cs),
(729,340,o),
(717,334,o),
(590,334,cs),
(461,334,o),
(448,340,o),
(448,421,cs),
(448,461,o),
(451,654,o),
(453,700,c),
(377,700,l),
(379,638,o),
(381,461,o),
(381,421,cs),
(381,340,o),
(369,334,o),
(240,334,cs),
(113,334,o),
(101,340,o),
(101,421,cs),
(101,456,o),
(104,654,o),
(106,700,c),
(30,700,l),
(33,638,o),
(34,322,o),
(34,161,cs),
(34,43,o),
(109,-8,o),
(200,-8,cs),
(275,-8,o),
(336,39,o),
(360,77,cs),
(379,107,o),
(383,113,o),
(390,113,cs),
(397,113,o),
(398,104,o),
(402,93,cs),
(424,32,o),
(467,-8,o),
(545,-8,cs),
(620,-8,o),
(665,33,o),
(686,61,cs),
(705,86,o),
(712,100,o),
(719,100,cs),
(729,100,o),
(729,88,o),
(729,69,cs),
(729,52,o),
(727,25,o),
(725,0,c),
(801,0,l),
(798,187,o),
(798,313,o),
(801,700,c)
);
}
);
width = 831;
}
);
metricLeft = W;
metricRight = W;
unicode = 412;
},
{
color = 4;
glyphname = N;
kernLeft = KO_H;
kernRight = KO_N;
lastChange = "2024-01-23 08:34:03 +0000";
layers = (
{
anchors = (
{
name = bottom;
pos = (314,0);
},
{
name = top;
pos = (314,700);
}
);
background = {
shapes = (
{
closed = 1;
nodes = (
(144,0,l),
(140,102,o),
(136,177,o),
(136,229,cs),
(136,276,o),
(138,295,o),
(143,317,cs),
(150,342,o),
(166,349,o),
(221,349,cs),
(270,349,o),
(290,342,o),
(312,316,cs),
(345,276,o),
(355,259,o),
(436,0,c),
(603,0,l),
(599,280,o),
(599,420,o),
(603,700,c),
(517,700,l),
(526,601,o),
(542,432,o),
(519,401,cs),
(509,387,o),
(496,383,o),
(464,383,cs),
(428,383,o),
(413,391,o),
(394,426,cs),
(367,477,o),
(346,534,o),
(299,700,c),
(58,700,l),
(62,420,o),
(62,280,o),
(58,0,c)
);
}
);
};
layerId = m01;
shapes = (
{
closed = 1;
nodes = (
(144,0,l),
(139,102,o),
(137,177,o),
(137,229,cs),
(137,276,o),
(138,296,o),
(143,317,cs),
(149,342,o),
(166,349,o),
(221,349,cs),
(270,349,o),
(290,342,o),
(312,316,cs),
(345,276,o),
(355,259,o),
(436,0,c),
(603,0,l),
(600,319,o),
(600,319,o),
(600,350,cs),
(600,381,o),
(600,381,o),
(603,700,c),
(517,700,l),
(523,639,o),
(527,551,o),
(527,485,cs),
(527,445,o),
(524,413,o),
(516,401,cs),
(506,387,o),
(496,383,o),
(464,383,cs),
(428,383,o),
(413,391,o),
(394,426,cs),
(367,477,o),
(346,534,o),
(299,700,c),
(58,700,l),
(61,381,o),
(61,381,o),
(61,350,cs),
(61,319,o),
(61,319,o),
(58,0,c)
);
}
);
width = 661;
},
{
anchors = (
{
name = bottom;
pos = (311,0);
},
{
name = top;
pos = (328,700);
}
);
background = {
shapes = (
{
pos = (-5,0);
ref = M;
}
);
};
layerId = "60D037D9-62E9-4843-B070-F1594CB0B0D1";
shapes = (
{
closed = 1;
nodes = (
(118,0,l),
(114,224,o),
(114,449,o),
(114,538,cs),
(114,635,o),
(116,645,o),
(129,656,cs),
(135,661,o),
(144,662,o),
(177,662,cs),
(214,662,o),
(226,661,o),
(232,655,cs),
(243,644,o),
(246,633,o),
(415,0,c),
(562,0,l),
(559,239,o),
(559,239,o),
(559,350,cs),
(559,461,o),
(559,461,o),
(562,700,c),
(532,700,l),
(536,476,o),
(538,248,o),
(538,159,cs),
(538,53,o),
(533,47,o),
(526,41,cs),
(520,36,o),
(511,35,o),
(486,35,cs),
(454,35,o),
(442,36,o),
(436,42,cs),
(425,53,o),
(422,64,o),
(251,700,c),
(90,700,l),
(93,461,o),
(93,461,o),
(93,350,cs),
(93,239,o),
(93,239,o),
(90,0,c)
);
}
);
width = 652;
}
);
unicode = 78;
userData = {
KernOnName = N;
};
},
{
color = 4;
glyphname = Nhookleft;
lastChange = "2024-01-23 08:10:49 +0000";
layers = (
{
anchors = (
{
name = bottom;
pos = (338,0);
},
{
name = top;
pos = (355,700);
}
);
layerId = "60D037D9-62E9-4843-B070-F1594CB0B0D1";
shapes = (
{
closed = 1;
nodes = (
(103,-138,o),
(146,-95,o),
(146,-15,cs),
(142,205,o),
(141,318,o),
(141,538,cs),
(141,635,o),
(143,645,o),
(156,656,cs),
(162,661,o),
(171,662,o),
(204,662,cs),
(241,662,o),
(253,661,o),
(259,655,cs),
(270,644,o),
(273,633,o),
(442,0,c),
(589,0,l),
(586,239,o),
(586,239,o),
(586,350,cs),
(586,461,o),
(586,461,o),
(589,700,c),
(559,700,l),
(563,476,o),
(565,248,o),
(565,159,cs),
(565,53,o),
(560,47,o),
(553,41,cs),
(547,36,o),
(538,35,o),
(513,35,cs),
(481,35,o),
(469,36,o),
(463,42,cs),
(452,53,o),
(449,64,o),
(278,700,c),
(117,700,l),
(120,461,o),
(120,461,o),
(120,350,cs),
(120,239,o),
(123,185,o),
(117,3,cs),
(114,-75,o),
(93,-105,o),
(31,-105,cs),
(-5,-105,o),
(-44,-91,o),
(-64,-80,c),
(-64,-122,l),
(-31,-132,o),
(0,-138,o),
(26,-138,cs)
);
}
);
width = 664;
},
{
anchors = (
{
name = bottom;
pos = (359,0);
},
{
name = top;
pos = (359,700);
}
);
layerId = m01;
shapes = (
{
closed = 1;
nodes = (
(151,-211,o),
(200,-157,o),
(200,-20,cs),
(200,18,o),
(193,191,o),
(193,229,cs),
(193,276,o),
(194,296,o),
(199,317,cs),
(205,342,o),
(222,349,o),
(277,349,cs),
(326,349,o),
(346,342,o),
(368,316,cs),
(401,276,o),
(411,259,o),
(492,0,c),
(659,0,l),
(658,117,o),
(657,233,o),
(656,350,cs),
(655,467,o),
(658,583,o),
(659,700,c),
(573,700,l),
(579,639,o),
(583,551,o),
(583,485,cs),
(583,445,o),
(580,413,o),
(572,401,cs),
(562,387,o),
(552,383,o),
(520,383,cs),
(484,383,o),
(469,391,o),
(450,426,cs),
(423,477,o),
(402,534,o),
(355,700,c),
(114,700,l),
(115,583,o),
(117,467,o),
(117,350,cs),
(117,261,o),
(118,173,o),
(115,84,cs),
(112,-6,o),
(106,-41,o),
(30,-41,cs),
(10,-41,o),
(-16,-38,o),
(-46,-31,c),
(-46,-206,l),
(-17,-209,o),
(6,-211,o),
(25,-211,cs)
);
}
);
width = 717;
}
);
metricLeft = j;
unicode = 413;
},
{
color = 2;
glyphname = Nlongrightleg;
lastChange = "2024-01-05 15:25:33 +0000";
layers = (
{
anchors = (
{
name = bottom;
pos = (293,0);
},
{
name = top;
pos = (293,480);
}
);
layerId = "60D037D9-62E9-4843-B070-F1594CB0B0D1";
shapes = (
{
closed = 1;
nodes = (
(122,0,l),
(120,297,o),
(120,396,o),
(120,469,cs),
(120,591,o),
(188,679,o),
(314,679,cs),
(388,679,o),
(467,649,o),
(466,525,cs),
(465,402,o),
(465,126,o),
(462,-171,c),
(494,-171,l),
(493,126,o),
(492,409,o),
(491,550,cs),
(490,645,o),
(435,716,o),
(323,716,cs),
(222,716,o),
(173,657,o),
(152,628,cs),
(137,607,o),
(135,603,o),
(128,603,cs),
(121,603,o),
(121,610,o),
(121,650,cs),
(121,662,o),
(121,678,o),
(122,700,c),
(90,700,l),
(94,587,o),
(94,567,o),
(90,0,c)
);
}
);
width = 576;
},
{
anchors = (
{
name = bottom;
pos = (272,0);
},
{
name = top;
pos = (272,500);
}
);
layerId = m01;
shapes = (
{
closed = 1;
nodes = (
(109,0,l),
(107,194,o),
(105,225,o),
(105,265,cs),
(105,346,o),
(117,352,o),
(265,352,cs),
(413,352,o),
(425,346,o),
(425,265,cs),
(425,225,o),
(423,-12,o),
(421,-206,c),
(497,-206,l),
(494,56,o),
(493,386,o),
(493,547,cs),
(493,665,o),
(401,708,o),
(306,708,cs),
(219,708,o),
(175,668,o),
(150,639,cs),
(129,614,o),
(122,600,o),
(115,600,cs),
(105,600,o),
(105,612,o),
(105,631,cs),
(105,648,o),
(107,675,o),
(109,700,c),
(33,700,l),
(36,513,o),
(36,387,o),
(33,0,c)
);
}
);
width = 542;
}
);
unicode = 544;
},
{
color = 5;
glyphname = Eng;
kernLeft = KO_H;
kernRight = KO_N;
lastChange = "2024-01-23 15:53:48 +0000";
layers = (
{
layerId = "60D037D9-62E9-4843-B070-F1594CB0B0D1";
shapes = (
{
closed = 1;
nodes = (
(383,-132,o),
(412,-139,o),
(440,-139,cs),
(502,-139,o),
(562,-106,o),
(562,0,cs),
(562,86,o),
(559,210,o),
(559,350,cs),
(559,461,o),
(559,461,o),
(562,700,c),
(532,700,l),
(547,120,o),
(534,120,o),
(517,120,cs),
(498,120,o),
(498,120,o),
(233,700,c),
(90,700,l),
(93,461,o),
(93,461,o),
(93,350,cs),
(93,239,o),
(93,239,o),
(90,0,c),
(118,0,l),
(114,224,o),
(114,449,o),
(114,538,cs),
(114,624,o),
(115,646,o),
(129,656,cs),
(136,661,o),
(142,662,o),
(179,662,cs),
(221,662,o),
(225,654,o),
(397,283,cs),
(511,37,o),
(529,-8,o),
(529,-25,cs),
(529,-83,o),
(504,-106,o),
(452,-106,cs),
(417,-106,o),
(380,-91,o),
(360,-80,c),
(360,-122,l)
);
}
);
width = 652;
},
{
layerId = m01;
shapes = (
{
closed = 1;
nodes = (
(391,-211,o),
(418,-213,o),
(442,-213,cs),
(584,-213,o),
(605,-144,o),
(605,-20,cs),
(605,158,o),
(602,238,o),
(602,350,cs),
(602,440,o),
(604,610,o),
(607,700,c),
(519,700,l),
(529,601,o),
(578,383,o),
(466,383,cs),
(353,383,o),
(319,637,o),
(301,700,c),
(58,700,l),
(61,583,o),
(63,467,o),
(63,350,cs),
(63,233,o),
(61,117,o),
(58,0,c),
(146,0,l),
(141,102,o),
(139,177,o),
(139,229,cs),
(139,276,o),
(140,296,o),
(145,317,cs),
(151,342,o),
(168,349,o),
(223,349,cs),
(272,349,o),
(293,342,o),
(408,200,cs),
(488,102,o),
(514,53,o),
(514,0,cs),
(514,-36,o),
(472,-42,o),
(437,-42,cs),
(418,-42,o),
(393,-39,o),
(361,-32,c),
(361,-207,l)
);
}
);
width = 665;
}
);
metricLeft = N;
metricRight = N;
unicode = 330;
},
{
color = 4;
glyphname = O;
kernLeft = KO_O;
kernRight = KO_O;
lastChange = "2024-01-22 17:57:47 +0000";
layers = (
{
anchors = (
{
name = bottom;
pos = (347,0);
},
{
name = center;
pos = (347,350);
},
{
name = ogonek;
pos = (419,10);
},
{
name = top;
pos = (347,700);
},
{
name = topleft;
pos = (20,700);
},
{
name = topright;
pos = (423,704);
}
);
layerId = m01;
shapes = (
{
closed = 1;
nodes = (
(566,-10,o),
(652,95,o),
(652,350,cs),
(652,605,o),
(565,710,o),
(347,710,cs),
(129,710,o),
(42,605,o),
(42,350,cs),
(42,95,o),
(128,-10,o),
(347,-10,cs)
);
},
{
closed = 1;
nodes = (
(168,245,o),
(109,271,o),
(109,350,cs),
(109,429,o),
(168,455,o),
(347,455,cs),
(526,455,o),
(585,429,o),
(585,350,cs),
(585,271,o),
(526,245,o),
(347,245,cs)
);
}
);
width = 694;
},
{
anchors = (
{
name = bottom;
pos = (325,0);
},
{
name = center;
pos = (325,350);
},
{
name = ogonek;
pos = (377,10);
},
{
name = top;
pos = (325,700);
},
{
name = topleft;
pos = (5,700);
},
{
name = topright;
pos = (392,707);
}
);
layerId = "60D037D9-62E9-4843-B070-F1594CB0B0D1";
shapes = (
{
closed = 1;
nodes = (
(495,-16,o),
(596,103,o),
(596,350,cs),
(596,597,o),
(495,716,o),
(325,716,cs),
(155,716,o),
(54,597,o),
(54,350,cs),
(54,103,o),
(155,-16,o),
(325,-16,cs)
);
},
{
closed = 1;
nodes = (
(173,23,o),
(77,132,o),
(77,350,cs),
(77,568,o),
(173,677,o),
(325,677,cs),
(477,677,o),
(573,568,o),
(573,350,cs),
(573,132,o),
(477,23,o),
(325,23,cs)
);
}
);
width = 650;
}
);
unicode = 79;
userData = {
KernOnName = O;
};
},
{
color = 2;
glyphname = OU;
lastChange = "2024-01-05 18:29:38 +0000";
layers = (
{
layerId = "60D037D9-62E9-4843-B070-F1594CB0B0D1";
shapes = (
{
closed = 1;
nodes = (
(461,-16,o),
(559,71,o),
(559,223,cs),
(559,372,o),
(461,461,o),
(298,461,cs),
(135,461,o),
(37,370,o),
(37,223,cs),
(37,70,o),
(135,-16,o),
(298,-16,cs)
);
},
{
closed = 1;
nodes = (
(155,21,o),
(60,85,o),
(60,223,cs),
(60,353,o),
(155,425,o),
(298,425,cs),
(440,425,o),
(536,357,o),
(536,223,cs),
(536,89,o),
(427,21,o),
(298,21,cs)
);
},
{
closed = 1;
nodes = (
(523,425,o),
(545,488,o),
(546,700,c),
(512,700,l),
(514,661,o),
(516,598,o),
(512,560,cs),
(508,524,o),
(500,461,o),
(298,461,cs),
(96,461,o),
(88,524,o),
(84,560,cs),
(80,598,o),
(82,661,o),
(84,700,c),
(50,700,l),
(51,488,o),
(73,425,o),
(298,425,c)
);
}
);
width = 600;
},
{
layerId = m01;
shapes = (
{
closed = 1;
nodes = (
(487,-10,o),
(584,79,o),
(584,239,cs),
(584,426,o),
(481,507,o),
(313,507,cs),
(145,507,o),
(42,426,o),
(42,239,cs),
(42,79,o),
(139,-10,o),
(313,-10,cs)
);
},
{
closed = 1;
nodes = (
(175,245,o),
(131,262,o),
(131,313,cs),
(131,367,o),
(175,383,o),
(313,383,cs),
(450,383,o),
(495,367,o),
(495,313,cs),
(495,262,o),
(450,245,o),
(313,245,cs)
);
},
{
closed = 1;
nodes = (
(511,386,o),
(573,452,o),
(577,700,c),
(486,700,l),
(488,661,o),
(489,617,o),
(486,579,cs),
(483,543,o),
(474,539,o),
(312,539,cs),
(153,539,o),
(144,543,o),
(141,579,cs),
(138,617,o),
(140,661,o),
(142,700,c),
(52,700,l),
(53,448,o),
(108,386,o),
(312,386,cs)
);
}
);
width = 625;
}
);
unicode = 546;
},
{
color = 4;
glyphname = Ocenteredtilde;
lastChange = "2024-01-05 15:51:55 +0000";
layers = (
{
layerId = "60D037D9-62E9-4843-B070-F1594CB0B0D1";
shapes = (
{
ref = O;
},
{
closed = 1;
nodes = (
(216,335,o),
(463,335,o),
(608,333,c),
(608,364,l),
(463,362,o),
(216,362,o),
(71,364,c),
(71,333,l)
);
}
);
width = 680;
},
{
layerId = m01;
shapes = (
{
ref = O;
},
{
closed = 1;
nodes = (
(271,318,o),
(419,318,o),
(638,315,c),
(638,382,l),
(419,379,o),
(271,379,o),
(49,382,c),
(49,315,l)
);
}
);
width = 694;
}
);
unicode = 415;
},
{
color = 5;
glyphname = "Omega-latin";
lastChange = "2024-01-23 08:10:49 +0000";
layers = (
{
layerId = "60D037D9-62E9-4843-B070-F1594CB0B0D1";
shapes = (
{
closed = 1;
nodes = (
(309,-16,o),
(349,54,o),
(366,85,cs),
(391,132,o),
(401,191,o),
(409,197,c),
(417,191,o),
(427,132,o),
(452,85,cs),
(469,54,o),
(509,-16,o),
(592,-16,cs),
(716,-16,o),
(764,98,o),
(764,350,cs),
(764,577,o),
(653,700,o),
(488,700,c),
(488,660,l),
(645,670,o),
(741,549,o),
(741,335,cs),
(741,116,o),
(683,23,o),
(592,23,cs),
(488,23,o),
(422,170,o),
(422,352,cs),
(422,442,o),
(423,457,o),
(424,599,c),
(394,599,l),
(395,457,o),
(396,442,o),
(396,352,cs),
(396,170,o),
(330,23,o),
(226,23,cs),
(135,23,o),
(77,116,o),
(77,335,cs),
(77,549,o),
(173,670,o),
(330,660,c),
(330,700,l),
(165,700,o),
(54,577,o),
(54,350,cs),
(54,98,o),
(102,-16,o),
(226,-16,cs)
);
}
);
width = 818;
},
{
layerId = m01;
shapes = (
{
closed = 1;
nodes = (
(286,-10,o),
(328,25,o),
(345,64,cs),
(371,122,o),
(374,164,o),
(401,165,cs),
(428,164,o),
(431,122,o),
(457,64,cs),
(474,25,o),
(516,-10,o),
(571,-10,cs),
(689,-10,o),
(760,138,o),
(760,382,cs),
(760,580,o),
(655,700,o),
(498,700,c),
(498,455,l),
(635,465,o),
(687,427,o),
(687,344,cs),
(687,282,o),
(641,245,o),
(565,245,cs),
(512,245,o),
(447,249,o),
(440,339,cs),
(438,366,o),
(443,405,o),
(446,439,c),
(356,439,l),
(359,405,o),
(364,366,o),
(362,339,cs),
(355,249,o),
(290,245,o),
(237,245,cs),
(161,245,o),
(115,282,o),
(115,344,cs),
(115,427,o),
(167,465,o),
(304,455,c),
(304,700,l),
(147,700,o),
(42,580,o),
(42,382,cs),
(42,113,o),
(101,-10,o),
(231,-10,cs)
);
}
);
width = 802;
}
);
metricLeft = O;
metricRight = O;
unicode = 42934;
},
{
color = 2;
glyphname = OE;
lastChange = "2024-01-05 01:02:17 +0000";
layers = (
{
anchors = (
{
name = bottom;
pos = (764,0);
},
{
name = center;
pos = (133,350);
},
{
name = ogonek;
pos = (953,0);
},
{
name = top;
pos = (764,700);
},
{
name = topleft;
pos = (554,700);
},
{
name = topright;
pos = (303,630);
}
);
layerId = "60D037D9-62E9-4843-B070-F1594CB0B0D1";
shapes = (
{
closed = 1;
nodes = (
(486,-8,o),
(577,111,o),
(577,350,cs),
(577,589,o),
(486,708,o),
(328,708,cs),
(170,708,o),
(80,589,o),
(80,350,cs),
(80,111,o),
(170,-8,o),
(328,-8,cs)
);
},
{
closed = 1;
nodes = (
(188,31,o),
(100,140,o),
(100,350,cs),
(100,560,o),
(188,669,o),
(328,669,cs),
(469,669,o),
(557,560,o),
(557,350,cs),
(557,140,o),
(469,31,o),
(328,31,cs)
);
},
{
closed = 1;
nodes = (
(898,0,l),
(898,36,l),
(882,36,o),
(835,36,o),
(747,36,cs),
(609,36,o),
(600,36,o),
(592,42,cs),
(582,50,o),
(580,65,o),
(580,195,cs),
(580,325,o),
(582,340,o),
(592,348,cs),
(600,354,o),
(609,354,o),
(747,354,cs),
(833,354,o),
(877,354,o),
(893,353,c),
(893,386,l),
(877,385,o),
(833,384,o),
(747,384,cs),
(609,384,o),
(600,384,o),
(592,390,cs),
(582,398,o),
(580,413,o),
(580,524,cs),
(580,635,o),
(582,650,o),
(592,658,cs),
(600,664,o),
(609,664,o),
(747,664,cs),
(835,664,o),
(882,664,o),
(898,664,c),
(898,700,l),
(557,700,l),
(559,466,o),
(559,234,o),
(557,0,c)
);
}
);
width = 970;
},
{
anchors = (
{
name = bottom;
pos = (324,0);
},
{
name = center;
pos = (324,350);
},
{
name = ogonek;
pos = (396,10);
},
{
name = top;
pos = (324,700);
},
{
name = topleft;
pos = (-3,700);
},
{
name = topright;
pos = (523,621);
}
);
background = {
shapes = (
{
pos = (54,0);
ref = AE;
}
);
};
layerId = m01;
shapes = (
{
closed = 1;
nodes = (
(549,-10,o),
(629,95,o),
(629,350,cs),
(629,605,o),
(548,710,o),
(344,710,cs),
(141,710,o),
(60,605,o),
(60,350,cs),
(60,95,o),
(140,-10,o),
(344,-10,cs)
);
},
{
closed = 1;
nodes = (
(177,245,o),
(122,271,o),
(122,350,cs),
(122,429,o),
(177,455,o),
(344,455,cs),
(511,455,o),
(566,429,o),
(566,350,cs),
(566,271,o),
(511,245,o),
(344,245,cs)
);
},
{
closed = 1;
nodes = (
(991,0,l),
(991,250,l),
(986,249,o),
(936,248,o),
(837,248,cs),
(695,248,o),
(659,248,o),
(640,263,cs),
(633,269,o),
(628,273,o),
(628,287,cs),
(628,300,o),
(633,306,o),
(640,312,cs),
(659,327,o),
(736,325,o),
(837,325,cs),
(890,325,o),
(964,323,o),
(975,322,c),
(975,396,l),
(964,395,o),
(890,392,o),
(837,392,cs),
(736,392,o),
(650,392,o),
(636,404,cs),
(630,409,o),
(628,415,o),
(628,423,cs),
(628,431,o),
(630,437,o),
(636,442,cs),
(650,454,o),
(695,455,o),
(837,455,cs),
(936,455,o),
(984,453,o),
(990,452,c),
(991,700,l),
(565,700,l),
(569,451,o),
(569,249,o),
(565,0,c)
);
}
);
width = 1066;
}
);
unicode = 338;
},
{
color = 4;
glyphname = P;
kernLeft = KO_H;
kernRight = KO_P;
lastChange = "2024-01-23 08:34:36 +0000";
layers = (
{
anchors = (
{
name = bottom;
pos = (319,0);
},
{
name = center;
pos = (318,381);
},
{
name = hook;
pos = (69,700);
},
{
name = stroke;
pos = (93,381);
},
{
name = top;
pos = (319,700);
}
);
background = {
shapes = (
{
pos = (-1,-12);
ref = R.ss10;
}
);
};
layerId = m01;
shapes = (
{
closed = 1;
nodes = (
(140,0,l),
(135,61,o),
(133,104,o),
(133,135,cs),
(133,178,o),
(138,199,o),
(148,212,cs),
(165,235,o),
(186,245,o),
(337,245,cs),
(534,245,o),
(625,311,o),
(625,472,cs),
(625,620,o),
(541,700,o),
(408,700,cs),
(58,700,l),
(61,381,o),
(61,381,o),
(61,350,cs),
(61,319,o),
(61,319,o),
(58,0,c)
);
},
{
closed = 1;
nodes = (
(242,307,o),
(192,315,o),
(167,325,cs),
(140,336,o),
(131,357,o),
(131,381,cs),
(131,405,o),
(140,426,o),
(167,437,cs),
(192,447,o),
(242,455,o),
(318,455,cs),
(403,455,o),
(453,447,o),
(478,437,cs),
(505,426,o),
(515,405,o),
(515,381,cs),
(515,357,o),
(505,336,o),
(478,325,cs),
(453,315,o),
(403,307,o),
(318,307,cs)
);
}
);
width = 672;
},
{
anchors = (
{
name = bottom;
pos = (319,0);
},
{
name = center;
pos = (324,480);
},
{
name = hook;
pos = (96,700);
},
{
name = stroke;
pos = (107,477);
},
{
name = top;
pos = (286,700);
}
);
background = {
shapes = (
{
pos = (10,0);
ref = R;
}
);
};
layerId = "60D037D9-62E9-4843-B070-F1594CB0B0D1";
shapes = (
{
closed = 1;
nodes = (
(126,0,l),
(123,109,o),
(123,109,o),
(123,157,cs),
(123,204,o),
(124,233,o),
(130,244,cs),
(139,260,o),
(166,260,o),
(310,260,cs),
(461,260,o),
(540,369,o),
(540,477,cs),
(540,610,o),
(461,700,o),
(310,700,cs),
(96,700,l),
(99,461,o),
(99,461,o),
(99,350,cs),
(99,239,o),
(99,239,o),
(96,0,c)
);
},
{
closed = 1;
nodes = (
(169,293,o),
(137,296,o),
(129,307,cs),
(123,315,o),
(122,337,o),
(122,477,cs),
(122,614,o),
(123,636,o),
(129,646,cs),
(137,660,o),
(148,661,o),
(306,661,cs),
(397,661,o),
(447,633,o),
(480,592,cs),
(505,561,o),
(518,522,o),
(518,477,cs),
(518,432,o),
(505,393,o),
(480,362,cs),
(449,324,o),
(405,293,o),
(306,293,cs)
);
}
);
width = 588;
}
);
metricLeft = H;
unicode = 80;
userData = {
KernOnName = P;
};
},
{
color = 9;
glyphname = Thorn;
kernLeft = KO_H;
kernRight = KO_Thorn;
lastChange = "2024-01-23 15:53:48 +0000";
layers = (
{
layerId = "60D037D9-62E9-4843-B070-F1594CB0B0D1";
shapes = (
{
closed = 1;
nodes = (
(126,0,l),
(124,98,o),
(120,108,o),
(130,124,cs),
(139,138,o),
(187,135,o),
(314,135,cs),
(465,135,o),
(544,244,o),
(544,352,cs),
(544,485,o),
(486,574,o),
(314,574,cs),
(312,574,ls),
(185,574,o),
(137,571,o),
(128,585,cs),
(118,601,o),
(123,639,o),
(124,700,c),
(96,700,l),
(100,495,o),
(105,364,o),
(98,0,c)
);
},
{
closed = 1;
nodes = (
(122,489,o),
(123,511,o),
(129,521,cs),
(137,535,o),
(148,536,o),
(310,536,cs),
(401,536,o),
(451,508,o),
(484,467,cs),
(509,436,o),
(522,397,o),
(522,352,cs),
(522,307,o),
(509,268,o),
(484,237,cs),
(453,199,o),
(409,168,o),
(310,168,cs),
(169,168,o),
(137,171,o),
(129,182,cs),
(123,190,o),
(122,212,o),
(122,352,cs)
);
}
);
width = 592;
},
{
layerId = m01;
shapes = (
{
closed = 1;
nodes = (
(143,0,l),
(139,54,o),
(141,82,o),
(151,95,cs),
(167,115,o),
(189,125,o),
(379,128,cs),
(537,130,o),
(628,198,o),
(628,355,cs),
(628,503,o),
(547,582,o),
(411,582,cs),
(311,582,ls),
(189,582,o),
(165,589,o),
(149,609,cs),
(139,622,o),
(137,646,o),
(141,700,c),
(58,700,l),
(65,320,o),
(66,447,o),
(60,0,c)
);
},
{
closed = 1;
nodes = (
(134,286,o),
(143,310,o),
(170,322,cs),
(195,332,o),
(245,338,o),
(321,338,cs),
(406,338,o),
(456,332,o),
(481,322,cs),
(508,310,o),
(518,286,o),
(518,264,cs),
(518,244,o),
(508,219,o),
(481,208,cs),
(456,198,o),
(406,190,o),
(321,190,cs),
(245,190,o),
(195,197,o),
(170,208,cs),
(143,218,o),
(134,240,o),
(134,264,cs)
);
}
);
width = 675;
}
);
metricLeft = P;
metricRight = P;
unicode = 222;
},
{
color = 4;
glyphname = Q;
kernLeft = KO_O;
kernRight = KO_Q;
lastChange = "2024-01-23 08:10:28 +0000";
layers = (
{
anchors = (
{
name = bottom;
pos = (300,0);
},
{
name = top;
pos = (300,700);
}
);
background = {
shapes = (
{
ref = O;
}
);
};
layerId = m01;
shapes = (
{
closed = 1;
nodes = (
(621,-16,l),
(611,-21,o),
(549,-50,o),
(496,-50,cs),
(429,-50,o),
(395,-34,o),
(386,-9,c),
(568,6,o),
(652,95,o),
(652,350,cs),
(652,605,o),
(565,710,o),
(347,710,cs),
(129,710,o),
(42,605,o),
(42,350,cs),
(42,95,o),
(128,5,o),
(308,-9,c),
(312,-51,o),
(317,-98,o),
(346,-144,cs),
(382,-201,o),
(452,-233,o),
(517,-233,cs),
(556,-233,o),
(607,-221,o),
(621,-214,c)
);
},
{
closed = 1;
nodes = (
(170,245,o),
(110,271,o),
(110,350,cs),
(110,429,o),
(170,455,o),
(347,455,cs),
(524,455,o),
(584,429,o),
(584,350,cs),
(584,271,o),
(524,245,o),
(347,245,cs)
);
}
);
width = 694;
},
{
anchors = (
{
name = bottom;
pos = (297,0);
},
{
name = top;
pos = (297,700);
}
);
background = {
shapes = (
{
pos = (-17,0);
ref = O;
}
);
};
layerId = "60D037D9-62E9-4843-B070-F1594CB0B0D1";
shapes = (
{
closed = 1;
nodes = (
(553,-110,l),
(529,-120,o),
(496,-127,o),
(471,-127,cs),
(382,-127,o),
(331,-71,o),
(331,-8,c),
(492,-2,o),
(590,111,o),
(590,350,cs),
(590,589,o),
(492,708,o),
(322,708,cs),
(152,708,o),
(54,589,o),
(54,350,cs),
(54,111,o),
(152,-2,o),
(313,-8,c),
(313,-28,o),
(314,-54,o),
(328,-85,cs),
(351,-135,o),
(403,-163,o),
(478,-163,cs),
(498,-163,o),
(520,-162,o),
(553,-154,c)
);
},
{
closed = 1;
nodes = (
(170,31,o),
(76,140,o),
(76,350,cs),
(76,560,o),
(170,669,o),
(322,669,cs),
(474,669,o),
(568,560,o),
(568,350,cs),
(568,140,o),
(474,31,o),
(322,31,cs)
);
}
);
width = 644;
}
);
metricLeft = O;
metricRight = O;
unicode = 81;
},
{
color = 0;
glyphname = Qhooktail;
lastChange = "2024-01-23 08:10:49 +0000";
layers = (
{
layerId = "60D037D9-62E9-4843-B070-F1594CB0B0D1";
shapes = (
{
closed = 1;
nodes = (
(565,700,l),
(568,662,o),
(569,640,o),
(569,603,cs),
(569,571,o),
(568,562,o),
(558,562,cs),
(549,562,o),
(543,570,o),
(519,608,cs),
(483,665,o),
(421,716,o),
(326,716,cs),
(172,716,o),
(54,637,o),
(54,350,cs),
(54,63,o),
(172,-16,o),
(326,-16,cs),
(421,-16,o),
(483,35,o),
(519,92,cs),
(543,130,o),
(549,138,o),
(558,138,cs),
(567,138,o),
(567,125,o),
(567,-16,cs),
(567,-169,o),
(613,-188,o),
(692,-188,cs),
(719,-188,o),
(740,-186,o),
(776,-177,c),
(776,-136,l),
(746,-147,o),
(717,-152,o),
(686,-152,cs),
(661,-152,o),
(623,-144,o),
(609,-117,cs),
(592,-85,o),
(588,-64,o),
(588,350,cs),
(588,454,o),
(591,633,o),
(595,700,c)
);
},
{
closed = 1;
nodes = (
(252,23,o),
(187,37,o),
(142,98,cs),
(104,149,o),
(77,237,o),
(77,350,cs),
(77,463,o),
(104,551,o),
(142,602,cs),
(187,663,o),
(252,677,o),
(326,677,cs),
(406,677,o),
(459,644,o),
(508,581,cs),
(545,533,o),
(564,463,o),
(564,350,cs),
(564,237,o),
(545,167,o),
(508,119,cs),
(459,56,o),
(406,23,o),
(326,23,cs)
);
}
);
width = 665;
},
{
layerId = m01;
shapes = (
{
closed = 1;
nodes = (
(565,700,l),
(568,662,o),
(569,631,o),
(569,610,cs),
(569,580,o),
(567,573,o),
(557,573,cs),
(548,573,o),
(536,589,o),
(516,619,cs),
(492,655,o),
(439,710,o),
(320,710,cs),
(124,710,o),
(42,594,o),
(42,350,cs),
(42,106,o),
(124,-10,o),
(320,-10,cs),
(439,-10,o),
(492,45,o),
(516,81,cs),
(536,111,o),
(548,127,o),
(557,127,cs),
(570,127,o),
(570,120,o),
(570,31,cs),
(570,-144,o),
(610,-188,o),
(713,-188,cs),
(739,-188,o),
(769,-185,o),
(801,-181,c),
(801,-6,l),
(768,-12,o),
(745,-16,o),
(724,-16,cs),
(691,-16,o),
(674,-12,o),
(660,7,cs),
(640,34,o),
(639,54,o),
(639,350,cs),
(639,532,o),
(639,532,o),
(643,700,c)
);
},
{
closed = 1;
nodes = (
(264,245,o),
(212,250,o),
(176,262,cs),
(129,278,o),
(109,305,o),
(109,350,cs),
(109,395,o),
(129,422,o),
(176,438,cs),
(212,450,o),
(264,455,o),
(342,455,cs),
(414,455,o),
(472,450,o),
(507,438,cs),
(555,422,o),
(575,395,o),
(575,350,cs),
(575,305,o),
(555,278,o),
(507,262,cs),
(472,250,o),
(414,245,o),
(342,245,cs)
);
}
);
width = 701;
}
);
metricLeft = O;
unicode = 586;
},
{
color = 4;
glyphname = R;
kernLeft = KO_H;
kernRight = KO_R;
lastChange = "2024-01-23 08:35:10 +0000";
layers = (
{
anchors = (
{
name = bottom;
pos = (328,0);
},
{
name = stroke;
pos = (116,315);
},
{
name = top;
pos = (304,700);
}
);
background = {
shapes = (
{
pos = (13,0);
ref = B;
}
);
};
layerId = "60D037D9-62E9-4843-B070-F1594CB0B0D1";
shapes = (
{
closed = 1;
nodes = (
(126,0,l),
(123,82,o),
(122,186,o),
(122,228,cs),
(122,275,o),
(123,284,o),
(129,289,cs),
(138,296,o),
(169,299,o),
(362,299,c),
(433,50,o),
(459,30,o),
(481,13,cs),
(498,0,o),
(520,-6,o),
(537,-6,cs),
(540,-6,o),
(544,-6,o),
(548,-5,c),
(548,42,l),
(542,40,o),
(536,39,o),
(529,39,cs),
(518,39,o),
(506,42,o),
(494,51,cs),
(465,71,o),
(433,135,o),
(386,301,c),
(477,318,o),
(542,381,o),
(542,501,cs),
(542,626,o),
(455,700,o),
(343,700,cs),
(96,700,l),
(99,461,o),
(99,461,o),
(99,350,cs),
(99,239,o),
(99,239,o),
(96,0,c)
);
},
{
closed = 1;
nodes = (
(153,330,o),
(141,331,o),
(132,338,cs),
(123,345,o),
(120,357,o),
(120,496,cs),
(120,635,o),
(123,647,o),
(132,654,cs),
(141,661,o),
(153,662,o),
(249,662,cs),
(351,662,o),
(377,661,o),
(405,654,cs),
(451,642,o),
(520,604,o),
(520,496,cs),
(520,388,o),
(447,350,o),
(401,338,cs),
(373,331,o),
(337,330,o),
(249,330,cs)
);
}
);
width = 596;
},
{
anchors = (
{
name = bottom;
pos = (333,0);
},
{
name = stroke;
pos = (108,303);
},
{
name = top;
pos = (333,700);
}
);
background = {
shapes = (
{
ref = K;
}
);
};
layerId = m01;
shapes = (
{
closed = 1;
nodes = (
(141,0,l),
(138,36,o),
(134,118,o),
(134,152,cs),
(134,196,o),
(138,225,o),
(154,244,cs),
(170,263,o),
(196,268,o),
(234,268,c),
(234,194,o),
(254,138,o),
(288,89,cs),
(334,22,o),
(422,-8,o),
(492,-8,cs),
(565,-8,o),
(609,2,o),
(635,13,c),
(635,272,l),
(623,263,o),
(590,244,o),
(542,230,cs),
(511,221,o),
(474,215,o),
(433,215,cs),
(371,215,o),
(318,242,o),
(309,269,c),
(514,269,o),
(625,316,o),
(625,472,cs),
(625,640,o),
(541,700,o),
(408,700,cs),
(58,700,l),
(61,461,o),
(61,461,o),
(61,350,cs),
(61,239,o),
(61,239,o),
(58,0,c)
);
},
{
closed = 1;
nodes = (
(242,331,o),
(192,337,o),
(167,345,cs),
(140,354,o),
(131,374,o),
(131,394,cs),
(131,414,o),
(140,434,o),
(167,443,cs),
(192,451,o),
(242,457,o),
(318,457,cs),
(403,457,o),
(454,451,o),
(479,443,cs),
(506,434,o),
(515,414,o),
(515,394,cs),
(515,374,o),
(506,354,o),
(479,345,cs),
(454,337,o),
(403,331,o),
(318,331,cs)
);
}
);
width = 671;
}
);
metricLeft = H;
unicode = 82;
userData = {
KernOnName = R;
};
},
{
color = 4;
glyphname = Rtail;
kernRight = KO_R;
lastChange = "2024-01-23 15:53:48 +0000";
layers = (
{
layerId = "60D037D9-62E9-4843-B070-F1594CB0B0D1";
shapes = (
{
closed = 1;
nodes = (
(295,-78,l),
(267,-94,o),
(202,-114,o),
(163,-88,cs),
(139,-72,o),
(129,-54,o),
(127,0,c),
(96,0,l),
(94,-143,o),
(192,-153,o),
(295,-118,c)
);
},
{
pos = (14,0);
ref = R;
}
);
width = 610;
},
{
layerId = m01;
shapes = (
{
closed = 1;
nodes = (
(296,-31,l),
(219,-47,o),
(184,-42,o),
(160,-24,cs),
(131,-2,o),
(136,51,o),
(133,145,c),
(63,145,l),
(58,-133,o),
(17,-243,o),
(296,-206,c)
);
},
{
pos = (1,0);
ref = R;
}
);
width = 673;
}
);
metricLeft = R;
metricRight = R;
unicode = 11364;
},
{
color = 4;
glyphname = S;
kernLeft = KO_S;
kernRight = KO_S;
lastChange = "2024-01-23 10:11:09 +0000";
layers = (
{
anchors = (
{
name = bottom;
pos = (311,0);
},
{
name = center;
pos = (326,350);
},
{
name = top;
pos = (311,700);
}
);
background = {
shapes = (
{
closed = 1;
nodes = (
(446,-10,o),
(558,54,o),
(558,185,cs),
(558,300,o),
(481,341,o),
(344,381,cs),
(276,401,o),
(235,406,o),
(235,433,cs),
(235,447,o),
(251,457,o),
(307,457,cs),
(362,457,o),
(426,453,o),
(524,427,c),
(524,687,l),
(488,696,o),
(402,710,o),
(327,710,cs),
(164,710,o),
(66,663,o),
(66,532,cs),
(66,424,o),
(149,383,o),
(257,351,cs),
(346,325,o),
(416,312,o),
(416,273,cs),
(416,253,o),
(387,241,o),
(299,241,cs),
(251,241,o),
(129,253,o),
(65,276,c),
(65,13,l),
(101,4,o),
(187,-10,o),
(262,-10,cs)
);
}
);
};
backgroundImage = {
imagePath = "../../../Downloads/IMG_7408.JPG";
locked = 1;
pos = (-859,-1771);
scale = (0.7854,0.7854);
};
layerId = m01;
shapes = (
{
closed = 1;
nodes = (
(101,4,o),
(187,-10,o),
(262,-10,cs),
(446,-10,o),
(558,54,o),
(558,185,cs),
(558,300,o),
(481,351,o),
(344,381,cs),
(276,396,o),
(235,406,o),
(235,433,cs),
(235,447,o),
(251,457,o),
(307,457,cs),
(362,457,o),
(426,453,o),
(524,427,c),
(524,687,l),
(488,696,o),
(402,710,o),
(327,710,cs),
(159,710,o),
(67,653,o),
(67,525,cs),
(67,404,o),
(180,367,o),
(270,347,cs),
(359,327,o),
(416,312,o),
(416,273,cs),
(416,256,o),
(394,241,o),
(331,241,cs),
(237,241,o),
(132,253,o),
(65,276,c),
(65,13,l)
);
}
);
width = 566;
},
{
anchors = (
{
name = bottom;
pos = (258,0);
},
{
name = center;
pos = (264,351);
},
{
name = top;
pos = (258,700);
}
);
background = {
shapes = (
{
pos = (567,0);
ref = C;
scale = (-1,1);
}
);
};
layerId = "60D037D9-62E9-4843-B070-F1594CB0B0D1";
shapes = (
{
closed = 1;
nodes = (
(106,-6,o),
(162,-16,o),
(215,-16,cs),
(362,-16,o),
(454,60,o),
(454,178,cs),
(454,267,o),
(394,329,o),
(265,385,cs),
(136,441,o),
(90,486,o),
(90,549,cs),
(90,628,o),
(157,678,o),
(264,678,cs),
(320,678,o),
(378,665,o),
(418,644,c),
(418,690,l),
(374,706,o),
(321,716,o),
(271,716,cs),
(145,716,o),
(65,652,o),
(65,551,cs),
(65,469,o),
(119,417,o),
(256,358,cs),
(376,306,o),
(427,253,o),
(427,177,cs),
(427,82,o),
(351,23,o),
(230,23,cs),
(169,23,o),
(102,38,o),
(60,59,c),
(60,13,l)
);
}
);
width = 506;
}
);
unicode = 83;
userData = {
KernOnName = S;
};
},
{
color = 5;
glyphname = Saltillo;
lastChange = "2024-01-11 19:19:54 +0000";
layers = (
{
layerId = "60D037D9-62E9-4843-B070-F1594CB0B0D1";
shapes = (
{
closed = 1;
nodes = (
(175,204,l),
(181,313,l),
(181,700,l),
(150,700,l),
(150,313,l),
(156,204,l)
);
}
);
width = 331;
},
{
layerId = m01;
shapes = (
{
closed = 1;
nodes = (
(188,196,l),
(201,336,l),
(201,700,l),
(120,700,l),
(120,336,l),
(133,196,l)
);
}
);
width = 321;
}
);
unicode = 42891;
},
{
color = 3;
glyphname = Germandbls;
lastChange = "2024-01-23 15:53:48 +0000";
layers = (
{
background = {
shapes = (
{
pos = (-41,0);
ref = three;
}
);
};
layerId = "60D037D9-62E9-4843-B070-F1594CB0B0D1";
shapes = (
{
closed = 1;
nodes = (
(338,2,o),
(441,52,o),
(441,178,cs),
(441,237,o),
(420,274,o),
(396,299,cs),
(332,365,o),
(256,363,o),
(219,367,c),
(345,427,o),
(404,479,o),
(409,663,cs),
(410,700,l),
(338,712,o),
(70,761,o),
(42,536,cs),
(35,476,o),
(34,435,o),
(34,395,cs),
(30,0,l),
(60,0,l),
(54,177,o),
(52,302,o),
(55,393,cs),
(60,510,o),
(74,571,o),
(105,611,cs),
(166,690,o),
(323,679,o),
(384,664,c),
(377,491,o),
(321,440,o),
(166,373,c),
(166,343,l),
(228,346,o),
(270,341,o),
(309,328,cs),
(327,322,o),
(415,284,o),
(415,184,cs),
(415,83,o),
(335,46,o),
(278,36,cs),
(220,26,o),
(154,38,o),
(98,60,c),
(98,13,l),
(176,-9,o),
(234,-7,o),
(268,-4,cs)
);
}
);
width = 489;
},
{
background = {
shapes = (
{
pos = (8,0);
ref = three;
}
);
};
layerId = m01;
shapes = (
{
closed = 1;
nodes = (
(457,-7,o),
(550,48,o),
(550,169,cs),
(550,232,o),
(531,262,o),
(510,291,cs),
(489,319,o),
(440,352,o),
(410,363,c),
(434,381,o),
(502,420,o),
(520,468,c),
(520,700,l),
(401,712,o),
(114,764,o),
(54,535,cs),
(39,479,o),
(34,420,o),
(34,395,cs),
(30,0,l),
(109,0,l),
(108,144,o),
(104,233,o),
(106,293,cs),
(108,362,o),
(117,392,o),
(145,419,cs),
(204,475,o),
(377,466,o),
(431,453,c),
(393,394,o),
(327,380,o),
(210,386,c),
(210,326,l),
(272,329,o),
(319,330,o),
(358,325,cs),
(373,323,o),
(408,316,o),
(408,286,cs),
(408,256,o),
(373,247,o),
(358,245,cs),
(311,239,o),
(229,244,o),
(147,270,c),
(147,14,l),
(225,-4,o),
(301,-7,o),
(335,-7,cs)
);
}
);
width = 574;
}
);
metricLeft = f;
metricRight = s;
unicode = 7838;
},
{
color = 4;
glyphname = T;
kernLeft = KO_T;
kernRight = KO_T;
lastChange = "2024-01-23 08:38:20 +0000";
layers = (
{
anchors = (
{
name = bottom;
pos = (286,0);
},
{
name = center;
pos = (286,294);
},
{
name = hook;
pos = (12,699);
},
{
name = top;
pos = (286,700);
}
);
background = {
shapes = (
{
closed = 1;
nodes = (
(329,0,l),
(325,120,o),
(324,281,o),
(324,394,cs),
(324,426,o),
(324,441,o),
(351,447,cs),
(368,451,o),
(401,453,o),
(482,450,cs),
(560,447,l),
(560,699,l),
(12,699,l),
(12,447,l),
(90,450,ls),
(171,453,o),
(204,451,o),
(221,447,cs),
(248,441,o),
(248,426,o),
(248,394,cs),
(248,281,o),
(247,120,o),
(243,0,c)
);
}
);
};
layerId = m01;
shapes = (
{
closed = 1;
nodes = (
(329,0,l),
(325,120,o),
(324,281,o),
(324,394,cs),
(324,426,o),
(324,440,o),
(351,447,cs),
(362,450,o),
(381,451,o),
(416,451,cs),
(434,451,o),
(455,451,o),
(560,447,c),
(560,699,l),
(12,699,l),
(12,447,l),
(117,451,o),
(138,451,o),
(156,451,cs),
(191,451,o),
(210,450,o),
(221,447,cs),
(248,440,o),
(248,426,o),
(248,394,cs),
(248,281,o),
(247,120,o),
(243,0,c)
);
}
);
width = 572;
},
{
anchors = (
{
name = bottom;
pos = (252,0);
},
{
name = center;
pos = (252,350);
},
{
name = hook;
pos = (12,700);
},
{
name = top;
pos = (252,700);
}
);
background = {
shapes = (
{
closed = 1;
nodes = (
(268,0,l),
(265,294,o),
(263,542,o),
(263,604,cs),
(263,636,o),
(265,651,o),
(275,659,cs),
(283,665,o),
(292,667,o),
(423,665,cs),
(491,664,l),
(491,700,l),
(12,700,l),
(12,664,l),
(80,665,ls),
(211,667,o),
(220,665,o),
(228,659,cs),
(238,651,o),
(240,636,o),
(240,604,cs),
(240,542,o),
(239,294,o),
(236,0,c)
);
}
);
};
layerId = "60D037D9-62E9-4843-B070-F1594CB0B0D1";
shapes = (
{
closed = 1;
nodes = (
(268,0,l),
(265,294,o),
(263,542,o),
(263,604,cs),
(263,636,o),
(265,651,o),
(275,659,cs),
(281,664,o),
(287,666,o),
(345,666,cs),
(364,666,o),
(429,666,o),
(491,664,c),
(491,700,l),
(12,700,l),
(12,664,l),
(74,666,o),
(139,666,o),
(158,666,cs),
(216,666,o),
(222,664,o),
(228,659,cs),
(238,651,o),
(240,636,o),
(240,604,cs),
(240,542,o),
(239,294,o),
(236,0,c)
);
}
);
width = 503;
}
);
unicode = 84;
userData = {
KernOnName = T;
};
},
{
color = 4;
glyphname = Tcedilla;
kernLeft = KO_T;
kernRight = KO_T;
lastChange = "2024-01-19 18:18:29 +0000";
layers = (
{
anchors = (
{
name = bottom;
pos = (262,-183);
}
);
layerId = "60D037D9-62E9-4843-B070-F1594CB0B0D1";
shapes = (
{
ref = T;
},
{
closed = 1;
nodes = (
(312,-182,o),
(351,-150,o),
(351,-107,cs),
(351,-69,o),
(323,-46,o),
(277,-46,cs),
(252,-46,o),
(246,-45,o),
(246,-41,cs),
(246,-35,o),
(248,-24,o),
(263,0,c),
(231,0,l),
(218,-29,o),
(212,-46,o),
(212,-56,cs),
(212,-68,o),
(222,-70,o),
(244,-70,cs),
(305,-70,o),
(325,-82,o),
(325,-108,cs),
(325,-121,o),
(314,-140,o),
(267,-140,cs),
(250,-140,o),
(229,-138,o),
(202,-132,c),
(202,-174,l),
(224,-180,o),
(244,-182,o),
(260,-182,cs)
);
}
);
width = 493;
},
{
anchors = (
{
name = bottom;
pos = (350,-212);
}
);
layerId = m01;
shapes = (
{
ref = T;
},
{
closed = 1;
nodes = (
(385,-212,o),
(431,-171,o),
(431,-109,cs),
(431,-63,o),
(401,-30,o),
(346,-30,cs),
(308,-30,o),
(304,-28,o),
(304,-24,cs),
(304,-21,o),
(308,-16,o),
(329,0,c),
(243,0,l),
(234,-12,o),
(229,-24,o),
(229,-34,cs),
(229,-54,o),
(247,-66,o),
(275,-66,cs),
(338,-66,o),
(353,-70,o),
(353,-88,cs),
(353,-105,o),
(332,-115,o),
(296,-115,cs),
(282,-115,o),
(265,-114,o),
(250,-111,c),
(250,-205,l),
(272,-210,o),
(294,-212,o),
(313,-212,cs)
);
}
);
width = 572;
}
);
unicode = 354;
},
{
color = 5;
glyphname = Thook;
lastChange = "2024-01-23 15:53:48 +0000";
layers = (
{
layerId = "60D037D9-62E9-4843-B070-F1594CB0B0D1";
shapes = (
{
closed = 1;
nodes = (
(269,0,l),
(266,294,o),
(264,542,o),
(264,604,cs),
(264,636,o),
(266,651,o),
(276,659,cs),
(282,664,o),
(288,666,o),
(346,666,cs),
(365,666,o),
(430,666,o),
(492,664,c),
(492,700,l),
(121,700,ls),
(56,700,o),
(12,679,o),
(12,611,cs),
(12,586,o),
(12,556,o),
(13,522,c),
(45,522,l),
(44,552,o),
(44,578,o),
(44,604,cs),
(44,619,o),
(46,641,o),
(60,652,cs),
(71,660,o),
(82,666,o),
(121,666,cs),
(217,666,o),
(223,664,o),
(229,659,cs),
(239,651,o),
(241,636,o),
(241,604,cs),
(241,542,o),
(240,294,o),
(237,0,c)
);
}
);
width = 504;
},
{
layerId = m01;
shapes = (
{
closed = 1;
nodes = (
(375,0,l),
(371,120,o),
(370,281,o),
(370,394,cs),
(370,426,o),
(370,440,o),
(397,447,cs),
(408,450,o),
(427,451,o),
(462,451,cs),
(480,451,o),
(501,451,o),
(606,447,c),
(606,699,l),
(217,699,ls),
(78,699,o),
(12,645,o),
(12,512,cs),
(12,467,o),
(15,389,o),
(21,337,c),
(158,337,l),
(154,383,o),
(154,383,o),
(154,406,cs),
(154,425,o),
(159,437,o),
(171,444,cs),
(177,447,o),
(191,451,o),
(217,451,cs),
(245,451,o),
(260,451,o),
(271,447,cs),
(292,440,o),
(294,426,o),
(294,394,cs),
(294,281,o),
(293,120,o),
(289,0,c)
);
}
);
width = 618;
}
);
metricLeft = T;
metricRight = T;
unicode = 428;
},
{
color = 4;
glyphname = Tretroflexhook;
lastChange = "2024-01-18 18:03:52 +0000";
layers = (
{
layerId = "60D037D9-62E9-4843-B070-F1594CB0B0D1";
shapes = (
{
closed = 1;
nodes = (
(385,-144,o),
(412,-139,o),
(441,-128,c),
(441,-86,l),
(404,-105,o),
(376,-113,o),
(351,-113,cs),
(296,-113,o),
(263,-71,o),
(263,0,c),
(231,0,l),
(231,-91,o),
(278,-144,o),
(359,-144,cs)
);
},
{
ref = T;
}
);
width = 551;
},
{
layerId = m01;
shapes = (
{
closed = 1;
nodes = (
(423,-216,o),
(453,-214,o),
(480,-209,c),
(480,-41,l),
(460,-48,o),
(430,-52,o),
(405,-52,cs),
(354,-52,o),
(329,-35,o),
(329,0,c),
(243,0,l),
(243,-182,o),
(266,-216,o),
(390,-216,cs)
);
},
{
ref = T;
}
);
width = 620;
}
);
unicode = 430;
},
{
color = 4;
glyphname = U;
kernLeft = KO_U;
kernRight = KO_U;
lastChange = "2024-01-23 08:38:36 +0000";
layers = (
{
anchors = (
{
name = bottom;
pos = (313,0);
},
{
name = center;
pos = (313,346);
},
{
name = ogonek;
pos = (392,10);
},
{
name = top;
pos = (323,700);
},
{
name = topright;
pos = (496,700);
}
);
layerId = m01;
shapes = (
{
closed = 1;
nodes = (
(514,-10,o),
(578,59,o),
(578,302,cs),
(578,435,o),
(578,435,o),
(581,700,c),
(496,700,l),
(499,607,o),
(501,514,o),
(501,421,cs),
(501,334,o),
(488,326,o),
(311,326,cs),
(135,326,o),
(122,334,o),
(122,421,cs),
(122,514,o),
(124,607,o),
(127,700,c),
(42,700,l),
(45,440,o),
(45,440,o),
(45,310,cs),
(45,56,o),
(102,-10,o),
(311,-10,cs)
);
}
);
width = 623;
},
{
anchors = (
{
name = bottom;
pos = (292,0);
},
{
name = center;
pos = (292,345);
},
{
name = ogonek;
pos = (353,0);
},
{
name = top;
pos = (292,700);
},
{
name = topright;
pos = (487,700);
}
);
background = {
shapes = (
{
pos = (-7,0);
ref = H;
}
);
};
layerId = "60D037D9-62E9-4843-B070-F1594CB0B0D1";
shapes = (
{
closed = 1;
nodes = (
(479,-11,o),
(513,119,o),
(513,233,cs),
(513,273,o),
(514,516,o),
(518,700,c),
(487,700,l),
(490,538,o),
(490,376,o),
(490,214,cs),
(490,95,o),
(412,28,o),
(292,28,cs),
(172,28,o),
(94,95,o),
(94,214,cs),
(94,376,o),
(94,538,o),
(97,700,c),
(66,700,l),
(70,516,o),
(71,273,o),
(71,233,cs),
(71,115,o),
(107,-11,o),
(292,-11,cs)
);
}
);
width = 584;
}
);
unicode = 85;
userData = {
KernOnName = U;
};
},
{
color = 4;
glyphname = Ubar;
lastChange = "2024-01-23 15:53:48 +0000";
layers = (
{
layerId = "60D037D9-62E9-4843-B070-F1594CB0B0D1";
shapes = (
{
pos = (-8,0);
ref = U;
},
{
closed = 1;
nodes = (
(157,507,o),
(419,507,o),
(564,505,c),
(564,536,l),
(419,534,o),
(157,534,o),
(12,536,c),
(12,505,l)
);
}
);
width = 576;
},
{
layerId = m01;
shapes = (
{
pos = (35,0);
ref = U;
},
{
closed = 1;
nodes = (
(234,487,o),
(460,487,o),
(679,484,c),
(679,551,l),
(460,548,o),
(234,548,o),
(12,551,c),
(12,484,l)
);
}
);
width = 691;
}
);
metricLeft = T;
metricRight = T;
unicode = 580;
},
{
color = 1;
glyphname = "Upsilon-latin";
lastChange = "2024-01-23 08:10:49 +0000";
layers = (
{
layerId = "60D037D9-62E9-4843-B070-F1594CB0B0D1";
shapes = (
{
closed = 1;
nodes = (
(547,-16,o),
(664,117,o),
(664,322,cs),
(664,489,o),
(572,604,o),
(430,660,c),
(631,661,l),
(631,700,l),
(404,700,l),
(404,659,l),
(561,590,o),
(641,476,o),
(641,322,cs),
(641,158,o),
(528,23,o),
(359,23,cs),
(190,23,o),
(77,158,o),
(77,322,cs),
(77,476,o),
(157,590,o),
(314,659,c),
(314,700,l),
(87,700,l),
(87,661,l),
(288,660,l),
(146,604,o),
(54,489,o),
(54,322,cs),
(54,117,o),
(171,-16,o),
(359,-16,cs)
);
}
);
width = 718;
},
{
background = {
shapes = (
{
closed = 1;
nodes = (
(307,700,l),
(42,700,l),
(42,443,l),
(145,441,l),
(100,398,o),
(74,331,o),
(74,239,cs),
(74,80,o),
(180,-9,o),
(353,-10,cs),
(526,-9,o),
(632,80,o),
(632,239,cs),
(632,331,o),
(606,398,o),
(561,441,c),
(664,443,l),
(664,700,l),
(399,700,l),
(399,454,l),
(491,448,o),
(533,415,o),
(533,348,cs),
(533,277,o),
(476,245,o),
(353,245,cs),
(230,245,o),
(173,277,o),
(173,348,cs),
(173,415,o),
(215,448,o),
(307,454,c)
);
}
);
};
layerId = m01;
shapes = (
{
closed = 1;
nodes = (
(526,-9,o),
(632,80,o),
(632,239,cs),
(632,375,o),
(561,426,o),
(561,443,c),
(664,443,l),
(664,700,l),
(399,700,l),
(399,454,l),
(491,448,o),
(533,415,o),
(533,348,cs),
(533,277,o),
(476,245,o),
(353,245,cs),
(230,245,o),
(173,277,o),
(173,348,cs),
(173,415,o),
(215,448,o),
(307,454,c),
(307,700,l),
(42,700,l),
(42,443,l),
(145,443,l),
(145,426,o),
(74,375,o),
(74,239,cs),
(74,80,o),
(180,-9,o),
(353,-10,cs)
);
}
);
width = 706;
}
);
metricLeft = O;
metricRight = O;
unicode = 433;
},
{
color = 4;
glyphname = V;
kernLeft = KO_V;
kernRight = KO_V;
lastChange = "2024-01-23 08:38:42 +0000";
layers = (
{
anchors = (
{
name = bottom;
pos = (323,0);
},
{
name = top;
pos = (323,700);
}
);
layerId = m01;
shapes = (
{
closed = 1;
nodes = (
(524,0,l),
(550,224,o),
(577,452,o),
(616,700,c),
(523,700,l),
(519,623,o),
(508,423,o),
(493,356,cs),
(486,324,o),
(470,319,o),
(323,319,cs),
(176,319,o),
(160,324,o),
(153,356,cs),
(138,423,o),
(127,623,o),
(123,700,c),
(30,700,l),
(69,452,o),
(96,224,o),
(122,0,c)
);
}
);
width = 646;
},
{
anchors = (
{
name = bottom;
pos = (304,0);
},
{
name = top;
pos = (304,700);
}
);
layerId = "60D037D9-62E9-4843-B070-F1594CB0B0D1";
shapes = (
{
closed = 1;
nodes = (
(423,0,l),
(457,232,o),
(504,468,o),
(554,700,c),
(520,700,l),
(484,490,o),
(447,282,o),
(404,70,cs),
(398,39,o),
(390,37,o),
(304,37,cs),
(218,37,o),
(210,39,o),
(204,70,cs),
(161,282,o),
(124,490,o),
(88,700,c),
(54,700,l),
(104,468,o),
(151,232,o),
(185,0,c)
);
}
);
width = 608;
}
);
metricLeft = A;
metricRight = A;
unicode = 86;
userData = {
KernOnName = V;
};
},
{
color = 5;
glyphname = "Gamma-latin";
lastChange = "2024-01-23 15:53:48 +0000";
layers = (
{
guides = (
{
angle = 114.4327;
pos = (208,439);
},
{
angle = 65.5673;
pos = (382,439);
}
);
layerId = "60D037D9-62E9-4843-B070-F1594CB0B0D1";
shapes = (
{
closed = 1;
nodes = (
(357,-90,o),
(385,-56,o),
(385,14,cs),
(385,61,o),
(367,96,o),
(307,221,c),
(349,304,o),
(412,429,o),
(536,700,c),
(501,700,l),
(391,453,o),
(335,335,o),
(295,253,c),
(255,335,o),
(199,453,o),
(89,701,c),
(54,701,l),
(178,429,o),
(241,304,o),
(283,221,c),
(223,96,o),
(205,61,o),
(205,14,cs),
(205,-56,o),
(233,-90,o),
(295,-92,cs)
);
},
{
closed = 1;
nodes = (
(256,-51,o),
(231,-27,o),
(231,14,cs),
(231,60,o),
(246,94,o),
(295,189,c),
(344,94,o),
(359,60,o),
(359,14,cs),
(359,-27,o),
(334,-51,o),
(295,-51,cs)
);
}
);
width = 590;
},
{
layerId = m01;
shapes = (
{
closed = 1;
nodes = (
(436,-214,o),
(499,-148,o),
(499,-43,cs),
(499,26,o),
(478,70,o),
(367,224,c),
(411,306,o),
(460,419,o),
(614,701,c),
(483,701,l),
(403,454,o),
(374,378,o),
(332,296,c),
(290,378,o),
(251,454,o),
(161,700,c),
(30,700,l),
(184,419,o),
(233,306,o),
(277,224,c),
(166,70,o),
(145,26,o),
(145,-43,cs),
(145,-148,o),
(208,-214,o),
(322,-216,cs)
);
},
{
closed = 1;
nodes = (
(303,21,o),
(284,31,o),
(284,59,cs),
(284,88,o),
(296,107,o),
(322,160,c),
(348,107,o),
(360,88,o),
(360,59,cs),
(360,31,o),
(341,21,o),
(322,20,cs)
);
}
);
width = 644;
}
);
metricLeft = V;
metricRight = V;
unicode = 404;
},
{
color = 4;
glyphname = Vhook;
lastChange = "2024-01-23 15:53:48 +0000";
layers = (
{
background = {
shapes = (
{
closed = 1;
nodes = (
(411,0,l),
(437,188,o),
(467,323,o),
(490,440,cs),
(529,643,o),
(503,700,o),
(388,700,c),
(388,658,l),
(471,668,o),
(491,615,o),
(467,455,cs),
(453,365,o),
(448,339,o),
(391,70,cs),
(384,39,o),
(380,37,o),
(293,37,cs),
(207,37,o),
(201,39,o),
(195,70,cs),
(127,421,o),
(103,506,o),
(77,700,c),
(42,700,l),
(90,468,o),
(143,232,o),
(175,0,c)
);
}
);
};
layerId = "60D037D9-62E9-4843-B070-F1594CB0B0D1";
shapes = (
{
closed = 1;
nodes = (
(489,-11,o),
(557,284,o),
(557,427,cs),
(557,610,o),
(490,709,o),
(351,709,cs),
(347,709,o),
(343,709,o),
(339,709,c),
(339,669,l),
(347,670,o),
(354,670,o),
(362,670,cs),
(464,670,o),
(532,605,o),
(532,426,cs),
(532,224,o),
(427,28,o),
(256,28,cs),
(160,28,o),
(81,95,o),
(81,214,cs),
(81,376,o),
(82,538,o),
(85,700,c),
(54,700,l),
(58,516,o),
(58,273,o),
(58,233,cs),
(58,115,o),
(95,-11,o),
(256,-11,c)
);
}
);
width = 611;
},
{
background = {
shapes = (
{
pos = (1305,0);
ref = Whook;
scale = (-1,1);
},
{
closed = 1;
nodes = (
(316,0,l),
(588,0,o),
(559,370,o),
(573,516,cs),
(588,674,o),
(557,720,o),
(415,710,c),
(415,595,l),
(505,604,o),
(502,570,o),
(499,530,cs),
(496,488,o),
(485,380,o),
(479,356,cs),
(472,324,o),
(456,319,o),
(306,319,cs),
(175,319,o),
(155,323,o),
(150,355,cs),
(137,435,o),
(134,461,o),
(119,700,c),
(20,700,l),
(46,535,o),
(57,449,o),
(109,0,c)
);
},
{
closed = 1;
nodes = (
(588,475,l),
(588,501,o),
(588,528,o),
(588,565,cs),
(588,650,o),
(544,700,o),
(475,715,cs),
(452,720,o),
(426,721,o),
(399,721,c),
(399,586,l),
(445,592,o),
(445,592,o),
(462,592,cs),
(482,592,o),
(498,585,o),
(507,574,cs),
(517,562,o),
(524,540,o),
(524,491,cs),
(524,481,o),
(524,470,o),
(523,457,c)
);
}
);
};
layerId = m01;
shapes = (
{
closed = 1;
nodes = (
(455,-10,o),
(596,177,o),
(596,422,cs),
(596,581,o),
(556,711,o),
(392,711,cs),
(384,711,o),
(377,711,o),
(369,710,c),
(369,554,l),
(385,557,o),
(400,558,o),
(413,558,cs),
(491,558,o),
(525,510,o),
(525,448,cs),
(525,357,o),
(444,319,o),
(299,319,cs),
(123,319,o),
(110,327,o),
(110,421,cs),
(110,514,o),
(112,607,o),
(115,700,c),
(30,700,l),
(33,440,o),
(33,440,o),
(33,310,cs),
(33,56,o),
(90,-10,o),
(261,-10,cs)
);
}
);
width = 638;
}
);
metricLeft = V;
metricRight = O;
unicode = 434;
},
{
color = 4;
glyphname = W;
kernLeft = KO_W;
kernRight = KO_W;
lastChange = "2024-01-23 08:38:47 +0000";
layers = (
{
anchors = (
{
name = bottom;
pos = (423,0);
},
{
name = hook;
pos = (795,700);
},
{
name = top;
pos = (423,700);
}
);
background = {
shapes = (
{
pos = (74,0);
ref = O;
}
);
};
layerId = m01;
shapes = (
{
closed = 1;
nodes = (
(359,0,l),
(376,319,o),
(381,347,o),
(420,347,cs),
(457,347,o),
(462,319,o),
(486,0,c),
(736,0,l),
(744,116,o),
(754,233,o),
(767,350,cs),
(780,467,o),
(796,583,o),
(815,700,c),
(722,700,l),
(717,603,o),
(711,488,o),
(703,421,cs),
(699,387,o),
(691,366,o),
(678,354,cs),
(666,343,o),
(634,341,o),
(614,341,cs),
(594,341,o),
(563,343,o),
(545,358,cs),
(516,382,o),
(513,406,o),
(477,700,c),
(368,700,l),
(332,406,o),
(329,382,o),
(300,358,cs),
(282,343,o),
(251,341,o),
(231,341,cs),
(211,341,o),
(179,343,o),
(167,354,cs),
(154,366,o),
(146,387,o),
(142,421,cs),
(134,488,o),
(128,603,o),
(123,700,c),
(30,700,l),
(49,583,o),
(65,467,o),
(78,350,cs),
(91,233,o),
(101,116,o),
(109,0,c)
);
}
);
width = 845;
},
{
anchors = (
{
name = bottom;
pos = (405,0);
},
{
name = hook;
pos = (726,700);
},
{
name = top;
pos = (405,700);
}
);
background = {
shapes = (
{
closed = 1;
nodes = (
(280,0,l),
(372,529,o),
(372,529,o),
(404,529,cs),
(437,529,o),
(437,529,o),
(529,0,c),
(667,0,l),
(671,116,o),
(681,233,o),
(691,350,cs),
(701,467,o),
(712,583,o),
(726,700,c),
(693,700,l),
(676,493,o),
(665,350,o),
(658,253,cs),
(650,136,o),
(646,81,o),
(643,68,cs),
(637,42,o),
(616,38,o),
(594,38,cs),
(558,38,o),
(546,46,o),
(541,68,cs),
(523,154,o),
(473,442,o),
(452,566,c),
(356,566,l),
(335,442,o),
(286,154,o),
(268,68,cs),
(263,46,o),
(251,38,o),
(215,38,cs),
(193,38,o),
(172,42,o),
(166,68,cs),
(163,81,o),
(159,136,o),
(151,253,cs),
(144,350,o),
(133,493,o),
(117,700,c),
(84,700,l),
(98,583,o),
(108,467,o),
(118,350,cs),
(128,233,o),
(138,116,o),
(142,0,c)
);
}
);
};
layerId = "60D037D9-62E9-4843-B070-F1594CB0B0D1";
shapes = (
{
closed = 1;
nodes = (
(307,0,l),
(383,642,o),
(386,664,o),
(418,664,cs),
(450,664,o),
(453,642,o),
(529,0,c),
(686,0,l),
(705,160,o),
(718,261,o),
(731,355,cs),
(745,457,o),
(759,550,o),
(782,700,c),
(749,700,l),
(722,477,o),
(704,332,o),
(692,237,cs),
(671,66,o),
(669,58,o),
(665,52,cs),
(658,41,o),
(649,39,o),
(606,39,cs),
(567,39,o),
(557,43,o),
(551,52,cs),
(545,60,o),
(542,77,o),
(465,700,c),
(371,700,l),
(294,77,o),
(291,60,o),
(285,52,cs),
(279,43,o),
(269,39,o),
(230,39,cs),
(187,39,o),
(178,41,o),
(171,52,cs),
(167,58,o),
(165,66,o),
(144,235,cs),
(132,330,o),
(114,476,o),
(87,700,c),
(54,700,l),
(77,550,o),
(91,457,o),
(105,355,cs),
(118,261,o),
(131,160,o),
(150,0,c)
);
}
);
width = 836;
}
);
metricLeft = A;
metricRight = A;
unicode = 87;
userData = {
KernOnName = W;
};
},
{
color = 3;
glyphname = Whook;
lastChange = "2024-01-23 15:53:48 +0000";
layers = (
{
background = {
shapes = (
{
closed = 1;
nodes = (
(308,0,l),
(400,529,o),
(400,529,o),
(432,529,cs),
(465,529,o),
(465,529,o),
(557,0,c),
(695,0,l),
(699,116,o),
(729,504,o),
(744,618,cs),
(750,662,o),
(785,676,o),
(850,661,c),
(850,707,l),
(770,717,o),
(723,691,o),
(716,620,cs),
(695,414,o),
(693,350,o),
(686,253,cs),
(678,136,o),
(675,81,o),
(672,68,cs),
(666,42,o),
(644,38,o),
(622,38,cs),
(586,38,o),
(574,46,o),
(569,68,cs),
(551,154,o),
(504,442,o),
(480,566,c),
(384,566,l),
(360,442,o),
(314,154,o),
(296,68,cs),
(291,46,o),
(279,38,o),
(243,38,cs),
(221,38,o),
(199,42,o),
(193,68,cs),
(190,81,o),
(187,136,o),
(179,253,cs),
(172,350,o),
(159,493,o),
(145,700,c),
(112,700,l),
(128,583,o),
(136,467,o),
(146,350,cs),
(156,233,o),
(166,116,o),
(170,0,c)
);
}
);
};
layerId = "60D037D9-62E9-4843-B070-F1594CB0B0D1";
shapes = (
{
alignment = -1;
ref = W;
},
{
pos = (626,0);
ref = _fronthook.part;
}
);
width = 853;
},
{
background = {
shapes = (
{
closed = 1;
nodes = (
(738,486,o),
(733,421,cs),
(730,387,o),
(721,366,o),
(708,354,cs),
(696,343,o),
(664,341,o),
(644,341,cs),
(624,341,o),
(593,343,o),
(575,358,cs),
(546,382,o),
(543,406,o),
(507,700,c),
(398,700,l),
(362,406,o),
(359,382,o),
(330,358,cs),
(312,343,o),
(281,341,o),
(261,341,cs),
(241,341,o),
(209,343,o),
(197,354,cs),
(184,366,o),
(176,387,o),
(172,421,cs),
(164,488,o),
(158,603,o),
(153,700,c),
(60,700,l),
(79,583,o),
(95,467,o),
(108,350,cs),
(121,233,o),
(131,116,o),
(139,0,c),
(389,0,l),
(406,319,o),
(411,347,o),
(450,347,cs),
(487,347,o),
(492,319,o),
(516,0,c),
(766,0,l),
(776,151,o),
(798,385,o),
(817,510,cs),
(821,536,o),
(824,550,o),
(831,558,cs),
(840,569,o),
(856,575,o),
(876,575,cs),
(893,575,o),
(893,575,o),
(939,569,c),
(939,704,l),
(912,708,o),
(886,711,o),
(863,711,cs),
(793,711,o),
(754,679,o),
(743,548,cs),
(738,486,o)
);
}
);
};
layerId = m01;
shapes = (
{
alignment = -1;
ref = W;
},
{
pos = (699,0);
ref = _fronthook.part;
}
);
width = 1022;
}
);
metricLeft = W;
metricRight = T;
unicode = 11378;
},
{
color = 4;
glyphname = X;
kernLeft = KO_X;
kernRight = KO_X;
lastChange = "2024-01-23 08:38:52 +0000";
layers = (
{
anchors = (
{
name = bottom;
pos = (346,0);
},
{
name = top;
pos = (346,700);
}
);
background = {
shapes = (
{
pos = (23,0);
ref = V;
}
);
};
layerId = m01;
shapes = (
{
closed = 1;
nodes = (
(129,0,l),
(157,113,o),
(172,167,o),
(199,192,cs),
(224,215,o),
(258,215,o),
(346,215,cs),
(434,215,o),
(468,215,o),
(493,192,cs),
(520,167,o),
(535,113,o),
(563,0,c),
(662,0,l),
(553,313,o),
(547,331,o),
(547,361,cs),
(547,391,o),
(552,408,o),
(647,700,c),
(548,700,l),
(534,617,o),
(524,560,o),
(497,537,cs),
(477,520,o),
(406,519,o),
(346,519,cs),
(286,519,o),
(215,520,o),
(195,537,cs),
(168,560,o),
(158,617,o),
(144,700,c),
(45,700,l),
(140,408,o),
(145,391,o),
(145,361,cs),
(145,331,o),
(139,313,o),
(30,0,c)
);
}
);
width = 692;
},
{
anchors = (
{
name = bottom;
pos = (282,0);
},
{
name = top;
pos = (282,700);
}
);
layerId = "60D037D9-62E9-4843-B070-F1594CB0B0D1";
shapes = (
{
closed = 1;
nodes = (
(88,0,l),
(168,215,o),
(208,316,o),
(222,330,cs),
(232,340,o),
(241,342,o),
(317,342,cs),
(393,342,o),
(401,341,o),
(412,330,cs),
(426,316,o),
(466,215,o),
(546,0,c),
(580,0,l),
(458,291,o),
(442,331,o),
(442,361,cs),
(442,391,o),
(449,409,o),
(570,700,c),
(536,700,l),
(464,507,o),
(424,405,o),
(415,392,cs),
(407,380,o),
(392,380,o),
(317,380,cs),
(242,380,o),
(227,380,o),
(219,392,cs),
(210,405,o),
(170,509,o),
(98,700,c),
(64,700,l),
(185,409,o),
(192,391,o),
(192,361,cs),
(192,331,o),
(176,291,o),
(54,0,c)
);
}
);
width = 634;
}
);
metricLeft = A;
metricRight = A;
unicode = 88;
userData = {
KernOnName = X;
};
},
{
color = 4;
glyphname = Y;
kernLeft = KO_Y;
kernRight = KO_Y;
lastChange = "2024-01-23 08:39:36 +0000";
layers = (
{
anchors = (
{
name = bottom;
pos = (257,0);
},
{
name = hook;
pos = (558,700);
},
{
name = top;
pos = (305,700);
},
{
name = topleft;
pos = (22,700);
}
);
background = {
shapes = (
{
pos = (-18,0);
ref = V;
}
);
};
layerId = m01;
shapes = (
{
closed = 1;
nodes = (
(76,2,o),
(135,-8,o),
(206,-8,cs),
(295,-8,o),
(380,9,o),
(432,58,cs),
(484,107,o),
(497,189,o),
(503,236,cs),
(520,367,o),
(539,471,o),
(586,700,c),
(504,700,l),
(498,618,o),
(493,563,o),
(481,533,cs),
(468,501,o),
(449,496,o),
(306,496,cs),
(163,496,o),
(144,501,o),
(131,533,cs),
(119,563,o),
(114,618,o),
(108,700,c),
(26,700,l),
(74,471,o),
(88,403,o),
(110,272,c),
(440,272,l),
(431,239,o),
(346,205,o),
(257,205,cs),
(156,205,o),
(73,239,o),
(51,250,c),
(51,10,l)
);
}
);
width = 596;
},
{
anchors = (
{
name = bottom;
pos = (209,0);
},
{
name = hook;
pos = (484,700);
},
{
name = top;
pos = (266,700);
},
{
name = topleft;
pos = (22,700);
}
);
background = {
shapes = (
{
closed = 1;
nodes = (
(55,2,o),
(91,-8,o),
(134,-8,cs),
(176,-8,o),
(218,0,o),
(246,15,cs),
(280,34,o),
(329,52,o),
(385,295,cs),
(392,325,o),
(459,568,o),
(496,700,c),
(463,700,l),
(429,530,o),
(387,390,o),
(376,362,cs),
(366,336,o),
(361,331,o),
(258,331,cs),
(156,331,o),
(150,338,o),
(140,364,cs),
(130,390,o),
(91,530,o),
(57,700,c),
(24,700,l),
(59,568,o),
(83,481,o),
(134,297,c),
(361,297,l),
(325,138,o),
(289,54,o),
(202,34,cs),
(138,19,o),
(63,41,o),
(36,53,c),
(36,7,l)
);
}
);
};
layerId = "60D037D9-62E9-4843-B070-F1594CB0B0D1";
shapes = (
{
closed = 1;
nodes = (
(55,1,o),
(91,-8,o),
(134,-8,cs),
(176,-8,o),
(203,-3,o),
(227,7,cs),
(273,27,o),
(329,52,o),
(385,295,cs),
(392,325,o),
(459,568,o),
(496,700,c),
(463,700,l),
(429,530,o),
(387,390,o),
(376,362,cs),
(366,336,o),
(361,331,o),
(258,331,cs),
(156,331,o),
(150,338,o),
(140,364,cs),
(130,390,o),
(91,530,o),
(57,700,c),
(24,700,l),
(59,568,o),
(83,481,o),
(134,297,c),
(361,297,l),
(330,159,o),
(298,29,o),
(155,29,cs),
(105,29,o),
(57,44,o),
(36,53,c),
(36,7,l)
);
}
);
width = 514;
}
);
unicode = 89;
userData = {
KernOnName = Y;
};
},
{
color = 5;
glyphname = Yhook;
kernLeft = KO_Y;
lastChange = "2024-01-23 15:53:48 +0000";
layers = (
{
background = {
shapes = (
{
closed = 1;
nodes = (
(132,2,o),
(168,-8,o),
(211,-8,cs),
(253,-8,o),
(295,0,o),
(323,15,cs),
(357,33,o),
(406,52,o),
(462,295,cs),
(468,319,o),
(515,490,o),
(551,619,cs),
(564,662,o),
(587,676,o),
(651,661,c),
(651,707,l),
(574,717,o),
(540,695,o),
(522,620,cs),
(501,530,o),
(462,390,o),
(450,362,cs),
(441,335,o),
(443,331,o),
(335,331,cs),
(233,331,o),
(230,328,o),
(220,364,cs),
(196,454,o),
(154,615,o),
(134,700,c),
(101,700,l),
(137,568,o),
(171,481,o),
(211,297,c),
(438,297,l),
(402,138,o),
(366,54,o),
(279,34,cs),
(215,19,o),
(140,41,o),
(113,53,c),
(113,7,l)
);
}
);
};
layerId = "60D037D9-62E9-4843-B070-F1594CB0B0D1";
shapes = (
{
alignment = -1;
ref = Y;
},
{
pos = (384,0);
ref = _fronthook.part;
}
);
width = 597;
},
{
background = {
shapes = (
{
pos = (-228,0);
ref = Whook;
},
{
closed = 1;
nodes = (
(88,2,o),
(147,-8,o),
(218,-8,cs),
(307,-8,o),
(398,9,o),
(450,58,cs),
(501,107,o),
(521,189,o),
(527,236,cs),
(540,335,o),
(540,448,o),
(552,530,cs),
(561,590,o),
(593,606,o),
(662,594,c),
(662,709,l),
(544,717,o),
(509,707,o),
(494,589,cs),
(492,573,o),
(491,557,o),
(488,537,cs),
(483,502,o),
(450,496,o),
(317,496,cs),
(174,496,o),
(151,502,o),
(146,537,cs),
(139,591,o),
(137,618,o),
(132,700,c),
(42,700,l),
(81,471,o),
(96,403,o),
(116,272,c),
(454,272,l),
(445,239,o),
(361,205,o),
(269,205,cs),
(168,205,o),
(85,239,o),
(63,250,c),
(63,10,l)
);
}
);
};
layerId = m01;
shapes = (
{
alignment = -1;
ref = Y;
},
{
pos = (462,0);
ref = _fronthook.part;
}
);
width = 785;
}
);
metricRight = T;
unicode = 435;
},
{
color = 3;
glyphname = Ystroke;
lastChange = "2024-01-11 16:11:13 +0000";
layers = (
{
layerId = "60D037D9-62E9-4843-B070-F1594CB0B0D1";
shapes = (
{
ref = Y;
},
{
closed = 1;
nodes = (
(112,552,o),
(374,552,o),
(519,550,c),
(519,581,l),
(374,579,o),
(112,579,o),
(-33,581,c),
(-33,550,l)
);
}
);
width = 531;
},
{
layerId = m01;
shapes = (
{
ref = Y;
},
{
closed = 1;
nodes = (
(213,569,o),
(429,569,o),
(648,566,c),
(648,633,l),
(429,630,o),
(213,630,o),
(-9,633,c),
(-9,566,l)
);
}
);
width = 592;
}
);
unicode = 590;
},
{
color = 4;
glyphname = Z;
kernLeft = KO_Z;
kernRight = KO_Z;
lastChange = "2024-01-22 17:59:20 +0000";
layers = (
{
anchors = (
{
name = bottom;
pos = (338,0);
},
{
name = center;
pos = (291,334);
},
{
name = top;
pos = (338,700);
}
);
background = {
shapes = (
{
pos = (17,0);
ref = E;
}
);
};
layerId = m01;
shapes = (
{
closed = 1;
nodes = (
(611,0,l),
(611,248,l),
(530,248,o),
(483,248,o),
(404,248,cs),
(269,248,o),
(257,248,o),
(257,262,cs),
(257,270,o),
(257,272,o),
(276,284,cs),
(333,321,o),
(499,416,o),
(596,470,c),
(596,700,l),
(57,700,l),
(57,452,l),
(138,452,o),
(155,452,o),
(234,452,cs),
(369,452,o),
(381,452,o),
(381,438,cs),
(381,430,o),
(381,428,o),
(362,416,cs),
(305,379,o),
(139,284,o),
(42,230,c),
(42,0,l)
);
}
);
width = 653;
},
{
anchors = (
{
name = bottom;
pos = (314,0);
},
{
name = center;
pos = (273,350);
},
{
name = top;
pos = (314,700);
}
);
background = {
shapes = (
{
pos = (12,0);
ref = E;
}
);
};
layerId = "60D037D9-62E9-4843-B070-F1594CB0B0D1";
shapes = (
{
closed = 1;
nodes = (
(520,0,l),
(520,36,l),
(376,36,o),
(309,36,o),
(233,36,cs),
(83,36,o),
(80,36,o),
(80,79,cs),
(80,121,o),
(82,128,o),
(121,169,cs),
(172,223,o),
(404,464,o),
(500,563,c),
(500,700,l),
(74,700,l),
(74,664,l),
(218,664,o),
(244,664,o),
(320,664,cs),
(470,664,o),
(473,664,o),
(473,621,cs),
(473,579,o),
(470,572,o),
(432,531,cs),
(381,477,o),
(150,236,o),
(54,137,c),
(54,0,l)
);
}
);
width = 574;
}
);
metricLeft = O;
metricRight = O;
unicode = 90;
userData = {
KernOnName = Z;
};
},
{
color = 4;
export = 0;
glyphname = G.001;
lastChange = "2024-01-23 08:10:49 +0000";
layers = (
{
anchors = (
{
name = bottom;
pos = (354,0);
},
{
name = hook;
pos = (592,677);
},
{
name = top;
pos = (357,700);
}
);
background = {
shapes = (
{
ref = C;
}
);
};
layerId = m01;
shapes = (
{
closed = 1;
nodes = (
(502,361,o),
(321,363,o),
(299,364,c),
(299,293,l),
(318,294,o),
(460,296,o),
(519,296,c),
(490,247,o),
(382,245,o),
(306,245,cs),
(234,245,o),
(176,256,o),
(143,281,cs),
(122,297,o),
(112,320,o),
(112,350,cs),
(112,380,o),
(122,403,o),
(143,419,cs),
(176,444,o),
(234,455,o),
(306,455,cs),
(434,455,o),
(546,440,o),
(592,430,c),
(592,680,l),
(556,692,o),
(470,710,o),
(397,710,cs),
(154,710,o),
(42,597,o),
(42,350,cs),
(42,103,o),
(138,-10,o),
(315,-10,cs),
(418,-10,o),
(526,35,o),
(534,151,c),
(531,99,o),
(528,48,o),
(524,0,c),
(600,0,l),
(597,113,o),
(597,248,o),
(600,361,c),
(538,361,ls)
);
}
);
width = 642;
},
{
anchors = (
{
name = bottom;
pos = (322,0);
},
{
name = hook;
pos = (519,680);
},
{
name = top;
pos = (331,700);
}
);
background = {
shapes = (
{
pos = (-15,0);
ref = C;
}
);
};
layerId = "60D037D9-62E9-4843-B070-F1594CB0B0D1";
shapes = (
{
closed = 1;
nodes = (
(396,296,o),
(370,296,o),
(325,297,c),
(325,260,l),
(371,261,o),
(401,261,o),
(506,261,c),
(506,113,o),
(452,29,o),
(305,29,cs),
(220,29,o),
(161,71,o),
(128,128,cs),
(90,194,o),
(77,281,o),
(77,350,cs),
(77,455,o),
(109,541,o),
(163,597,cs),
(210,644,o),
(274,671,o),
(349,671,cs),
(403,671,o),
(459,657,o),
(519,630,c),
(519,680,l),
(470,698,o),
(411,708,o),
(361,708,cs),
(174,708,o),
(54,567,o),
(54,350,cs),
(54,138,o),
(146,-8,o),
(306,-8,cs),
(460,-8,o),
(498,94,o),
(504,152,c),
(504,103,o),
(501,49,o),
(500,0,c),
(529,0,l),
(526,157,o),
(529,254,o),
(529,296,c),
(500,296,ls)
);
}
);
width = 583;
}
);
metricLeft = C;
metricRight = O;
},
{
color = 4;
export = 0;
glyphname = K.001;
lastChange = "2024-01-23 15:53:48 +0000";
layers = (
{
anchors = (
{
name = bottom;
pos = (297,0);
},
{
name = top;
pos = (297,700);
}
);
background = {
shapes = (
{
pos = (7,0);
ref = H;
}
);
};
layerId = "60D037D9-62E9-4843-B070-F1594CB0B0D1";
shapes = (
{
closed = 1;
nodes = (
(128,0,l),
(124,107,o),
(122,213,o),
(122,319,cs),
(122,346,o),
(140,351,o),
(242,351,cs),
(350,351,o),
(354,342,o),
(372,307,cs),
(463,135,o),
(493,82,o),
(525,0,c),
(569,0,l),
(479,164,o),
(379,316,o),
(379,371,cs),
(379,428,o),
(488,611,o),
(517,700,c),
(481,700,l),
(457,621,o),
(414,526,o),
(367,426,cs),
(351,393,o),
(337,385,o),
(241,385,cs),
(141,385,o),
(122,390,o),
(122,418,cs),
(122,512,o),
(125,606,o),
(128,700,c),
(96,700,l),
(104,467,o),
(104,233,o),
(96,0,c)
);
}
);
width = 581;
},
{
anchors = (
{
name = bottom;
pos = (319,0);
},
{
name = top;
pos = (319,700);
}
);
background = {
shapes = (
{
pos = (-14,0);
ref = H;
}
);
};
layerId = m01;
shapes = (
{
closed = 1;
nodes = (
(145,0,l),
(141,92,o),
(140,159,o),
(148,186,cs),
(156,212,o),
(182,219,o),
(289,221,cs),
(392,223,o),
(437,217,o),
(459,174,cs),
(508,80,o),
(518,46,o),
(530,0,c),
(648,0,l),
(566,174,o),
(485,298,o),
(485,365,cs),
(485,439,o),
(590,615,o),
(609,700,c),
(511,700,l),
(501,649,o),
(478,589,o),
(457,551,cs),
(436,513,o),
(407,511,o),
(284,511,cs),
(197,511,o),
(166,512,o),
(151,527,cs),
(139,539,o),
(139,559,o),
(146,700,c),
(58,700,l),
(69,467,o),
(69,233,o),
(58,0,c)
);
}
);
width = 648;
}
);
metricLeft = H;
},
{
color = 4;
export = 0;
glyphname = Y.001;
lastChange = "2024-01-23 08:10:49 +0000";
layers = (
{
anchors = (
{
name = bottom;
pos = (269,0);
},
{
name = top;
pos = (317,700);
},
{
name = topleft;
pos = (34,700);
}
);
background = {
shapes = (
{
pos = (-6,0);
ref = V;
}
);
};
layerId = m01;
shapes = (
{
closed = 1;
nodes = (
(307,-8,o),
(398,9,o),
(450,58,cs),
(501,107,o),
(521,189,o),
(527,236,cs),
(544,367,o),
(559,471,o),
(592,700,c),
(502,700,l),
(497,618,o),
(495,591,o),
(488,537,cs),
(483,502,o),
(450,496,o),
(317,496,cs),
(174,496,o),
(151,502,o),
(146,537,cs),
(139,591,o),
(137,618,o),
(132,700,c),
(42,700,l),
(81,471,o),
(96,403,o),
(116,272,c),
(454,272,l),
(445,239,o),
(361,205,o),
(269,205,cs),
(168,205,o),
(85,239,o),
(63,250,c),
(63,10,l),
(88,2,o),
(147,-8,o),
(218,-8,cs)
);
}
);
width = 592;
},
{
anchors = (
{
name = bottom;
pos = (241,0);
},
{
name = top;
pos = (298,700);
},
{
name = topleft;
pos = (54,700);
}
);
background = {
shapes = (
{
pos = (642,105);
ref = R;
scale = (-1,1);
}
);
};
layerId = "60D037D9-62E9-4843-B070-F1594CB0B0D1";
shapes = (
{
closed = 1;
nodes = (
(372,-10,o),
(421,69,o),
(462,240,cs),
(475,293,o),
(481,329,o),
(503,458,cs),
(531,621,o),
(530,601,o),
(547,700,c),
(514,700,l),
(495,561,o),
(474,447,o),
(467,424,cs),
(460,402,o),
(447,402,o),
(296,402,cs),
(135,402,o),
(142,396,o),
(128,458,cs),
(119,499,o),
(93,631,o),
(87,700,c),
(54,700,l),
(73,592,o),
(96,521,o),
(114,371,c),
(460,371,l),
(419,78,o),
(344,33,o),
(241,26,cs),
(193,23,o),
(147,29,o),
(90,42,c),
(90,0,l),
(134,-6,o),
(168,-10,o),
(205,-10,cs)
);
}
);
width = 616;
}
);
metricLeft = O;
},
{
color = 4;
glyphname = Ismall;
lastChange = "2024-01-05 01:49:41 +0000";
layers = (
{
layerId = "60D037D9-62E9-4843-B070-F1594CB0B0D1";
shapes = (
{
closed = 1;
nodes = (
(72,0,l),
(313,0,l),
(313,36,l),
(232,36,o),
(223,36,o),
(215,42,cs),
(207,49,o),
(204,57,o),
(204,239,cs),
(204,386,o),
(202,427,o),
(216,438,cs),
(224,444,o),
(233,444,o),
(314,444,c),
(314,480,l),
(72,480,l),
(72,444,l),
(153,444,o),
(162,444,o),
(170,438,cs),
(184,427,o),
(182,386,o),
(182,239,cs),
(182,57,o),
(178,49,o),
(170,42,cs),
(162,36,o),
(153,36,o),
(72,36,c)
);
}
);
width = 386;
},
{
layerId = m01;
shapes = (
{
closed = 1;
nodes = (
(42,0,l),
(433,0,l),
(433,150,l),
(344,148,o),
(313,150,o),
(297,161,cs),
(277,174,o),
(273,189,o),
(273,250,cs),
(273,310,o),
(277,326,o),
(297,339,cs),
(313,350,o),
(344,352,o),
(433,350,c),
(433,500,l),
(42,500,l),
(42,350,l),
(131,352,o),
(162,350,o),
(178,339,cs),
(198,326,o),
(202,310,o),
(202,250,cs),
(202,189,o),
(198,174,o),
(178,161,cs),
(162,150,o),
(131,148,o),
(42,150,c)
);
}
);
width = 475;
}
);
unicode = 618;
},
{
color = 4;
glyphname = a;
kernLeft = KO_a;
kernRight = KO_a;
lastChange = "2024-01-23 08:22:47 +0000";
layers = (
{
anchors = (
{
name = bottom;
pos = (273,0);
},
{
name = ogonek;
pos = (507,0);
},
{
name = top;
pos = (273,500);
}
);
background = {
shapes = (
{
pos = (-9,0);
ref = o;
}
);
};
layerId = m01;
shapes = (
{
closed = 1;
nodes = (
(337,-8,o),
(374,27,o),
(397,58,cs),
(414,81,o),
(422,91,o),
(429,91,cs),
(439,91,o),
(439,81,o),
(439,64,cs),
(439,49,o),
(437,24,o),
(435,0,c),
(507,0,l),
(506,29,o),
(505,169,o),
(505,245,cs),
(505,321,o),
(506,471,o),
(507,500,c),
(435,500,l),
(437,476,o),
(439,451,o),
(439,436,cs),
(439,419,o),
(439,409,o),
(429,409,cs),
(422,409,o),
(414,419,o),
(397,442,cs),
(374,473,o),
(337,508,o),
(241,508,cs),
(95,508,o),
(30,421,o),
(30,245,cs),
(30,69,o),
(95,-8,o),
(241,-8,cs)
);
},
{
closed = 1;
nodes = (
(145,178,o),
(90,194,o),
(90,245,cs),
(90,296,o),
(145,314,o),
(266,314,cs),
(393,314,o),
(441,296,o),
(441,245,cs),
(441,194,o),
(393,178,o),
(266,178,cs)
);
}
);
width = 543;
},
{
anchors = (
{
name = bottom;
pos = (259,0);
},
{
name = ogonek;
pos = (464,0);
},
{
name = top;
pos = (259,492);
}
);
background = {
shapes = (
{
pos = (-19,0);
ref = o;
}
);
};
layerId = "60D037D9-62E9-4843-B070-F1594CB0B0D1";
shapes = (
{
closed = 1;
nodes = (
(342,-16,o),
(387,32,o),
(407,62,cs),
(421,83,o),
(424,87,o),
(431,87,cs),
(438,87,o),
(438,80,o),
(438,53,cs),
(438,38,o),
(438,22,o),
(437,0,c),
(464,0,l),
(461,176,o),
(461,177,o),
(461,240,cs),
(461,303,o),
(461,304,o),
(464,480,c),
(437,480,l),
(438,458,o),
(438,442,o),
(438,430,cs),
(438,400,o),
(438,393,o),
(431,393,cs),
(424,393,o),
(421,397,o),
(407,418,cs),
(387,448,o),
(342,496,o),
(251,496,cs),
(126,496,o),
(48,400,o),
(48,240,cs),
(48,80,o),
(126,-16,o),
(251,-16,cs)
);
},
{
closed = 1;
nodes = (
(132,21,o),
(69,104,o),
(69,240,cs),
(69,376,o),
(132,459,o),
(251,459,cs),
(371,459,o),
(441,384,o),
(441,240,cs),
(441,96,o),
(371,21,o),
(251,21,cs)
);
}
);
width = 554;
}
);
metricLeft = o;
metricRight = n;
unicode = 97;
userData = {
KernOnName = a;
};
},
{
color = 5;
glyphname = "alpha-latin";
kernLeft = KO_a;
lastChange = "2024-01-09 17:02:27 +0000";
layers = (
{
anchors = (
{
name = bottom;
pos = (271,0);
},
{
name = ogonek;
pos = (496,0);
},
{
name = top;
pos = (271,480);
}
);
layerId = "60D037D9-62E9-4843-B070-F1594CB0B0D1";
shapes = (
{
closed = 1;
nodes = (
(349,-16,o),
(398,33,o),
(419,62,cs),
(434,83,o),
(436,87,o),
(443,87,cs),
(450,87,o),
(450,80,o),
(450,53,cs),
(450,-12,o),
(480,-14,o),
(505,-8,c),
(505,27,l),
(477,22,o),
(472,27,o),
(470,73,cs),
(467,351,o),
(472,375,o),
(476,480,c),
(449,480,l),
(450,458,o),
(450,442,o),
(450,430,cs),
(450,400,o),
(450,393,o),
(443,393,cs),
(436,393,o),
(434,397,o),
(419,418,cs),
(398,447,o),
(354,496,o),
(263,496,cs),
(138,496,o),
(60,400,o),
(60,240,cs),
(60,80,o),
(138,-16,o),
(263,-16,cs)
);
},
{
closed = 1;
nodes = (
(81,376,o),
(144,459,o),
(263,459,cs),
(383,459,o),
(453,384,o),
(453,240,cs),
(453,96,o),
(383,21,o),
(263,21,cs),
(144,21,o),
(81,104,o),
(81,240,cs)
);
}
);
width = 562;
},
{
anchors = (
{
name = bottom;
pos = (273,0);
},
{
name = ogonek;
pos = (539,2);
},
{
name = top;
pos = (273,500);
}
);
layerId = m01;
shapes = (
{
closed = 1;
nodes = (
(337,-8,o),
(373,28,o),
(397,58,cs),
(416,81,o),
(422,91,o),
(429,91,cs),
(436,91,o),
(437,87,o),
(439,79,c),
(443,1,o),
(486,-6,o),
(559,1,c),
(559,91,l),
(530,87,o),
(509,87,o),
(505,120,c),
(504,248,o),
(505,347,o),
(507,500,c),
(435,500,l),
(437,475,o),
(439,451,o),
(439,436,cs),
(439,419,o),
(439,409,o),
(429,409,cs),
(422,409,o),
(416,419,o),
(397,442,cs),
(373,472,o),
(337,508,o),
(241,508,cs),
(95,508,o),
(30,426,o),
(30,250,cs),
(30,74,o),
(95,-8,o),
(241,-8,cs)
);
},
{
closed = 1;
nodes = (
(90,301,o),
(145,320,o),
(266,319,cs),
(393,318,o),
(441,301,o),
(441,250,cs),
(441,199,o),
(393,182,o),
(266,183,cs),
(145,184,o),
(90,199,o),
(90,250,cs)
);
}
);
width = 543;
}
);
unicode = 593;
},
{
color = 5;
glyphname = ae;
kernLeft = KO_ae;
kernRight = KO_e;
lastChange = "2024-01-23 15:53:48 +0000";
layers = (
{
anchors = (
{
name = bottom;
pos = (421,0);
},
{
name = top;
pos = (421,480);
}
);
layerId = "60D037D9-62E9-4843-B070-F1594CB0B0D1";
shapes = (
{
closed = 1;
nodes = (
(290,-16,o),
(351,21,o),
(382,71,cs),
(399,98,o),
(409,125,o),
(416,156,c),
(441,43,o),
(515,-16,o),
(632,-16,cs),
(681,-16,o),
(723,-9,o),
(770,5,c),
(770,45,l),
(714,27,o),
(674,20,o),
(628,20,cs),
(491,20,o),
(426,96,o),
(426,252,c),
(800,252,l),
(800,416,o),
(736,496,o),
(604,496,cs),
(519,496,o),
(450,444,o),
(422,358,c),
(406,456,o),
(353,496,o),
(231,496,cs),
(194,496,o),
(144,489,o),
(100,478,c),
(100,438,l),
(151,452,o),
(194,459,o),
(234,459,cs),
(363,459,o),
(407,413,o),
(407,279,c),
(296,279,o),
(214,275,o),
(158,262,cs),
(85,245,o),
(48,196,o),
(48,129,cs),
(48,37,o),
(109,-16,o),
(217,-16,cs)
);
},
{
closed = 1;
nodes = (
(121,20,o),
(70,62,o),
(70,129,cs),
(70,198,o),
(120,227,o),
(161,238,cs),
(193,247,o),
(279,252,o),
(406,252,c),
(406,96,o),
(342,20,o),
(214,20,cs)
);
},
{
closed = 1;
nodes = (
(435,387,o),
(506,459,o),
(604,459,cs),
(715,459,o),
(779,394,o),
(779,279,c),
(427,279,l)
);
}
);
width = 836;
},
{
anchors = (
{
name = bottom;
pos = (419,0);
},
{
name = top;
pos = (440,500);
}
);
layerId = m01;
shapes = (
{
closed = 1;
nodes = (
(307,-8,o),
(356,13,o),
(406,64,cs),
(418,76,o),
(428,91,o),
(437,108,c),
(477,30,o),
(560,-8,o),
(690,-8,cs),
(750,-8,o),
(788,-3,o),
(834,11,c),
(834,203,l),
(755,185,o),
(704,178,o),
(645,178,cs),
(539,178,o),
(487,193,o),
(471,230,c),
(845,230,l),
(845,436,o),
(789,508,o),
(626,508,cs),
(549,508,o),
(488,477,o),
(450,418,c),
(419,482,o),
(356,508,o),
(226,508,cs),
(172,508,o),
(111,499,o),
(58,484,c),
(58,325,l),
(107,346,o),
(190,363,o),
(244,363,cs),
(343,363,o),
(394,339,o),
(406,285,c),
(285,285,o),
(201,285,o),
(145,274,cs),
(55,257,o),
(30,209,o),
(30,151,cs),
(30,51,o),
(106,-8,o),
(236,-8,cs)
);
},
{
closed = 1;
nodes = (
(172,166,o),
(133,177,o),
(133,201,cs),
(133,220,o),
(174,230,o),
(246,230,cs),
(297,230,o),
(365,230,o),
(406,230,c),
(406,201,o),
(344,166,o),
(242,166,cs)
);
},
{
closed = 1;
nodes = (
(477,317,o),
(540,343,o),
(626,343,cs),
(717,343,o),
(780,317,o),
(780,285,c),
(477,285,l)
);
}
);
width = 877;
}
);
metricLeft = a;
metricRight = e;
unicode = 230;
},
{
color = 4;
glyphname = b;
kernLeft = KO_h;
kernRight = KO_b;
lastChange = "2024-01-23 08:22:47 +0000";
layers = (
{
anchors = (
{
name = bottom;
pos = (285,0);
},
{
name = center;
pos = (87,585);
},
{
name = top;
pos = (348,500);
}
);
background = {
shapes = (
{
closed = 1;
nodes = (
(398,0,ls),
(545,0,o),
(612,61,o),
(612,193,cs),
(612,282,o),
(570,346,o),
(481,369,c),
(543,402,o),
(568,448,o),
(568,515,cs),
(568,642,o),
(501,700,o),
(354,700,cs),
(50,700,l),
(53,381,o),
(53,381,o),
(53,350,cs),
(53,319,o),
(53,319,o),
(50,0,c)
);
},
{
closed = 1;
nodes = (
(159,245,o),
(144,251,o),
(127,260,cs),
(121,264,o),
(113,272,o),
(113,288,cs),
(113,305,o),
(121,313,o),
(127,316,cs),
(144,326,o),
(159,331,o),
(304,331,cs),
(449,331,o),
(463,326,o),
(480,316,cs),
(486,313,o),
(494,305,o),
(494,288,cs),
(494,272,o),
(486,264,o),
(480,260,cs),
(463,251,o),
(449,245,o),
(304,245,cs)
);
},
{
closed = 1;
nodes = (
(175,392,o),
(144,394,o),
(129,407,cs),
(125,411,o),
(122,415,o),
(122,424,cs),
(122,432,o),
(125,437,o),
(129,441,cs),
(144,453,o),
(175,455,o),
(293,455,cs),
(411,455,o),
(442,453,o),
(457,441,cs),
(461,437,o),
(464,432,o),
(464,424,cs),
(464,415,o),
(461,411,o),
(457,407,cs),
(442,394,o),
(411,392,o),
(293,392,cs)
);
}
);
};
layerId = m01;
shapes = (
{
closed = 1;
nodes = (
(462,-8,o),
(527,74,o),
(527,250,cs),
(527,426,o),
(462,508,o),
(316,508,cs),
(220,508,o),
(183,473,o),
(160,442,cs),
(143,419,o),
(135,409,o),
(128,409,cs),
(118,409,o),
(118,419,o),
(118,436,cs),
(118,451,o),
(119,525,o),
(122,740,c),
(50,740,l),
(53,401,o),
(53,401,o),
(53,370,cs),
(53,339,o),
(53,339,o),
(50,0,c),
(122,0,l),
(120,24,o),
(118,49,o),
(118,64,cs),
(118,81,o),
(118,91,o),
(128,91,cs),
(135,91,o),
(143,81,o),
(160,58,cs),
(183,27,o),
(220,-8,o),
(316,-8,cs)
);
},
{
closed = 1;
nodes = (
(164,183,o),
(116,199,o),
(116,250,cs),
(116,301,o),
(164,319,o),
(291,319,cs),
(412,319,o),
(467,301,o),
(467,250,cs),
(467,199,o),
(412,183,o),
(291,183,cs)
);
}
);
width = 557;
},
{
anchors = (
{
name = bottom;
pos = (295,0);
},
{
name = center;
pos = (102,590);
},
{
name = top;
pos = (286,491);
}
);
background = {
shapes = (
{
ref = o;
}
);
};
layerId = "60D037D9-62E9-4843-B070-F1594CB0B0D1";
shapes = (
{
closed = 1;
nodes = (
(426,-16,o),
(504,80,o),
(504,240,cs),
(504,400,o),
(426,496,o),
(301,496,cs),
(210,496,o),
(165,448,o),
(145,418,cs),
(131,397,o),
(128,393,o),
(121,393,cs),
(114,393,o),
(114,400,o),
(114,427,cs),
(114,519,o),
(114,711,o),
(115,740,c),
(88,740,l),
(91,565,o),
(91,473,o),
(91,373,cs),
(91,273,o),
(91,175,o),
(88,0,c),
(115,0,l),
(114,22,o),
(114,38,o),
(114,53,cs),
(114,80,o),
(114,87,o),
(121,87,cs),
(128,87,o),
(131,83,o),
(145,62,cs),
(165,32,o),
(210,-16,o),
(301,-16,cs)
);
},
{
closed = 1;
nodes = (
(181,21,o),
(111,96,o),
(111,240,cs),
(111,384,o),
(181,459,o),
(301,459,cs),
(420,459,o),
(483,376,o),
(483,240,cs),
(483,104,o),
(420,21,o),
(301,21,cs)
);
}
);
width = 552;
}
);
metricLeft = n;
metricRight = o;
unicode = 98;
userData = {
KernOnName = b;
};
},
{
color = 5;
glyphname = "beta-latin";
lastChange = "2024-01-23 15:53:48 +0000";
layers = (
{
layerId = "60D037D9-62E9-4843-B070-F1594CB0B0D1";
shapes = (
{
closed = 1;
nodes = (
(126,-152,l),
(126,13,l),
(201,-7,o),
(284,-7,o),
(322,-7,cs),
(467,-7,o),
(518,95,o),
(518,172,cs),
(518,235,o),
(499,268,o),
(478,297,cs),
(453,331,o),
(421,347,o),
(421,363,cs),
(421,384,o),
(447,393,o),
(470,425,cs),
(491,454,o),
(507,481,o),
(507,541,cs),
(507,683,o),
(400,734,o),
(321,734,cs),
(216,734,o),
(151,693,o),
(117,599,cs),
(99,548,o),
(100,420,o),
(100,395,cs),
(96,-152,l)
);
},
{
closed = 1;
nodes = (
(255,23,o),
(183,32,o),
(126,55,c),
(126,201,o),
(126,348,o),
(126,494,cs),
(126,603,o),
(197,702,o),
(313,702,cs),
(389,702,o),
(483,655,o),
(483,547,cs),
(483,444,o),
(433,381,o),
(330,381,cs),
(301,381,o),
(268,383,o),
(227,386,c),
(227,346,l),
(262,348,o),
(294,351,o),
(322,351,cs),
(432,351,o),
(490,270,o),
(490,180,cs),
(490,74,o),
(421,23,o),
(311,23,cs)
);
}
);
width = 563;
},
{
layerId = m01;
shapes = (
{
closed = 1;
nodes = (
(126,-135,l),
(125,21,l),
(211,-4,o),
(295,-7,o),
(331,-7,cs),
(464,-7,o),
(566,40,o),
(566,161,cs),
(566,224,o),
(550,265,o),
(520,286,cs),
(495,304,o),
(459,331,o),
(459,350,cs),
(459,371,o),
(484,393,o),
(510,415,cs),
(534,435,o),
(551,469,o),
(551,529,cs),
(551,656,o),
(462,719,o),
(334,719,cs),
(229,719,o),
(139,699,o),
(85,588,cs),
(62,540,o),
(62,447,o),
(62,395,cs),
(58,-135,l)
);
},
{
closed = 1;
nodes = (
(266,187,o),
(195,196,o),
(125,220,c),
(126,380,o),
(130,393,o),
(133,407,cs),
(154,490,o),
(236,510,o),
(322,510,cs),
(370,510,o),
(447,496,o),
(447,440,cs),
(447,384,o),
(375,377,o),
(327,377,cs),
(298,377,o),
(265,379,o),
(226,382,c),
(226,315,l),
(245,316,o),
(298,318,o),
(327,318,cs),
(378,318,o),
(448,312,o),
(448,251,cs),
(448,192,o),
(365,187,o),
(317,187,cs)
);
}
);
width = 606;
}
);
metricLeft = B;
metricRight = B;
unicode = 42933;
},
{
color = 2;
glyphname = bhook;
kernLeft = KO_h;
kernRight = KO_b;
lastChange = "2024-01-23 15:53:48 +0000";
layers = (
{
background = {
shapes = (
{
pos = (-6,0);
ref = b;
}
);
};
layerId = "60D037D9-62E9-4843-B070-F1594CB0B0D1";
shapes = (
{
closed = 1;
nodes = (
(115,0,l),
(114,22,o),
(114,38,o),
(114,53,cs),
(114,80,o),
(114,87,o),
(121,87,cs),
(128,87,o),
(131,83,o),
(145,62,cs),
(165,32,o),
(210,-16,o),
(301,-16,cs),
(426,-16,o),
(504,80,o),
(504,240,cs),
(504,400,o),
(426,496,o),
(301,496,cs),
(210,496,o),
(165,448,o),
(145,418,cs),
(131,397,o),
(128,393,o),
(121,393,cs),
(114,393,o),
(114,400,o),
(114,427,cs),
(114,487,o),
(114,494,o),
(114,622,cs),
(114,653,o),
(118,673,o),
(134,686,cs),
(145,695,o),
(159,698,o),
(178,698,cs),
(195,698,o),
(219,695,o),
(234,692,c),
(234,734,l),
(216,736,o),
(197,738,o),
(181,738,cs),
(139,738,o),
(114,727,o),
(100,701,cs),
(92,686,o),
(88,661,o),
(88,635,cs),
(91,463,o),
(91,463,o),
(91,391,cs),
(91,325,o),
(91,175,o),
(88,0,c)
);
},
{
closed = 1;
nodes = (
(181,21,o),
(111,96,o),
(111,240,cs),
(111,384,o),
(181,459,o),
(301,459,cs),
(420,459,o),
(483,376,o),
(483,240,cs),
(483,104,o),
(420,21,o),
(301,21,cs)
);
}
);
width = 552;
},
{
background = {
shapes = (
{
pos = (2,0);
ref = b;
}
);
};
layerId = m01;
shapes = (
{
closed = 1;
nodes = (
(124,0,l),
(122,24,o),
(120,49,o),
(120,64,cs),
(120,81,o),
(120,91,o),
(130,91,cs),
(137,91,o),
(145,81,o),
(162,58,cs),
(185,27,o),
(222,-8,o),
(318,-8,cs),
(464,-8,o),
(529,74,o),
(529,250,cs),
(529,426,o),
(464,508,o),
(318,508,cs),
(222,508,o),
(185,473,o),
(162,442,cs),
(145,419,o),
(137,409,o),
(130,409,cs),
(120,409,o),
(119,419,o),
(119,436,cs),
(119,439,o),
(119,445,o),
(119,481,cs),
(119,549,o),
(124,578,o),
(135,591,cs),
(144,602,o),
(160,608,o),
(180,608,cs),
(197,608,o),
(197,608,o),
(243,602,c),
(243,737,l),
(216,741,o),
(190,744,o),
(167,744,cs),
(131,744,o),
(103,734,o),
(80,711,cs),
(54,685,o),
(50,641,o),
(50,619,cs),
(55,394,o),
(55,394,o),
(55,370,cs),
(55,247,o),
(55,123,o),
(52,0,c)
);
},
{
closed = 1;
nodes = (
(166,183,o),
(118,199,o),
(118,250,cs),
(118,301,o),
(166,319,o),
(293,319,cs),
(414,319,o),
(469,301,o),
(469,250,cs),
(469,199,o),
(414,183,o),
(293,183,cs)
);
}
);
width = 559;
}
);
metricLeft = b;
metricRight = b;
unicode = 595;
},
{
color = 4;
glyphname = bilabialclick;
lastChange = "2024-01-18 01:21:32 +0000";
layers = (
{
layerId = "60D037D9-62E9-4843-B070-F1594CB0B0D1";
shapes = (
{
ref = O;
},
{
closed = 1;
nodes = (
(360,313,o),
(373,326,o),
(373,351,cs),
(373,376,o),
(360,389,o),
(340,389,cs),
(319,389,o),
(307,376,o),
(307,351,cs),
(307,326,o),
(319,313,o),
(340,313,cs)
);
}
);
width = 680;
},
{
layerId = m01;
shapes = (
{
ref = O;
},
{
closed = 1;
nodes = (
(405,287,o),
(431,307,o),
(431,350,cs),
(431,393,o),
(403,413,o),
(347,413,cs),
(288,413,o),
(263,393,o),
(263,350,cs),
(263,307,o),
(290,287,o),
(347,287,cs)
);
}
);
width = 694;
}
);
unicode = 664;
},
{
color = 4;
glyphname = c;
kernLeft = KO_c;
kernRight = KO_c;
lastChange = "2024-01-23 08:22:47 +0000";
layers = (
{
anchors = (
{
name = bottom;
pos = (254,0);
},
{
name = center;
pos = (265,245);
},
{
name = top;
pos = (264,500);
}
);
background = {
shapes = (
{
ref = o;
}
);
};
layerId = m01;
shapes = (
{
closed = 1;
nodes = (
(352,-8,o),
(403,3,o),
(445,20,c),
(445,199,l),
(420,192,o),
(329,180,o),
(265,180,cs),
(140,180,o),
(90,194,o),
(90,250,cs),
(90,306,o),
(140,319,o),
(265,319,cs),
(329,319,o),
(420,306,o),
(445,299,c),
(445,484,l),
(403,498,o),
(352,508,o),
(291,508,cs),
(113,508,o),
(30,422,o),
(30,250,cs),
(30,78,o),
(113,-8,o),
(291,-8,cs)
);
}
);
width = 477;
},
{
anchors = (
{
name = bottom;
pos = (253,0);
},
{
name = center;
pos = (233,240);
},
{
name = top;
pos = (261,492);
}
);
background = {
shapes = (
{
pos = (-47,0);
ref = o;
}
);
};
guides = (
{
locked = 1;
pos = (131,240);
}
);
layerId = "60D037D9-62E9-4843-B070-F1594CB0B0D1";
shapes = (
{
closed = 1;
nodes = (
(312,-16,o),
(355,-9,o),
(391,3,c),
(391,43,l),
(352,30,o),
(320,20,o),
(265,20,cs),
(168,20,o),
(69,77,o),
(69,240,cs),
(69,403,o),
(168,461,o),
(265,461,cs),
(314,461,o),
(355,450,o),
(391,437,c),
(391,477,l),
(355,489,o),
(322,496,o),
(274,496,cs),
(144,496,o),
(48,415,o),
(48,240,cs),
(48,65,o),
(144,-16,o),
(269,-16,cs)
);
}
);
width = 427;
}
);
metricLeft = o;
unicode = 99;
userData = {
KernOnName = c;
};
},
{
color = 4;
glyphname = "chi-latin";
lastChange = "2024-01-12 19:48:09 +0000";
layers = (
{
layerId = "60D037D9-62E9-4843-B070-F1594CB0B0D1";
shapes = (
{
closed = 1;
nodes = (
(552,-139,l),
(496,-195,o),
(448,-179,o),
(425,-150,cs),
(383,-97,o),
(251,352,o),
(196,438,cs),
(162,490,o),
(82,480,o),
(56,425,c),
(56,379,l),
(107,454,o),
(159,439,o),
(182,410,cs),
(224,357,o),
(356,-92,o),
(411,-178,cs),
(445,-230,o),
(516,-236,o),
(552,-185,c)
);
},
{
closed = 1;
nodes = (
(135,-220,l),
(255,17,o),
(378,243,o),
(510,480,c),
(473,480,l),
(353,243,o),
(232,17,o),
(99,-220,c)
);
}
);
width = 600;
},
{
layerId = m01;
shapes = (
{
closed = 1;
nodes = (
(614,21,l),
(577,-74,o),
(480,-99,o),
(442,-28,cs),
(355,134,o),
(305,311,o),
(242,426,cs),
(188,525,o),
(75,517,o),
(28,472,c),
(28,288,l),
(63,364,o),
(164,397,o),
(205,330,cs),
(239,274,o),
(337,0,o),
(411,-135,cs),
(453,-211,o),
(560,-212,o),
(614,-162,c)
);
},
{
closed = 1;
nodes = (
(185,-192,l),
(305,45,o),
(435,263,o),
(569,500,c),
(441,500,l),
(320,263,o),
(196,45,o),
(57,-192,c)
);
}
);
width = 600;
}
);
unicode = 43859;
},
{
color = 2;
glyphname = chook;
lastChange = "2024-01-19 13:13:12 +0000";
layers = (
{
layerId = "60D037D9-62E9-4843-B070-F1594CB0B0D1";
shapes = (
{
ref = c;
},
{
closed = 1;
nodes = (
(403,499,o),
(405,528,o),
(427,541,cs),
(437,547,o),
(449,551,o),
(464,551,cs),
(481,551,o),
(505,548,o),
(520,545,c),
(520,587,l),
(502,589,o),
(483,591,o),
(467,591,cs),
(412,591,o),
(376,569,o),
(376,472,cs),
(376,467,o),
(376,461,o),
(376,456,c),
(403,451,l)
);
}
);
width = 455;
},
{
layerId = m01;
shapes = (
{
ref = c;
},
{
closed = 1;
nodes = (
(445,490,o),
(449,520,o),
(461,534,cs),
(470,545,o),
(486,551,o),
(506,551,cs),
(523,551,o),
(523,551,o),
(569,545,c),
(569,673,l),
(542,677,o),
(516,680,o),
(493,680,cs),
(423,680,o),
(380,648,o),
(380,517,cs),
(380,480,o),
(380,453,o),
(380,427,c),
(445,409,l)
);
}
);
width = 557;
}
);
unicode = 392;
},
{
color = 4;
glyphname = d;
kernLeft = KO_a;
kernRight = KO_d;
lastChange = "2024-01-23 08:22:47 +0000";
layers = (
{
anchors = (
{
name = bottom;
pos = (284,0);
},
{
name = center;
pos = (453,585);
},
{
name = top;
pos = (284,500);
},
{
name = topright;
pos = (587,740);
}
);
background = {
shapes = (
{
pos = (-68,0);
ref = o;
}
);
};
layerId = m01;
shapes = (
{
closed = 1;
nodes = (
(337,-8,o),
(374,27,o),
(397,58,cs),
(414,81,o),
(422,91,o),
(429,91,cs),
(439,91,o),
(439,81,o),
(439,64,cs),
(439,49,o),
(437,24,o),
(435,0,c),
(507,0,l),
(504,339,o),
(504,339,o),
(504,370,cs),
(504,401,o),
(504,401,o),
(507,740,c),
(435,740,l),
(438,525,o),
(439,451,o),
(439,436,cs),
(439,419,o),
(439,409,o),
(429,409,cs),
(422,409,o),
(414,419,o),
(397,442,cs),
(374,473,o),
(337,508,o),
(241,508,cs),
(95,508,o),
(30,426,o),
(30,250,cs),
(30,74,o),
(95,-8,o),
(241,-8,cs)
);
},
{
closed = 1;
nodes = (
(145,183,o),
(90,199,o),
(90,250,cs),
(90,301,o),
(145,319,o),
(266,319,cs),
(393,319,o),
(441,301,o),
(441,250,cs),
(441,199,o),
(393,183,o),
(266,183,cs)
);
}
);
width = 557;
},
{
anchors = (
{
name = bottom;
pos = (289,0);
},
{
name = center;
pos = (418,590);
},
{
name = top;
pos = (220,492);
},
{
name = topright;
pos = (494,740);
}
);
background = {
shapes = (
{
closed = 1;
nodes = (
(335,-16,o),
(375,87,o),
(398,87,cs),
(407,87,o),
(410,72,o),
(406,0,c),
(436,0,l),
(431,277,o),
(431,462,o),
(436,740,c),
(406,740,l),
(410,453,o),
(407,393,o),
(398,393,cs),
(375,393,o),
(335,496,o),
(201,496,cs),
(71,496,o),
(-12,400,o),
(-12,240,cs),
(-12,80,o),
(71,-16,o),
(201,-16,cs)
);
},
{
closed = 1;
nodes = (
(77,21,o),
(11,106,o),
(11,240,cs),
(11,374,o),
(76,459,o),
(201,459,cs),
(324,459,o),
(409,381,o),
(409,240,cs),
(409,105,o),
(325,21,o),
(201,21,cs)
);
}
);
};
layerId = "60D037D9-62E9-4843-B070-F1594CB0B0D1";
shapes = (
{
closed = 1;
nodes = (
(342,-16,o),
(387,32,o),
(407,62,cs),
(421,83,o),
(424,87,o),
(431,87,cs),
(438,87,o),
(438,80,o),
(438,53,cs),
(438,38,o),
(438,22,o),
(437,0,c),
(464,0,l),
(461,175,o),
(461,273,o),
(461,373,cs),
(461,473,o),
(461,565,o),
(464,740,c),
(437,740,l),
(438,711,o),
(438,519,o),
(438,427,cs),
(438,400,o),
(438,393,o),
(431,393,cs),
(424,393,o),
(421,397,o),
(407,418,cs),
(387,448,o),
(342,496,o),
(251,496,cs),
(126,496,o),
(48,400,o),
(48,240,cs),
(48,80,o),
(126,-16,o),
(251,-16,cs)
);
},
{
closed = 1;
nodes = (
(132,21,o),
(69,104,o),
(69,240,cs),
(69,376,o),
(132,459,o),
(251,459,cs),
(371,459,o),
(441,384,o),
(441,240,cs),
(441,96,o),
(371,21,o),
(251,21,cs)
);
}
);
width = 552;
}
);
metricLeft = o;
metricRight = "=|n";
unicode = 100;
},
{
color = 3;
glyphname = eth;
lastChange = "2024-01-23 15:53:48 +0000";
layers = (
{
background = {
shapes = (
{
pos = (-11,0);
ref = d;
}
);
};
layerId = "60D037D9-62E9-4843-B070-F1594CB0B0D1";
shapes = (
{
closed = 1;
nodes = (
(366,-16,o),
(472,73,o),
(472,281,cs),
(472,341,o),
(468,393,o),
(454,441,cs),
(405,613,o),
(275,728,o),
(76,732,c),
(76,698,l),
(258,698,o),
(331,612,o),
(361,576,cs),
(418,508,o),
(442,420,o),
(442,398,cs),
(442,388,o),
(440,386,o),
(435,386,cs),
(431,386,o),
(428,388,o),
(422,398,cs),
(403,427,o),
(351,496,o),
(262,496,cs),
(123,496,o),
(48,388,o),
(48,240,cs),
(48,92,o),
(123,-16,o),
(262,-16,cs)
);
},
{
closed = 1;
nodes = (
(133,22,o),
(71,103,o),
(71,242,cs),
(71,381,o),
(133,459,o),
(269,459,cs),
(362,459,o),
(442,381,o),
(442,240,cs),
(442,103,o),
(366,22,o),
(275,22,cs)
);
},
{
closed = 1;
nodes = (
(229,579,o),
(260,606,o),
(291,634,cs),
(321,662,o),
(352,690,o),
(384,716,c),
(364,738,l),
(335,709,o),
(304,681,o),
(273,653,cs),
(242,625,o),
(212,598,o),
(180,572,c),
(200,550,l)
);
}
);
width = 520;
},
{
background = {
shapes = (
{
closed = 1;
nodes = (
(432,-8,o),
(514,64,o),
(514,275,cs),
(514,400,o),
(486,506,o),
(427,586,cs),
(359,679,o),
(249,752,o),
(100,760,c),
(100,662,l),
(136,662,o),
(226,655,o),
(310,599,cs),
(383,551,o),
(439,454,o),
(413,454,cs),
(393,454,o),
(355,508,o),
(259,508,cs),
(121,508,o),
(30,436,o),
(30,250,cs),
(30,64,o),
(112,-8,o),
(272,-8,cs)
);
},
{
closed = 1;
nodes = (
(90,302,o),
(136,320,o),
(272,320,cs),
(408,320,o),
(454,302,o),
(454,250,cs),
(454,198,o),
(408,180,o),
(272,180,cs),
(136,180,o),
(90,198,o),
(90,250,cs)
);
},
{
angle = 47;
pos = (389,299);
ref = shortstrokecomb;
}
);
};
layerId = m01;
shapes = (
{
closed = 1;
nodes = (
(417,-8,o),
(514,61,o),
(514,247,cs),
(514,352,o),
(494,451,o),
(451,530,cs),
(365,690,o),
(238,761,o),
(100,761,c),
(100,552,l),
(136,552,o),
(235,552,o),
(320,514,cs),
(380,487,o),
(418,438,o),
(419,417,cs),
(419,412,o),
(418,409,o),
(413,409,cs),
(407,409,o),
(399,413,o),
(387,421,cs),
(366,435,o),
(324,458,o),
(259,458,cs),
(121,458,o),
(30,393,o),
(30,225,cs),
(30,57,o),
(112,-8,o),
(272,-8,cs)
);
},
{
closed = 1;
nodes = (
(136,180,o),
(90,198,o),
(90,250,cs),
(90,302,o),
(136,320,o),
(272,320,cs),
(408,320,o),
(454,302,o),
(454,250,cs),
(454,198,o),
(408,180,o),
(272,180,cs)
);
},
{
closed = 1;
nodes = (
(254,506,o),
(289,544,o),
(323,580,cs),
(357,617,o),
(391,653,o),
(427,688,c),
(389,724,l),
(357,687,o),
(322,649,o),
(288,613,cs),
(254,576,o),
(220,540,o),
(184,505,c),
(222,469,l)
);
}
);
width = 544;
}
);
metricLeft = o;
metricRight = o;
unicode = 240;
},
{
color = 2;
glyphname = dhook;
kernLeft = KO_a;
lastChange = "2024-01-19 14:54:29 +0000";
layers = (
{
layerId = "60D037D9-62E9-4843-B070-F1594CB0B0D1";
shapes = (
{
closed = 1;
nodes = (
(507,175,o),
(507,325,o),
(507,391,cs),
(507,468,o),
(507,468,o),
(507,622,cs),
(507,653,o),
(512,673,o),
(528,686,cs),
(539,695,o),
(552,698,o),
(571,698,cs),
(588,698,o),
(612,695,o),
(627,692,c),
(627,734,l),
(609,736,o),
(590,738,o),
(574,738,cs),
(532,738,o),
(507,727,o),
(493,701,cs),
(485,686,o),
(484,661,o),
(484,635,cs),
(484,553,o),
(484,511,o),
(484,480,cs),
(484,462,o),
(484,445,o),
(484,427,cs),
(484,400,o),
(484,393,o),
(477,393,cs),
(470,393,o),
(467,397,o),
(453,418,cs),
(433,448,o),
(388,496,o),
(297,496,cs),
(172,496,o),
(94,400,o),
(94,240,cs),
(94,80,o),
(172,-16,o),
(297,-16,cs),
(388,-16,o),
(433,32,o),
(453,62,cs),
(467,83,o),
(470,87,o),
(477,87,cs),
(484,87,o),
(484,80,o),
(484,53,cs),
(484,38,o),
(484,22,o),
(483,0,c),
(510,0,l)
);
},
{
closed = 1;
nodes = (
(178,21,o),
(115,104,o),
(115,240,cs),
(115,376,o),
(178,459,o),
(297,459,cs),
(417,459,o),
(487,384,o),
(487,240,cs),
(487,96,o),
(417,21,o),
(297,21,cs)
);
}
);
width = 562;
},
{
background = {
shapes = (
{
closed = 1;
nodes = (
(163,183,o),
(108,199,o),
(108,250,cs),
(108,301,o),
(163,319,o),
(284,319,cs),
(411,319,o),
(459,301,o),
(459,250,cs),
(459,199,o),
(411,183,o),
(284,183,cs)
);
},
{
closed = 1;
nodes = (
(522,500,l),
(523,554,o),
(530,579,o),
(540,591,cs),
(549,602,o),
(565,608,o),
(585,608,cs),
(602,608,o),
(602,608,o),
(648,602,c),
(648,737,l),
(621,741,o),
(595,744,o),
(572,744,cs),
(536,744,o),
(508,734,o),
(485,711,cs),
(459,685,o),
(458,641,o),
(458,619,cs),
(458,559,o),
(458,559,o),
(458,527,cs),
(458,516,o),
(458,507,o),
(458,500,c)
);
},
{
closed = 1;
nodes = (
(458,500,l),
(458,478,o),
(458,470,o),
(458,436,cs),
(458,419,o),
(457,409,o),
(447,409,cs),
(440,409,o),
(432,419,o),
(415,442,cs),
(392,473,o),
(355,508,o),
(259,508,cs),
(113,508,o),
(48,426,o),
(48,250,cs),
(48,74,o),
(113,-8,o),
(259,-8,cs),
(355,-8,o),
(392,27,o),
(415,58,cs),
(432,81,o),
(440,91,o),
(447,91,cs),
(457,91,o),
(457,81,o),
(457,64,cs),
(457,49,o),
(455,24,o),
(453,0,c),
(525,0,l),
(522,370,ls),
(522,388,o),
(522,391,o),
(522,482,cs),
(522,488,o),
(522,494,o),
(522,500,c)
);
}
);
};
layerId = m01;
shapes = (
{
closed = 1;
nodes = (
(522,123,o),
(522,247,o),
(522,370,cs),
(522,388,o),
(522,391,o),
(522,482,cs),
(522,549,o),
(529,578,o),
(540,591,cs),
(549,602,o),
(565,608,o),
(585,608,cs),
(602,608,o),
(602,608,o),
(648,602,c),
(648,737,l),
(621,741,o),
(595,744,o),
(572,744,cs),
(536,744,o),
(508,734,o),
(485,711,cs),
(459,685,o),
(458,641,o),
(458,619,cs),
(458,559,o),
(458,559,o),
(458,527,cs),
(458,481,o),
(458,481,o),
(458,436,cs),
(458,419,o),
(457,409,o),
(447,409,cs),
(440,409,o),
(432,419,o),
(415,442,cs),
(392,473,o),
(355,508,o),
(259,508,cs),
(113,508,o),
(48,426,o),
(48,250,cs),
(48,74,o),
(113,-8,o),
(259,-8,cs),
(355,-8,o),
(392,27,o),
(415,58,cs),
(432,81,o),
(440,91,o),
(447,91,cs),
(457,91,o),
(457,81,o),
(457,64,cs),
(457,49,o),
(455,24,o),
(453,0,c),
(525,0,l)
);
},
{
closed = 1;
nodes = (
(163,183,o),
(108,199,o),
(108,250,cs),
(108,301,o),
(163,319,o),
(284,319,cs),
(411,319,o),
(459,301,o),
(459,250,cs),
(459,199,o),
(411,183,o),
(284,183,cs)
);
}
);
width = 636;
}
);
metricRight = chook;
unicode = 599;
},
{
color = 2;
glyphname = dtail;
kernLeft = KO_a;
lastChange = "2024-01-09 18:44:22 +0000";
layers = (
{
anchors = (
{
name = bottom;
pos = (266,0);
},
{
name = center;
pos = (464,590);
},
{
name = top;
pos = (266,480);
},
{
name = topright;
pos = (540,740);
}
);
layerId = "60D037D9-62E9-4843-B070-F1594CB0B0D1";
shapes = (
{
closed = 1;
nodes = (
(354,-16,o),
(398,33,o),
(419,62,cs),
(434,83,o),
(436,87,o),
(443,87,cs),
(450,87,o),
(450,80,o),
(450,50,cs),
(450,38,o),
(450,22,o),
(450,13,cs),
(450,-33,o),
(469,-44,o),
(485,-52,cs),
(508,-63,o),
(531,-61,o),
(564,-56,c),
(564,-28,l),
(531,-37,o),
(503,-35,o),
(491,-24,cs),
(485,-18,o),
(476,-13,o),
(476,22,cs),
(476,347,o),
(472,393,o),
(476,740,c),
(449,740,l),
(452,656,o),
(450,504,o),
(450,427,cs),
(450,400,o),
(450,393,o),
(443,393,cs),
(436,393,o),
(434,397,o),
(419,418,cs),
(398,447,o),
(349,496,o),
(263,496,cs),
(138,496,o),
(60,400,o),
(60,240,cs),
(60,80,o),
(138,-16,o),
(263,-16,cs)
);
},
{
closed = 1;
nodes = (
(81,376,o),
(144,459,o),
(263,459,cs),
(383,459,o),
(453,384,o),
(453,240,cs),
(453,96,o),
(383,21,o),
(263,21,cs),
(144,21,o),
(81,104,o),
(81,240,cs)
);
}
);
width = 570;
},
{
anchors = (
{
name = bottom;
pos = (304,0);
},
{
name = center;
pos = (473,585);
},
{
name = top;
pos = (304,500);
},
{
name = topright;
pos = (607,740);
}
);
layerId = m01;
shapes = (
{
closed = 1;
nodes = (
(337,-8,o),
(373,28,o),
(397,58,cs),
(416,81,o),
(422,91,o),
(429,91,cs),
(439,91,o),
(438,81,o),
(439,64,cs),
(439,60,o),
(439,55,o),
(440,50,c),
(442,-24,o),
(449,-37,o),
(467,-56,cs),
(485,-75,o),
(521,-91,o),
(619,-71,c),
(619,0,l),
(540,-17,o),
(516,-9,o),
(510,31,cs),
(507,48,o),
(506,81,o),
(506,115,cs),
(504,312,o),
(505,578,o),
(507,740,c),
(435,740,l),
(437,715,o),
(439,451,o),
(439,436,cs),
(439,419,o),
(439,409,o),
(429,409,cs),
(422,409,o),
(416,419,o),
(397,442,cs),
(373,472,o),
(337,508,o),
(241,508,cs),
(95,508,o),
(30,426,o),
(30,250,cs),
(30,74,o),
(95,-8,o),
(241,-8,cs)
);
},
{
closed = 1;
nodes = (
(90,301,o),
(145,320,o),
(266,319,cs),
(393,318,o),
(441,301,o),
(441,250,cs),
(441,199,o),
(393,182,o),
(266,183,cs),
(145,184,o),
(90,199,o),
(90,250,cs)
);
}
);
width = 600;
}
);
unicode = 598;
},
{
color = 4;
glyphname = e;
kernLeft = KO_e;
kernRight = KO_e;
lastChange = "2024-01-23 08:22:47 +0000";
layers = (
{
anchors = (
{
name = bottom;
pos = (254,0);
},
{
name = center;
pos = (254,248);
},
{
name = ogonek;
pos = (474,9);
},
{
name = top;
pos = (265,500);
}
);
background = {
shapes = (
{
pos = (-21,0);
ref = o;
}
);
};
backgroundImage = {
imagePath = "../Downloads/Images/e-ExtraBold.tif";
locked = 1;
pos = (-977,-3564);
scale = (1.4452,1.4452);
};
layerId = m01;
shapes = (
{
closed = 1;
nodes = (
(396,-10,o),
(433,-3,o),
(474,9,c),
(474,203,l),
(393,185,o),
(340,178,o),
(277,178,cs),
(174,178,o),
(114,191,o),
(97,230,c),
(487,230,l),
(487,438,o),
(426,508,o),
(258,508,cs),
(115,508,o),
(30,406,o),
(30,250,cs),
(30,77,o),
(122,-10,o),
(325,-10,cs)
);
},
{
closed = 1;
nodes = (
(102,285,l),
(102,317,o),
(168,343,o),
(258,343,cs),
(353,343,o),
(419,317,o),
(419,285,c)
);
}
);
width = 519;
},
{
anchors = (
{
name = bottom;
pos = (268,0);
},
{
name = center;
pos = (243,248);
},
{
name = ogonek;
pos = (424,5);
},
{
name = top;
pos = (268,492);
}
);
background = {
shapes = (
{
pos = (-37,0);
ref = o;
},
{
pos = (-45,0);
ref = c;
}
);
};
guides = (
{
angle = 90;
pos = (276,259);
}
);
layerId = "60D037D9-62E9-4843-B070-F1594CB0B0D1";
shapes = (
{
closed = 1;
nodes = (
(323,-16,o),
(367,-12,o),
(424,5,c),
(424,45,l),
(373,29,o),
(330,20,o),
(277,20,cs),
(105,20,o),
(68,131,o),
(68,252,c),
(456,252,l),
(456,387,o),
(413,496,o),
(252,496,cs),
(152,496,o),
(48,425,o),
(48,252,cs),
(48,113,o),
(98,-16,o),
(281,-16,cs)
);
},
{
closed = 1;
nodes = (
(69,279,l),
(77,391,o),
(155,459,o),
(252,459,cs),
(371,459,o),
(433,391,o),
(433,279,c)
);
}
);
width = 492;
}
);
metricLeft = o;
metricRight = c;
unicode = 101;
userData = {
KernOnName = e;
};
},
{
color = 2;
glyphname = eopen;
kernLeft = KO_eopen;
lastChange = "2024-01-09 18:44:06 +0000";
layers = (
{
layerId = "60D037D9-62E9-4843-B070-F1594CB0B0D1";
shapes = (
{
closed = 1;
nodes = (
(238,-16,o),
(294,-12,o),
(339,2,c),
(339,37,l),
(287,22,o),
(231,17,o),
(196,17,cs),
(130,17,o),
(53,46,o),
(53,132,cs),
(53,202,o),
(112,251,o),
(183,251,cs),
(215,251,o),
(246,251,o),
(300,250,c),
(300,278,l),
(246,277,o),
(215,277,o),
(183,277,cs),
(121,277,o),
(68,313,o),
(68,366,cs),
(68,435,o),
(117,463,o),
(204,463,cs),
(239,463,o),
(280,460,o),
(331,444,c),
(331,478,l),
(286,492,o),
(245,496,o),
(214,496,cs),
(80,496,o),
(47,421,o),
(47,365,cs),
(47,328,o),
(70,302,o),
(82,292,cs),
(101,275,o),
(121,271,o),
(121,263,cs),
(121,257,o),
(89,247,o),
(69,227,cs),
(44,202,o),
(30,177,o),
(30,129,cs),
(30,66,o),
(66,-16,o),
(206,-16,cs)
);
}
);
width = 371;
},
{
layerId = m01;
shapes = (
{
closed = 1;
nodes = (
(265,-7,o),
(322,-5,o),
(393,7,c),
(393,196,l),
(317,177,o),
(255,174,o),
(213,175,cs),
(158,175,o),
(146,194,o),
(146,204,cs),
(146,216,o),
(149,232,o),
(213,232,cs),
(249,232,o),
(292,231,o),
(350,231,c),
(350,294,l),
(292,293,o),
(249,293,o),
(213,293,cs),
(155,293,o),
(146,306,o),
(146,319,cs),
(146,334,o),
(159,342,o),
(213,342,cs),
(255,342,o),
(315,340,o),
(390,321,c),
(390,486,l),
(318,498,o),
(265,500,o),
(235,500,cs),
(117,500,o),
(38,473,o),
(38,376,cs),
(38,343,o),
(55,319,o),
(75,303,cs),
(98,281,o),
(126,272,o),
(126,258,cs),
(126,245,o),
(103,234,o),
(80,214,cs),
(58,196,o),
(38,161,o),
(38,117,cs),
(38,20,o),
(117,-7,o),
(235,-7,cs)
);
}
);
width = 433;
}
);
unicode = 603;
},
{
color = 5;
glyphname = esh;
lastChange = "2024-01-09 17:32:28 +0000";
layers = (
{
layerId = "60D037D9-62E9-4843-B070-F1594CB0B0D1";
shapes = (
{
closed = 1;
nodes = (
(121,-225,o),
(204,-180,o),
(207,-62,cs),
(208,152,o),
(212,366,o),
(218,580,cs),
(219,634,o),
(236,671,o),
(266,685,cs),
(298,700,o),
(353,693,o),
(398,667,c),
(399,709,l),
(278,759,o),
(195,714,o),
(192,596,cs),
(191,382,o),
(187,168,o),
(181,-46,cs),
(180,-100,o),
(163,-137,o),
(133,-151,cs),
(101,-166,o),
(46,-159,o),
(1,-133,c),
(0,-175,l)
);
}
);
width = 399;
},
{
layerId = m01;
shapes = (
{
closed = 1;
nodes = (
(151,-209,o),
(234,-200,o),
(237,-22,cs),
(241,204,o),
(238,340,o),
(243,457,cs),
(245,496,o),
(255,522,o),
(273,535,cs),
(297,553,o),
(340,558,o),
(417,542,c),
(420,717,l),
(269,736,o),
(186,727,o),
(183,549,cs),
(179,323,o),
(182,187,o),
(177,70,cs),
(175,31,o),
(165,5,o),
(147,-8,cs),
(123,-26,o),
(80,-31,o),
(3,-15,c),
(0,-190,l)
);
}
);
width = 420;
}
);
unicode = 643;
},
{
color = 4;
glyphname = ezh;
lastChange = "2024-01-23 15:53:48 +0000";
layers = (
{
anchors = (
{
name = bottom;
pos = (248,0);
},
{
name = top;
pos = (248,480);
}
);
layerId = "60D037D9-62E9-4843-B070-F1594CB0B0D1";
shapes = (
{
closed = 1;
nodes = (
(353,-207,o),
(448,-129,o),
(448,-3,cs),
(448,84,o),
(402,145,o),
(314,175,cs),
(279,187,o),
(234,194,o),
(203,193,c),
(266,244,o),
(337,297,o),
(414,351,c),
(414,480,l),
(48,480,l),
(48,447,l),
(350,447,o),
(380,446,o),
(386,438,cs),
(389,434,o),
(392,416,o),
(392,401,cs),
(392,386,o),
(389,369,o),
(383,364,cs),
(344,332,o),
(279,283,o),
(172,207,c),
(172,169,l),
(199,169,o),
(213,168,o),
(243,164,cs),
(354,149,o),
(420,91,o),
(420,2,cs),
(420,-100,o),
(335,-173,o),
(221,-173,cs),
(169,-173,o),
(108,-158,o),
(51,-130,c),
(51,-170,l),
(117,-196,o),
(165,-207,o),
(216,-207,cs)
);
}
);
width = 496;
},
{
anchors = (
{
name = bottom;
pos = (253,0);
},
{
name = top;
pos = (253,500);
}
);
layerId = m01;
shapes = (
{
closed = 1;
nodes = (
(388,-194,o),
(475,-126,o),
(475,7,cs),
(475,93,o),
(439,158,o),
(374,190,cs),
(340,207,o),
(300,215,o),
(262,213,c),
(361,254,o),
(379,261,o),
(441,283,c),
(441,500,l),
(43,500,l),
(43,291,l),
(261,297,o),
(277,297,o),
(287,294,cs),
(290,293,o),
(291,291,o),
(291,285,cs),
(291,280,o),
(290,277,o),
(286,274,cs),
(273,264,o),
(181,225,o),
(146,215,c),
(146,170,l),
(233,169,o),
(245,168,o),
(267,165,cs),
(318,157,o),
(344,135,o),
(344,99,cs),
(344,50,o),
(319,27,o),
(264,23,cs),
(199,18,o),
(94,33,o),
(30,56,c),
(30,-173,l),
(88,-186,o),
(160,-194,o),
(216,-194,cs)
);
}
);
width = 505;
}
);
metricLeft = e;
metricRight = "=|e";
unicode = 658;
},
{
color = 4;
glyphname = f;
kernLeft = KO_f;
kernRight = KO_f;
lastChange = "2024-01-23 08:08:20 +0000";
layers = (
{
anchors = (
{
name = bottom;
pos = (199,0);
},
{
name = top;
pos = (248,732);
}
);
background = {
shapes = (
{
closed = 1;
nodes = (
(183,0,l),
(177,291,l),
(360,291,l),
(360,500,l),
(177,500,l),
(177,512,o),
(182,532,o),
(194,545,cs),
(215,567,o),
(264,569,o),
(288,569,cs),
(322,569,o),
(360,562,o),
(393,554,c),
(393,737,l),
(371,740,o),
(334,745,o),
(295,745,cs),
(235,745,o),
(170,732,o),
(139,679,cs),
(111,629,o),
(117,555,o),
(117,500,c),
(30,500,l),
(30,291,l),
(117,291,l),
(111,0,l)
);
}
);
};
layerId = m01;
shapes = (
{
closed = 1;
nodes = (
(183,0,l),
(177,291,l),
(360,291,l),
(360,500,l),
(177,500,l),
(177,501,o),
(177,503,o),
(177,504,cs),
(182,562,o),
(236,569,o),
(288,569,cs),
(322,569,o),
(360,562,o),
(393,554,c),
(393,737,l),
(371,740,o),
(334,745,o),
(295,745,cs),
(125,745,o),
(117,654,o),
(117,518,cs),
(117,512,o),
(117,506,o),
(117,500,c),
(30,500,l),
(30,291,l),
(117,291,l),
(111,0,l)
);
}
);
width = 393;
},
{
anchors = (
{
name = bottom;
pos = (126,0);
},
{
name = top;
pos = (187,746);
}
);
background = {
shapes = (
{
closed = 1;
nodes = (
(117,0,l),
(114,447,l),
(270,447,l),
(270,480,l),
(114,480,l),
(114,622,o),
(111,652,o),
(142,681,cs),
(185,722,o),
(265,692,o),
(293,676,c),
(293,718,l),
(230,744,o),
(153,757,o),
(110,691,cs),
(88,657,o),
(92,604,o),
(92,480,c),
(30,480,l),
(30,447,l),
(92,447,l),
(89,0,l)
);
}
);
};
layerId = "60D037D9-62E9-4843-B070-F1594CB0B0D1";
shapes = (
{
closed = 1;
nodes = (
(117,0,l),
(114,447,l),
(270,447,l),
(270,480,l),
(114,480,l),
(114,510,o),
(114,539,o),
(114,597,cs),
(114,658,o),
(134,702,o),
(202,702,cs),
(239,702,o),
(275,686,o),
(293,676,c),
(293,718,l),
(264,730,o),
(242,739,o),
(211,739,cs),
(113,739,o),
(92,680,o),
(92,589,cs),
(92,537,o),
(92,508,o),
(92,480,c),
(30,480,l),
(30,447,l),
(92,447,l),
(89,0,l)
);
}
);
width = 299;
}
);
unicode = 102;
userData = {
KernOnName = f;
};
},
{
color = 4;
glyphname = g;
kernLeft = KO_o;
kernRight = KO_g;
lastChange = "2024-01-23 08:22:47 +0000";
layers = (
{
anchors = (
{
name = bottom;
pos = (262,-227);
},
{
name = center;
pos = (473,257);
},
{
name = top;
pos = (262,500);
}
);
background = {
shapes = (
{
pos = (-17,50);
ref = q;
}
);
};
layerId = m01;
shapes = (
{
closed = 1;
nodes = (
(430,-205,o),
(503,-102,o),
(503,102,cs),
(503,120,o),
(503,148,o),
(503,187,cs),
(503,261,o),
(503,372,o),
(506,500,c),
(434,500,l),
(436,476,o),
(438,452,o),
(438,437,cs),
(438,420,o),
(438,409,o),
(428,409,cs),
(421,409,o),
(413,419,o),
(396,442,cs),
(373,473,o),
(336,508,o),
(242,508,cs),
(83,508,o),
(30,432,o),
(30,273,cs),
(30,106,o),
(96,42,o),
(242,42,cs),
(336,42,o),
(373,77,o),
(396,108,cs),
(413,131,o),
(421,141,o),
(428,141,cs),
(438,141,o),
(438,130,o),
(438,118,cs),
(438,47,o),
(382,-19,o),
(235,-19,cs),
(158,-19,o),
(85,13,o),
(61,25,c),
(61,-181,l),
(101,-192,o),
(166,-205,o),
(240,-205,cs)
);
},
{
closed = 1;
nodes = (
(133,193,o),
(88,215,o),
(88,256,cs),
(88,297,o),
(133,319,o),
(264,319,cs),
(395,319,o),
(440,297,o),
(440,256,cs),
(440,215,o),
(395,193,o),
(264,193,cs)
);
}
);
width = 556;
},
{
anchors = (
{
name = bottom;
pos = (229,-207);
},
{
name = center;
pos = (451,242);
},
{
name = top;
pos = (253,480);
}
);
background = {
shapes = (
{
closed = 1;
nodes = (
(367,-16,o),
(409,87,o),
(429,87,cs),
(439,87,o),
(448,58,o),
(443,27,cs),
(416,-127,o),
(338,-181,o),
(214,-181,cs),
(172,-181,o),
(111,-175,o),
(50,-159,c),
(50,-194,l),
(101,-210,o),
(158,-217,o),
(203,-217,cs),
(368,-217,o),
(462,-124,o),
(462,47,cs),
(462,210,o),
(463,318,o),
(468,480,c),
(438,480,l),
(442,408,o),
(439,393,o),
(430,393,cs),
(407,393,o),
(367,496,o),
(233,496,cs),
(103,496,o),
(20,400,o),
(20,240,cs),
(20,80,o),
(103,-16,o),
(233,-16,cs)
);
},
{
closed = 1;
nodes = (
(109,21,o),
(43,106,o),
(43,240,cs),
(43,374,o),
(108,459,o),
(234,459,cs),
(356,459,o),
(441,380,o),
(441,242,cs),
(441,105,o),
(357,21,o),
(233,21,cs)
);
},
{
pos = (-32,0);
ref = a;
}
);
};
layerId = "60D037D9-62E9-4843-B070-F1594CB0B0D1";
shapes = (
{
closed = 1;
nodes = (
(379,-207,o),
(459,-117,o),
(459,47,cs),
(459,119,o),
(459,132,o),
(459,192,cs),
(459,265,o),
(461,389,o),
(464,480,c),
(437,480,l),
(438,458,o),
(438,442,o),
(438,430,cs),
(438,400,o),
(437,393,o),
(430,393,cs),
(423,393,o),
(420,397,o),
(406,418,cs),
(386,448,o),
(342,496,o),
(251,496,cs),
(126,496,o),
(48,400,o),
(48,240,cs),
(48,80,o),
(126,-16,o),
(251,-16,cs),
(337,-16,o),
(381,34,o),
(403,62,cs),
(419,83,o),
(423,87,o),
(430,87,cs),
(437,87,o),
(437,80,o),
(437,53,cs),
(437,-75,o),
(381,-171,o),
(232,-171,cs),
(194,-171,o),
(143,-165,o),
(83,-146,c),
(83,-186,l),
(133,-202,o),
(181,-207,o),
(229,-207,cs)
);
},
{
closed = 1;
nodes = (
(132,21,o),
(69,104,o),
(69,240,cs),
(69,376,o),
(132,459,o),
(251,459,cs),
(373,459,o),
(441,384,o),
(441,240,cs),
(441,96,o),
(357,21,o),
(251,21,cs)
);
}
);
width = 552;
}
);
metricLeft = o;
metricRight = "=|n";
unicode = 103;
userData = {
KernOnName = g;
};
},
{
color = 3;
glyphname = "gamma-latin";
lastChange = "2024-01-23 15:53:48 +0000";
layers = (
{
anchors = (
{
name = bottom;
pos = (251,-236);
},
{
name = top;
pos = (253,480);
}
);
layerId = "60D037D9-62E9-4843-B070-F1594CB0B0D1";
shapes = (
{
closed = 1;
nodes = (
(313,-234,o),
(341,-202,o),
(341,-136,cs),
(341,-89,o),
(323,-54,o),
(263,71,c),
(305,154,o),
(368,279,o),
(460,480,c),
(425,480,l),
(347,300,o),
(291,180,o),
(251,97,c),
(211,180,o),
(155,300,o),
(77,480,c),
(42,480,l),
(134,279,o),
(197,154,o),
(239,71,c),
(179,-54,o),
(161,-89,o),
(161,-136,cs),
(161,-202,o),
(189,-234,o),
(251,-236,cs)
);
},
{
closed = 1;
nodes = (
(212,-201,o),
(187,-177,o),
(187,-136,cs),
(187,-88,o),
(202,-53,o),
(251,45,c),
(300,-53,o),
(315,-88,o),
(315,-136,cs),
(315,-177,o),
(290,-201,o),
(251,-201,cs)
);
}
);
width = 502;
},
{
anchors = (
{
name = bottom;
pos = (242,-218);
},
{
name = top;
pos = (242,500);
}
);
layerId = m01;
shapes = (
{
closed = 1;
nodes = (
(337,-216,o),
(389,-170,o),
(389,-95,cs),
(389,-39,o),
(373,-3,o),
(287,122,c),
(331,204,o),
(380,317,o),
(484,498,c),
(393,498,l),
(323,352,o),
(284,276,o),
(242,194,c),
(200,276,o),
(161,352,o),
(91,498,c),
(0,498,l),
(104,317,o),
(153,204,o),
(197,122,c),
(111,-3,o),
(95,-39,o),
(95,-95,cs),
(95,-170,o),
(147,-216,o),
(242,-218,cs)
);
},
{
closed = 1;
nodes = (
(223,-81,o),
(204,-71,o),
(204,-43,cs),
(204,-14,o),
(216,5,o),
(242,58,c),
(268,5,o),
(280,-14,o),
(280,-43,cs),
(280,-71,o),
(261,-81,o),
(242,-82,cs)
);
}
);
width = 484;
}
);
metricLeft = v;
metricRight = v;
unicode = 611;
},
{
color = 5;
glyphname = ghook;
kernLeft = KO_o;
lastChange = "2024-01-23 15:53:48 +0000";
layers = (
{
layerId = "60D037D9-62E9-4843-B070-F1594CB0B0D1";
shapes = (
{
closed = 1;
nodes = (
(133,-202,o),
(181,-207,o),
(229,-207,cs),
(379,-207,o),
(459,-117,o),
(459,47,cs),
(459,95,o),
(459,144,o),
(459,192,cs),
(459,265,o),
(459,389,o),
(459,622,cs),
(459,653,o),
(466,673,o),
(482,686,cs),
(493,695,o),
(506,698,o),
(525,698,cs),
(542,698,o),
(566,695,o),
(581,692,c),
(581,734,l),
(563,736,o),
(544,738,o),
(528,738,cs),
(486,738,o),
(461,727,o),
(447,701,cs),
(439,686,o),
(438,661,o),
(438,635,cs),
(438,554,o),
(438,511,o),
(438,480,cs),
(438,463,o),
(438,447,o),
(438,430,cs),
(438,400,o),
(437,393,o),
(430,393,cs),
(423,393,o),
(420,397,o),
(406,418,cs),
(386,448,o),
(342,496,o),
(251,496,cs),
(126,496,o),
(48,400,o),
(48,240,cs),
(48,80,o),
(126,-16,o),
(251,-16,cs),
(337,-16,o),
(381,34,o),
(403,62,cs),
(419,83,o),
(423,87,o),
(430,87,cs),
(437,87,o),
(437,80,o),
(437,53,cs),
(437,-75,o),
(381,-171,o),
(232,-171,cs),
(194,-171,o),
(143,-165,o),
(83,-146,c),
(83,-186,l)
);
},
{
closed = 1;
nodes = (
(69,376,o),
(132,459,o),
(251,459,cs),
(373,459,o),
(441,384,o),
(441,240,cs),
(441,96,o),
(357,21,o),
(251,21,cs),
(132,21,o),
(69,104,o),
(69,240,cs)
);
}
);
width = 593;
},
{
layerId = m01;
shapes = (
{
closed = 1;
nodes = (
(101,-192,o),
(166,-205,o),
(240,-205,cs),
(430,-205,o),
(506,-102,o),
(506,102,cs),
(506,258,o),
(506,295,o),
(506,354,cs),
(506,372,o),
(506,391,o),
(506,482,cs),
(506,549,o),
(513,578,o),
(524,591,cs),
(533,602,o),
(549,608,o),
(569,608,cs),
(586,608,o),
(586,608,o),
(632,602,c),
(632,737,l),
(605,741,o),
(579,744,o),
(556,744,cs),
(520,744,o),
(492,734,o),
(469,711,cs),
(443,685,o),
(442,641,o),
(442,619,cs),
(442,588,o),
(442,558,o),
(442,527,cs),
(442,516,o),
(442,507,o),
(442,437,cs),
(442,420,o),
(438,409,o),
(428,409,cs),
(421,409,o),
(413,419,o),
(396,442,cs),
(373,473,o),
(336,508,o),
(242,508,cs),
(83,508,o),
(30,432,o),
(30,273,cs),
(30,106,o),
(96,42,o),
(242,42,cs),
(336,42,o),
(373,77,o),
(396,108,cs),
(413,131,o),
(421,141,o),
(428,141,cs),
(438,141,o),
(438,130,o),
(438,118,cs),
(438,47,o),
(382,-19,o),
(235,-19,cs),
(158,-19,o),
(85,13,o),
(61,25,c),
(61,-181,l)
);
},
{
closed = 1;
nodes = (
(88,297,o),
(133,319,o),
(264,319,cs),
(395,319,o),
(440,297,o),
(440,256,cs),
(440,215,o),
(395,193,o),
(264,193,cs),
(133,193,o),
(88,215,o),
(88,256,cs)
);
}
);
width = 644;
}
);
metricLeft = g;
metricRight = T;
unicode = 608;
},
{
color = 2;
glyphname = glottalstop;
lastChange = "2024-01-09 18:44:02 +0000";
layers = (
{
layerId = "60D037D9-62E9-4843-B070-F1594CB0B0D1";
shapes = (
{
closed = 1;
nodes = (
(110,357,o),
(97,361,o),
(70,368,c),
(70,228,o),
(70,103,o),
(68,0,c),
(96,0,l),
(93,92,o),
(90,280,o),
(91,326,c),
(107,324,o),
(129,322,o),
(160,322,cs),
(293,322,o),
(347,421,o),
(346,513,cs),
(346,622,o),
(274,698,o),
(130,698,cs),
(96,698,o),
(54,689,o),
(20,681,c),
(20,638,l),
(62,654,o),
(110,665,o),
(147,665,cs),
(192,665,o),
(234,656,o),
(266,632,cs),
(303,605,o),
(324,566,o),
(324,510,cs),
(324,453,o),
(303,416,o),
(266,388,cs),
(234,364,o),
(188,357,o),
(147,357,cs)
);
}
);
width = 371;
},
{
layerId = m01;
shapes = (
{
closed = 1;
nodes = (
(244,398,o),
(172,403,o),
(138,410,c),
(142,348,o),
(142,237,o),
(140,0,c),
(202,0,l),
(200,138,o),
(200,258,o),
(199,278,c),
(229,276,o),
(262,273,o),
(291,273,cs),
(404,273,o),
(472,362,o),
(472,508,cs),
(472,646,o),
(389,729,o),
(210,729,cs),
(157,729,o),
(93,716,o),
(67,707,c),
(67,528,l),
(100,535,o),
(180,545,o),
(273,545,cs),
(325,545,o),
(367,537,o),
(391,519,cs),
(406,509,o),
(413,493,o),
(413,471,cs),
(413,450,o),
(406,434,o),
(391,424,cs),
(367,406,o),
(337,398,o),
(292,398,cs)
);
}
);
width = 532;
}
);
unicode = 660;
},
{
color = 2;
glyphname = glottalstopreversed;
lastChange = "2024-01-09 18:44:02 +0000";
layers = (
{
layerId = "60D037D9-62E9-4843-B070-F1594CB0B0D1";
shapes = (
{
closed = 1;
nodes = (
(178,357,o),
(132,364,o),
(100,388,cs),
(63,416,o),
(42,453,o),
(42,510,cs),
(42,566,o),
(63,605,o),
(100,632,cs),
(132,656,o),
(174,665,o),
(219,665,cs),
(256,665,o),
(304,654,o),
(346,638,c),
(346,681,l),
(312,689,o),
(270,698,o),
(236,698,cs),
(92,698,o),
(20,622,o),
(20,513,cs),
(19,421,o),
(73,322,o),
(206,322,cs),
(237,322,o),
(259,324,o),
(275,326,c),
(276,280,o),
(273,92,o),
(270,0,c),
(298,0,l),
(296,103,o),
(296,228,o),
(296,368,c),
(269,361,o),
(256,357,o),
(219,357,cs)
);
}
);
width = 371;
},
{
layerId = m01;
shapes = (
{
closed = 1;
nodes = (
(195,398,o),
(165,406,o),
(141,424,cs),
(126,434,o),
(119,450,o),
(119,471,cs),
(119,493,o),
(126,509,o),
(141,519,cs),
(165,537,o),
(207,545,o),
(259,545,cs),
(352,545,o),
(432,535,o),
(465,528,c),
(465,707,l),
(439,716,o),
(375,729,o),
(322,729,cs),
(143,729,o),
(60,646,o),
(60,508,cs),
(60,362,o),
(128,273,o),
(241,273,cs),
(270,273,o),
(303,276,o),
(333,278,c),
(332,258,o),
(332,138,o),
(330,0,c),
(392,0,l),
(390,237,o),
(390,348,o),
(394,410,c),
(360,403,o),
(288,398,o),
(240,398,cs)
);
}
);
width = 532;
}
);
unicode = 661;
},
{
color = 2;
glyphname = glottalstopsmall;
lastChange = "2024-01-09 18:44:02 +0000";
layers = (
{
layerId = "60D037D9-62E9-4843-B070-F1594CB0B0D1";
shapes = (
{
closed = 1;
nodes = (
(110,153,o),
(97,157,o),
(70,164,c),
(70,62,o),
(70,28,o),
(68,0,c),
(96,0,l),
(93,25,o),
(90,76,o),
(91,122,c),
(107,120,o),
(129,118,o),
(160,118,cs),
(293,118,o),
(347,217,o),
(346,309,cs),
(346,418,o),
(274,494,o),
(130,494,cs),
(96,494,o),
(54,485,o),
(20,477,c),
(20,434,l),
(62,450,o),
(110,461,o),
(147,461,cs),
(192,461,o),
(234,452,o),
(266,428,cs),
(303,401,o),
(324,362,o),
(324,306,cs),
(324,249,o),
(303,212,o),
(266,184,cs),
(234,160,o),
(188,153,o),
(147,153,cs)
);
}
);
width = 366;
},
{
layerId = m01;
shapes = (
{
closed = 1;
nodes = (
(200,177,o),
(128,182,o),
(94,189,c),
(98,127,o),
(98,16,o),
(96,-8,c),
(158,-8,l),
(156,6,o),
(156,37,o),
(155,57,c),
(185,55,o),
(218,52,o),
(247,52,cs),
(360,52,o),
(428,141,o),
(428,287,cs),
(428,425,o),
(345,508,o),
(166,508,cs),
(113,508,o),
(49,495,o),
(23,486,c),
(23,307,l),
(56,314,o),
(136,324,o),
(229,324,cs),
(281,324,o),
(323,316,o),
(347,298,cs),
(362,288,o),
(369,272,o),
(369,250,cs),
(369,229,o),
(362,213,o),
(347,203,cs),
(323,185,o),
(293,177,o),
(248,177,cs)
);
}
);
width = 451;
}
);
unicode = 578;
},
{
color = 4;
glyphname = h;
kernLeft = KO_h;
kernRight = KO_n;
lastChange = "2024-01-23 08:22:47 +0000";
layers = (
{
anchors = (
{
name = bottom;
pos = (278,0);
},
{
name = center;
pos = (93,594);
},
{
name = top;
pos = (261,740);
}
);
layerId = m01;
shapes = (
{
closed = 1;
nodes = (
(122,0,l),
(118,139,o),
(118,139,o),
(118,179,cs),
(118,260,o),
(130,266,o),
(278,266,cs),
(426,266,o),
(438,260,o),
(438,179,cs),
(438,139,o),
(438,139,o),
(434,0,c),
(506,0,l),
(503,62,o),
(502,186,o),
(502,347,cs),
(502,465,o),
(414,508,o),
(319,508,cs),
(232,508,o),
(183,465,o),
(160,433,cs),
(141,407,o),
(135,400,o),
(128,400,cs),
(118,400,o),
(118,412,o),
(118,431,cs),
(118,448,o),
(120,714,o),
(122,739,c),
(50,739,l),
(53,401,o),
(53,401,o),
(53,370,cs),
(53,339,o),
(53,339,o),
(50,0,c)
);
}
);
width = 542;
},
{
anchors = (
{
name = bottom;
pos = (282,0);
},
{
name = center;
pos = (142,587);
},
{
name = top;
pos = (282,740);
}
);
background = {
shapes = (
{
closed = 1;
nodes = (
(116,0,l),
(114,77,o),
(112,176,o),
(112,240,cs),
(112,295,o),
(117,319,o),
(124,338,cs),
(144,389,o),
(201,459,o),
(308,459,cs),
(382,459,o),
(462,435,o),
(461,311,cs),
(460,188,o),
(459,77,o),
(456,0,c),
(484,0,l),
(483,77,o),
(483,188,o),
(481,329,cs),
(480,429,o),
(429,496,o),
(317,496,cs),
(216,496,o),
(167,437,o),
(146,408,cs),
(131,387,o),
(129,383,o),
(122,383,cs),
(115,383,o),
(115,390,o),
(115,430,cs),
(115,442,o),
(115,717,o),
(116,739,c),
(88,739,l),
(92,626,o),
(92,347,o),
(88,0,c)
);
}
);
};
layerId = "60D037D9-62E9-4843-B070-F1594CB0B0D1";
shapes = (
{
closed = 1;
nodes = (
(116,0,l),
(113,182,o),
(113,182,o),
(113,249,cs),
(113,371,o),
(182,459,o),
(308,459,cs),
(382,459,o),
(460,429,o),
(460,305,cs),
(460,182,o),
(460,182,o),
(456,0,c),
(484,0,l),
(481,182,o),
(481,182,o),
(481,330,cs),
(481,425,o),
(429,496,o),
(317,496,cs),
(216,496,o),
(166,438,o),
(146,408,cs),
(132,387,o),
(129,383,o),
(122,383,cs),
(115,383,o),
(114,390,o),
(114,430,cs),
(114,522,o),
(114,711,o),
(116,740,c),
(88,740,l),
(91,468,o),
(91,468,o),
(91,350,cs),
(91,267,o),
(91,267,o),
(88,0,c)
);
}
);
width = 574;
}
);
metricLeft = n;
metricRight = n;
unicode = 104;
userData = {
KernOnName = h;
};
},
{
color = 4;
glyphname = hcedilla;
kernLeft = KO_h;
kernRight = KO_n;
lastChange = "2024-01-19 18:18:29 +0000";
layers = (
{
anchors = (
{
name = bottom;
pos = (352,-159);
}
);
layerId = "60D037D9-62E9-4843-B070-F1594CB0B0D1";
shapes = (
{
ref = h;
},
{
closed = 1;
nodes = (
(85,-174,l),
(205,-204,o),
(234,-142,o),
(234,-112,cs),
(234,-68,o),
(195,-42,o),
(123,-47,cs),
(103,-48,o),
(101,-47,o),
(122,0,c),
(94,0,l),
(66,-64,o),
(67,-70,o),
(107,-70,cs),
(183,-70,o),
(208,-82,o),
(208,-108,cs),
(208,-126,o),
(188,-154,o),
(85,-132,c)
);
}
);
width = 576;
},
{
anchors = (
{
name = bottom;
pos = (155,-212);
}
);
layerId = m01;
shapes = (
{
ref = h;
},
{
closed = 1;
nodes = (
(56,-203,l),
(199,-234,o),
(237,-162,o),
(237,-109,cs),
(237,-38,o),
(171,-28,o),
(127,-28,cs),
(104,-28,o),
(90,-31,o),
(122,0,c),
(50,0,l),
(24,-32,o),
(32,-66,o),
(81,-66,cs),
(129,-66,o),
(159,-66,o),
(159,-88,cs),
(159,-119,o),
(87,-114,o),
(56,-109,c)
);
}
);
width = 542;
}
);
unicode = 7721;
},
{
color = 5;
glyphname = heng;
lastChange = "2024-01-23 15:55:11 +0000";
layers = (
{
anchors = (
{
name = bottom;
pos = (282,0);
},
{
name = top;
pos = (317,496);
}
);
guides = (
{
angle = 90;
pos = (458,0);
}
);
layerId = "60D037D9-62E9-4843-B070-F1594CB0B0D1";
shapes = (
{
closed = 1;
nodes = (
(401,-225,o),
(484,-180,o),
(484,-65,cs),
(484,75,o),
(481,92,o),
(481,330,cs),
(481,425,o),
(429,496,o),
(317,496,cs),
(216,496,o),
(167,437,o),
(146,408,cs),
(131,387,o),
(129,383,o),
(122,383,cs),
(115,383,o),
(115,390,o),
(115,430,cs),
(115,507,o),
(113,655,o),
(116,739,c),
(88,739,l),
(92,392,o),
(92,347,o),
(88,0,c),
(116,0,l),
(114,77,o),
(113,176,o),
(113,249,cs),
(113,371,o),
(182,459,o),
(308,459,cs),
(382,459,o),
(461,429,o),
(460,305,cs),
(458,-46,ls),
(458,-107,o),
(437,-138,o),
(409,-151,cs),
(366,-172,o),
(305,-149,o),
(277,-133,c),
(277,-175,l)
);
}
);
width = 572;
},
{
anchors = (
{
name = bottom;
pos = (263,0);
},
{
name = top;
pos = (319,508);
}
);
layerId = m01;
shapes = (
{
closed = 1;
nodes = (
(420,-209,o),
(505,-199,o),
(505,0,cs),
(506,62,o),
(502,186,o),
(502,347,cs),
(502,465,o),
(414,508,o),
(319,508,cs),
(232,508,o),
(188,468,o),
(163,439,cs),
(142,414,o),
(135,400,o),
(128,400,cs),
(118,400,o),
(118,412,o),
(118,431,cs),
(118,448,o),
(120,714,o),
(122,739,c),
(50,739,l),
(56,542,o),
(53,187,o),
(50,0,c),
(122,0,l),
(120,46,o),
(118,139,o),
(118,179,cs),
(118,260,o),
(130,266,o),
(278,266,cs),
(426,266,o),
(438,260,o),
(438,179,cs),
(438,166,ls),
(438,69,o),
(437,14,o),
(408,-8,cs),
(384,-26,o),
(341,-31,o),
(264,-15,c),
(264,-190,l)
);
}
);
width = 555;
}
);
metricLeft = h;
metricRight = j;
unicode = 42791;
},
{
color = 5;
glyphname = hhook;
kernLeft = KO_h;
kernRight = KO_n;
lastChange = "2024-01-23 15:53:48 +0000";
layers = (
{
layerId = "60D037D9-62E9-4843-B070-F1594CB0B0D1";
shapes = (
{
closed = 1;
nodes = (
(116,0,l),
(113,182,o),
(113,182,o),
(113,249,cs),
(113,371,o),
(182,459,o),
(308,459,cs),
(382,459,o),
(460,429,o),
(460,305,cs),
(460,182,o),
(460,182,o),
(456,0,c),
(484,0,l),
(481,182,o),
(481,182,o),
(481,330,cs),
(481,425,o),
(429,496,o),
(317,496,cs),
(216,496,o),
(166,438,o),
(146,408,cs),
(132,387,o),
(129,383,o),
(122,383,cs),
(115,383,o),
(113,390,o),
(113,430,cs),
(113,494,o),
(113,558,o),
(113,622,cs),
(113,653,o),
(119,673,o),
(135,686,cs),
(146,695,o),
(159,698,o),
(178,698,cs),
(195,698,o),
(219,695,o),
(234,692,c),
(234,734,l),
(216,736,o),
(197,738,o),
(181,738,cs),
(139,738,o),
(114,727,o),
(100,701,cs),
(92,686,o),
(91,661,o),
(91,635,cs),
(91,554,o),
(91,511,o),
(91,350,cs),
(91,267,o),
(91,267,o),
(88,0,c)
);
}
);
width = 574;
},
{
layerId = m01;
shapes = (
{
closed = 1;
nodes = (
(123,0,l),
(119,139,o),
(119,139,o),
(119,179,cs),
(119,260,o),
(131,266,o),
(279,266,cs),
(427,266,o),
(439,260,o),
(439,179,cs),
(439,139,o),
(439,139,o),
(435,0,c),
(507,0,l),
(504,62,o),
(503,186,o),
(503,347,cs),
(503,465,o),
(415,508,o),
(320,508,cs),
(233,508,o),
(184,465,o),
(161,433,cs),
(142,407,o),
(136,400,o),
(129,400,cs),
(119,400,o),
(119,412,o),
(119,431,cs),
(119,434,o),
(119,445,o),
(119,481,cs),
(119,549,o),
(125,579,o),
(135,591,cs),
(144,602,o),
(160,608,o),
(180,608,cs),
(197,608,o),
(197,608,o),
(243,602,c),
(243,737,l),
(216,741,o),
(190,744,o),
(167,744,cs),
(131,744,o),
(103,734,o),
(80,711,cs),
(54,685,o),
(50,641,o),
(50,619,cs),
(54,391,o),
(54,391,o),
(54,370,cs),
(53,247,o),
(52,123,o),
(51,0,c)
);
}
);
width = 543;
}
);
metricLeft = h;
metricRight = h;
unicode = 614;
},
{
color = 4;
glyphname = i;
kernLeft = KO_i;
kernRight = KO_i;
lastChange = "2024-01-23 08:05:47 +0000";
layers = (
{
anchors = (
{
name = bottom;
pos = (201,0);
},
{
name = center;
pos = (211,225);
}
);
background = {
shapes = (
{
closed = 1;
nodes = (
(321,636,o),
(350,653,o),
(350,700,cs),
(350,749,o),
(321,766,o),
(238,766,cs),
(155,766,o),
(126,749,o),
(126,700,cs),
(126,653,o),
(155,636,o),
(238,636,cs)
);
},
{
closed = 1;
nodes = (
(70,0,l),
(355,0,l),
(355,129,l),
(329,129,o),
(296,128,o),
(278,129,cs),
(263,130,o),
(254,132,o),
(249,140,cs),
(242,150,o),
(241,170,o),
(241,210,cs),
(241,283,o),
(244,466,o),
(245,500,c),
(82,500,l),
(82,291,l),
(109,291,o),
(129,292,o),
(147,291,cs),
(180,289,o),
(184,283,o),
(184,210,cs),
(184,169,o),
(183,149,o),
(176,139,cs),
(170,132,o),
(162,130,o),
(147,129,c),
(129,128,o),
(96,129,o),
(70,129,c)
);
}
);
};
layerId = m01;
shapes = (
{
closed = 1;
nodes = (
(30,0,l),
(380,0,l),
(380,159,l),
(280,159,o),
(263,159,o),
(253,166,cs),
(239,175,o),
(239,204,o),
(239,283,cs),
(239,356,o),
(239,356,o),
(242,500,c),
(42,500,l),
(42,291,l),
(143,291,o),
(160,291,o),
(170,284,cs),
(184,275,o),
(184,246,o),
(184,225,cs),
(184,204,o),
(184,175,o),
(170,166,cs),
(160,159,o),
(143,159,o),
(30,159,c)
);
},
{
closed = 1;
nodes = (
(264,596,o),
(293,619,o),
(293,668,cs),
(293,717,o),
(264,740,o),
(200,740,cs),
(133,740,o),
(102,717,o),
(102,668,cs),
(102,619,o),
(133,596,o),
(200,596,cs)
);
}
);
width = 404;
},
{
anchors = (
{
name = bottom;
pos = (127,0);
},
{
name = center;
pos = (130,240);
}
);
guides = (
{
pos = (642,11);
}
);
layerId = "60D037D9-62E9-4843-B070-F1594CB0B0D1";
shapes = (
{
closed = 1;
nodes = (
(12,0,l),
(244,0,l),
(244,33,l),
(170,33,o),
(161,33,o),
(153,39,cs),
(143,47,o),
(140,62,o),
(140,240,cs),
(140,284,o),
(141,451,o),
(142,480,c),
(26,480,l),
(26,447,l),
(90,447,o),
(99,447,o),
(107,441,cs),
(117,434,o),
(119,418,o),
(119,240,cs),
(119,62,o),
(117,47,o),
(107,39,cs),
(99,33,o),
(90,33,o),
(12,33,c)
);
},
{
closed = 1;
nodes = (
(145,648,o),
(159,664,o),
(159,693,cs),
(159,723,o),
(145,739,o),
(122,739,cs),
(97,739,o),
(83,723,o),
(83,693,cs),
(83,664,o),
(97,648,o),
(122,648,cs)
);
}
);
width = 262;
}
);
unicode = 105;
userData = {
KernOnName = i;
};
},
{
color = 2;
glyphname = idotless;
kernLeft = KO_i;
kernRight = KO_i;
lastChange = "2024-01-23 08:10:49 +0000";
layers = (
{
anchors = (
{
name = bottom;
pos = (111,0);
},
{
name = ogonek;
pos = (160,0);
},
{
name = top;
pos = (111,480);
}
);
background = {
shapes = (
{
closed = 1;
nodes = (
(141,645,o),
(156,658,o),
(156,685,cs),
(156,715,o),
(141,729,o),
(110,729,cs),
(78,729,o),
(63,715,o),
(63,685,cs),
(63,658,o),
(78,645,o),
(110,645,cs)
);
}
);
};
layerId = "60D037D9-62E9-4843-B070-F1594CB0B0D1";
shapes = (
{
closed = 1;
nodes = (
(12,0,l),
(248,0,l),
(248,33,l),
(170,33,o),
(161,33,o),
(153,39,cs),
(143,47,o),
(140,62,o),
(140,240,cs),
(140,377,o),
(139,392,o),
(141,480,c),
(26,480,l),
(26,447,l),
(90,447,o),
(99,447,o),
(107,441,cs),
(117,434,o),
(119,418,o),
(119,240,cs),
(119,62,o),
(117,47,o),
(107,39,cs),
(99,33,o),
(90,33,o),
(12,33,c)
);
}
);
width = 266;
},
{
anchors = (
{
name = bottom;
pos = (177,0);
},
{
name = ogonek;
pos = (276,0);
},
{
name = top;
pos = (157,500);
}
);
background = {
shapes = (
{
closed = 1;
nodes = (
(240,596,o),
(269,619,o),
(269,668,cs),
(269,717,o),
(240,740,o),
(176,740,cs),
(109,740,o),
(78,717,o),
(78,668,cs),
(78,619,o),
(109,596,o),
(176,596,cs)
);
}
);
};
layerId = m01;
shapes = (
{
closed = 1;
nodes = (
(30,0,l),
(380,0,l),
(380,159,l),
(278,159,o),
(261,159,o),
(251,166,cs),
(237,175,o),
(239,204,o),
(239,283,cs),
(239,356,o),
(240,466,o),
(241,500,c),
(42,500,l),
(42,291,l),
(143,291,o),
(160,291,o),
(170,284,cs),
(184,275,o),
(184,246,o),
(184,225,cs),
(184,204,o),
(184,175,o),
(170,166,cs),
(160,159,o),
(143,159,o),
(30,159,c)
);
}
);
width = 404;
}
);
metricLeft = i;
metricRight = i;
unicode = 305;
},
{
color = 5;
glyphname = ij;
lastChange = "2024-01-09 17:04:28 +0000";
layers = (
{
layerId = "60D037D9-62E9-4843-B070-F1594CB0B0D1";
shapes = (
{
closed = 1;
nodes = (
(40,0,l),
(276,0,l),
(276,33,l),
(198,33,o),
(189,33,o),
(181,39,cs),
(171,47,o),
(168,62,o),
(168,240,cs),
(168,377,o),
(167,392,o),
(169,480,c),
(54,480,l),
(54,447,l),
(118,447,o),
(127,447,o),
(135,441,cs),
(145,434,o),
(147,418,o),
(147,240,cs),
(147,62,o),
(145,47,o),
(135,39,cs),
(127,33,o),
(118,33,o),
(40,33,c)
);
},
{
closed = 1;
nodes = (
(173,648,o),
(187,664,o),
(187,693,cs),
(187,723,o),
(173,739,o),
(150,739,cs),
(125,739,o),
(111,723,o),
(111,693,cs),
(111,664,o),
(125,648,o),
(150,648,cs)
);
},
{
closed = 1;
nodes = (
(407,648,o),
(421,664,o),
(421,693,cs),
(421,723,o),
(407,739,o),
(384,739,cs),
(359,739,o),
(345,723,o),
(345,693,cs),
(345,664,o),
(359,648,o),
(384,648,cs)
);
},
{
closed = 1;
nodes = (
(200,-175,l),
(275,-206,o),
(401,-224,o),
(402,-62,cs),
(403,30,o),
(400,383,o),
(402,480,c),
(287,480,l),
(287,447,l),
(352,447,o),
(361,447,o),
(369,441,cs),
(379,433,o),
(381,427,o),
(381,-46,cs),
(381,-107,o),
(360,-138,o),
(332,-151,cs),
(289,-172,o),
(228,-149,o),
(200,-133,c)
);
}
);
width = 532;
},
{
layerId = m01;
shapes = (
{
closed = 1;
nodes = (
(83,0,l),
(433,0,l),
(433,159,l),
(331,159,o),
(314,159,o),
(304,166,cs),
(290,175,o),
(292,204,o),
(292,283,cs),
(292,356,o),
(293,466,o),
(294,500,c),
(95,500,l),
(95,291,l),
(196,291,o),
(213,291,o),
(223,284,cs),
(237,275,o),
(237,246,o),
(237,225,cs),
(237,204,o),
(237,175,o),
(223,166,cs),
(213,159,o),
(196,159,o),
(83,159,c)
);
},
{
closed = 1;
nodes = (
(317,596,o),
(346,619,o),
(346,668,cs),
(346,717,o),
(317,740,o),
(253,740,cs),
(186,740,o),
(155,717,o),
(155,668,cs),
(155,619,o),
(186,596,o),
(253,596,cs)
);
},
{
closed = 1;
nodes = (
(598,596,o),
(627,619,o),
(627,668,cs),
(627,717,o),
(598,740,o),
(534,740,cs),
(467,740,o),
(436,717,o),
(436,668,cs),
(436,619,o),
(467,596,o),
(534,596,cs)
);
},
{
closed = 1;
nodes = (
(352,-190,l),
(501,-209,o),
(583,-200,o),
(583,-22,cs),
(583,232,o),
(582,373,o),
(585,500,c),
(389,500,l),
(389,291,l),
(485,291,o),
(502,291,o),
(512,284,cs),
(526,275,o),
(526,246,o),
(526,166,cs),
(526,69,o),
(525,14,o),
(496,-8,cs),
(472,-26,o),
(429,-31,o),
(352,-15,c)
);
}
);
width = 652;
}
);
unicode = 307;
},
{
color = 2;
glyphname = "iota-latin";
lastChange = "2024-01-23 08:10:49 +0000";
layers = (
{
layerId = "60D037D9-62E9-4843-B070-F1594CB0B0D1";
shapes = (
{
closed = 1;
nodes = (
(127,480,l),
(12,480,l),
(12,447,l),
(77,447,o),
(85,447,o),
(93,441,cs),
(103,433,o),
(105,426,o),
(105,126,cs),
(105,61,o),
(128,26,o),
(157,9,cs),
(202,-18,o),
(261,-6,o),
(281,-2,c),
(281,37,l),
(257,30,o),
(216,23,o),
(181,34,cs),
(147,45,o),
(135,78,o),
(132,94,cs),
(126,121,o),
(126,162,o),
(127,274,c)
);
}
);
width = 299;
},
{
layerId = m01;
shapes = (
{
closed = 1;
nodes = (
(221,500,l),
(30,500,l),
(30,291,l),
(121,291,o),
(138,291,o),
(148,284,cs),
(162,274,o),
(162,245,o),
(162,217,cs),
(162,197,o),
(159,117,o),
(186,67,cs),
(223,-1,o),
(279,-15,o),
(391,-5,c),
(391,189,l),
(353,173,o),
(315,166,o),
(284,169,cs),
(258,172,o),
(240,183,o),
(232,199,cs),
(220,222,o),
(219,254,o),
(219,291,c)
);
}
);
width = 415;
}
);
metricLeft = i;
metricRight = i;
unicode = 617;
},
{
color = 4;
glyphname = j;
kernLeft = KO_j;
kernRight = KO_j;
lastChange = "2024-01-23 08:22:47 +0000";
layers = (
{
anchors = (
{
name = center;
pos = (156,225);
}
);
background = {
shapes = (
{
closed = 1;
nodes = (
(-46,-190,l),
(-14,-194,o),
(16,-197,o),
(42,-197,cs),
(135,-197,o),
(185,-161,o),
(185,-22,cs),
(185,80,o),
(185,164,o),
(185,236,cs),
(185,343,o),
(185,424,o),
(187,500,c),
(-9,500,l),
(-9,291,l),
(87,291,o),
(104,291,o),
(114,284,cs),
(128,275,o),
(128,246,o),
(128,166,cs),
(128,69,o),
(127,14,o),
(98,-8,cs),
(84,-19,o),
(62,-25,o),
(31,-25,cs),
(10,-24,o),
(-15,-21,o),
(-46,-15,c)
);
}
);
};
layerId = m01;
shapes = (
{
closed = 1;
nodes = (
(200,596,o),
(229,619,o),
(229,668,cs),
(229,717,o),
(200,740,o),
(136,740,cs),
(69,740,o),
(38,717,o),
(38,668,cs),
(38,619,o),
(69,596,o),
(136,596,cs)
);
},
{
closed = 1;
nodes = (
(-46,-190,l),
(-14,-194,o),
(16,-197,o),
(42,-197,cs),
(135,-197,o),
(185,-161,o),
(185,-22,cs),
(185,80,o),
(185,164,o),
(185,236,cs),
(185,343,o),
(185,343,o),
(188,500,c),
(-9,500,l),
(-9,291,l),
(87,291,o),
(104,291,o),
(114,284,cs),
(128,275,o),
(128,246,o),
(128,166,cs),
(128,69,o),
(127,14,o),
(98,-8,cs),
(84,-19,o),
(62,-25,o),
(31,-25,cs),
(10,-25,o),
(-15,-21,o),
(-46,-15,c)
);
}
);
width = 279;
},
{
anchors = (
{
name = center;
pos = (128,240);
}
);
background = {
shapes = (
{
closed = 1;
nodes = (
(-64,-175,l),
(-38,-186,o),
(-5,-195,o),
(26,-196,cs),
(84,-196,o),
(137,-167,o),
(138,-62,cs),
(138,-22,o),
(138,67,o),
(138,163,cs),
(137,288,o),
(137,425,o),
(138,480,c),
(23,480,l),
(23,447,l),
(88,447,o),
(97,447,o),
(105,441,cs),
(115,433,o),
(117,427,o),
(117,-46,cs),
(117,-107,o),
(96,-138,o),
(68,-151,cs),
(55,-157,o),
(40,-160,o),
(25,-159,cs),
(-9,-159,o),
(-45,-144,o),
(-64,-133,c)
);
}
);
};
layerId = "60D037D9-62E9-4843-B070-F1594CB0B0D1";
shapes = (
{
closed = 1;
nodes = (
(143,648,o),
(157,664,o),
(157,693,cs),
(157,723,o),
(143,739,o),
(120,739,cs),
(95,739,o),
(81,723,o),
(81,693,cs),
(81,664,o),
(95,648,o),
(120,648,cs)
);
},
{
closed = 1;
nodes = (
(-64,-175,l),
(-38,-186,o),
(-5,-196,o),
(26,-196,cs),
(86,-196,o),
(138,-167,o),
(138,-62,cs),
(138,67,o),
(138,67,o),
(138,163,cs),
(138,210,o),
(138,451,o),
(139,480,c),
(23,480,l),
(23,447,l),
(88,447,o),
(97,447,o),
(105,441,cs),
(115,433,o),
(117,427,o),
(117,-46,cs),
(117,-107,o),
(96,-138,o),
(68,-151,cs),
(55,-157,o),
(40,-159,o),
(25,-159,cs),
(-9,-159,o),
(-45,-144,o),
(-64,-133,c)
);
}
);
width = 245;
}
);
metricRight = "=|n";
unicode = 106;
userData = {
KernOnName = j;
};
},
{
color = 4;
glyphname = jdotless;
lastChange = "2024-01-23 08:10:49 +0000";
layers = (
{
anchors = (
{
name = bottom;
pos = (163,-260);
},
{
name = top;
pos = (84,480);
}
);
background = {
shapes = (
{
closed = 1;
nodes = (
(242,656,o),
(253,665,o),
(253,697,cs),
(253,731,o),
(242,740,o),
(201,740,cs),
(162,740,o),
(151,731,o),
(151,697,cs),
(151,665,o),
(162,656,o),
(201,656,cs)
);
}
);
};
layerId = "60D037D9-62E9-4843-B070-F1594CB0B0D1";
shapes = (
{
closed = 1;
nodes = (
(-64,-175,l),
(11,-206,o),
(137,-224,o),
(138,-62,cs),
(139,30,o),
(136,383,o),
(138,480,c),
(23,480,l),
(23,447,l),
(88,447,o),
(97,447,o),
(105,441,cs),
(115,433,o),
(117,427,o),
(117,-46,cs),
(117,-107,o),
(96,-138,o),
(68,-151,cs),
(25,-172,o),
(-36,-149,o),
(-64,-133,c)
);
}
);
width = 211;
},
{
anchors = (
{
name = bottom;
pos = (141,-260);
},
{
name = top;
pos = (95,500);
}
);
background = {
shapes = (
{
closed = 1;
nodes = (
(248,612,o),
(282,634,o),
(282,682,cs),
(282,733,o),
(247,756,o),
(171,756,cs),
(96,756,o),
(61,734,o),
(61,685,cs),
(61,635,o),
(97,612,o),
(175,612,cs)
);
}
);
};
layerId = m01;
shapes = (
{
closed = 1;
nodes = (
(-46,-190,l),
(103,-209,o),
(185,-200,o),
(185,-22,cs),
(185,232,o),
(184,373,o),
(187,500,c),
(-9,500,l),
(-9,291,l),
(87,291,o),
(104,291,o),
(114,284,cs),
(128,275,o),
(128,246,o),
(128,166,cs),
(128,69,o),
(127,14,o),
(98,-8,cs),
(74,-26,o),
(31,-31,o),
(-46,-15,c)
);
}
);
width = 243;
}
);
metricLeft = j;
unicode = 567;
},
{
color = 4;
glyphname = jcrossedtail;
lastChange = "2024-01-23 15:53:48 +0000";
layers = (
{
anchors = (
{
name = center;
pos = (253,240);
}
);
layerId = "60D037D9-62E9-4843-B070-F1594CB0B0D1";
shapes = (
{
closed = 1;
nodes = (
(102,-196,o),
(155,-196,cs),
(222,-196,o),
(263,-149,o),
(263,-62,cs),
(263,128,o),
(262,263,o),
(262,361,cs),
(262,412,o),
(262,455,o),
(263,480,c),
(148,480,l),
(148,447,l),
(205,447,o),
(224,447,o),
(230,440,cs),
(237,432,o),
(239,409,o),
(240,362,cs),
(243,224,o),
(242,123,o),
(242,-46,cs),
(242,-122,o),
(212,-159,o),
(147,-159,cs),
(105,-159,o),
(72,-142,o),
(72,-98,cs),
(72,-5,o),
(216,-14,o),
(245,-14,cs),
(290,-14,o),
(313,-17,o),
(336,-19,c),
(336,6,l),
(292,8,o),
(244,12,o),
(180,7,cs),
(114,2,o),
(48,-11,o),
(48,-103,cs),
(48,-168,o)
);
},
{
closed = 1;
nodes = (
(268,648,o),
(282,665,o),
(282,694,cs),
(282,724,o),
(268,739,o),
(244,739,cs),
(220,739,o),
(206,723,o),
(206,694,cs),
(206,664,o),
(220,648,o),
(244,648,cs)
);
}
);
width = 384;
},
{
anchors = (
{
name = center;
pos = (315,225);
}
);
layerId = m01;
shapes = (
{
closed = 1;
nodes = (
(62,-197,o),
(205,-197,cs),
(299,-197,o),
(344,-140,o),
(344,-22,cs),
(344,80,o),
(344,155,o),
(344,235,cs),
(344,335,o),
(344,424,o),
(346,500,c),
(150,500,l),
(150,291,l),
(258,291,o),
(266,288,o),
(272,285,cs),
(283,279,o),
(284,260,o),
(285,249,cs),
(288,209,o),
(287,204,o),
(287,143,cs),
(287,15,o),
(284,-25,o),
(200,-25,cs),
(142,-25,o),
(138,-3,o),
(138,10,cs),
(138,29,o),
(153,50,o),
(223,61,cs),
(296,72,o),
(333,71,o),
(436,63,c),
(436,109,l),
(384,114,o),
(328,120,o),
(249,116,cs),
(109,109,o),
(30,52,o),
(30,-41,cs),
(30,-112,o)
);
},
{
closed = 1;
nodes = (
(361,596,o),
(388,619,o),
(388,668,cs),
(388,717,o),
(361,740,o),
(295,740,cs),
(230,740,o),
(197,717,o),
(197,668,cs),
(197,619,o),
(230,596,o),
(295,596,cs)
);
}
);
width = 466;
}
);
metricLeft = o;
metricRight = o;
unicode = 669;
},
{
color = 4;
glyphname = k;
kernLeft = KO_h;
kernRight = KO_k;
lastChange = "2024-01-23 08:23:17 +0000";
layers = (
{
anchors = (
{
name = bottom;
pos = (227,0);
},
{
name = center;
pos = (68,587);
},
{
name = top;
pos = (227,740);
}
);
background = {
shapes = (
{
angle = -90;
pos = (-43,717);
ref = m;
}
);
};
layerId = m01;
shapes = (
{
closed = 1;
nodes = (
(122,0,l),
(120,27,o),
(117,92,o),
(117,119,cs),
(117,133,o),
(117,161,o),
(122,179,cs),
(130,209,o),
(163,211,o),
(185,211,c),
(185,145,o),
(208,70,o),
(248,32,cs),
(279,2,o),
(320,-16,o),
(375,-16,cs),
(399,-16,o),
(460,-9,o),
(479,1,c),
(479,212,l),
(468,201,o),
(442,188,o),
(411,178,cs),
(387,170,o),
(359,165,o),
(333,165,cs),
(277,165,o),
(245,190,o),
(235,212,c),
(241,212,o),
(246,212,o),
(251,212,cs),
(413,216,o),
(445,243,o),
(470,500,c),
(404,500,l),
(404,469,o),
(404,466,o),
(403,442,cs),
(402,423,o),
(398,410,o),
(388,401,cs),
(373,387,o),
(337,385,o),
(255,385,cs),
(174,385,o),
(142,388,o),
(129,400,cs),
(119,409,o),
(119,422,o),
(119,442,cs),
(119,475,o),
(119,525,o),
(122,740,c),
(50,740,l),
(53,401,o),
(53,401,o),
(53,370,cs),
(53,339,o),
(53,339,o),
(50,0,c)
);
}
);
width = 491;
},
{
anchors = (
{
name = bottom;
pos = (247,0);
},
{
name = center;
pos = (103,587);
},
{
name = top;
pos = (247,700);
}
);
background = {
shapes = (
{
closed = 1;
nodes = (
(116,0,l),
(115,61,o),
(113,196,o),
(113,208,cs),
(113,239,o),
(113,247,o),
(120,252,cs),
(127,256,o),
(104,259,o),
(277,261,c),
(354,39,o),
(385,21,o),
(403,8,cs),
(412,2,o),
(422,-2,o),
(431,-4,cs),
(442,-6,o),
(451,-6,o),
(457,-5,c),
(457,38,l),
(445,35,o),
(431,33,o),
(416,42,cs),
(388,59,o),
(350,112,o),
(298,263,c),
(313,269,o),
(326,259,o),
(434,480,c),
(404,480,l),
(382,428,o),
(363,389,o),
(348,360,cs),
(324,312,o),
(318,305,o),
(301,298,cs),
(283,291,o),
(235,291,o),
(205,291,cs),
(133,291,o),
(127,291,o),
(120,297,cs),
(115,301,o),
(115,308,o),
(115,336,cs),
(115,379,o),
(115,575,o),
(116,740,c),
(88,740,l),
(91,565,o),
(91,473,o),
(91,373,cs),
(91,273,o),
(91,175,o),
(88,0,c)
);
}
);
};
layerId = "60D037D9-62E9-4843-B070-F1594CB0B0D1";
shapes = (
{
closed = 1;
nodes = (
(116,0,l),
(113,129,o),
(113,129,o),
(113,208,cs),
(113,239,o),
(113,247,o),
(120,253,cs),
(127,259,o),
(133,261,o),
(277,261,c),
(354,39,o),
(387,18,o),
(403,8,cs),
(418,-1,o),
(432,-6,o),
(448,-6,cs),
(451,-6,o),
(454,-6,o),
(457,-5,c),
(457,38,l),
(452,36,o),
(446,35,o),
(439,35,cs),
(432,35,o),
(424,37,o),
(416,42,cs),
(388,59,o),
(350,112,o),
(298,263,c),
(299,263,o),
(308,263,o),
(312,265,cs),
(329,274,o),
(340,287,o),
(438,480,c),
(404,480,l),
(382,428,o),
(363,389,o),
(348,360,cs),
(324,312,o),
(310,297,o),
(293,294,cs),
(275,291,o),
(235,291,o),
(205,291,cs),
(133,291,o),
(127,291,o),
(120,297,cs),
(115,301,o),
(115,308,o),
(115,336,cs),
(115,379,o),
(115,454,o),
(118,740,c),
(88,740,l),
(91,565,o),
(91,473,o),
(91,373,cs),
(91,273,o),
(91,175,o),
(88,0,c)
);
}
);
width = 481;
}
);
metricLeft = n;
unicode = 107;
userData = {
KernOnName = k;
};
},
